<svg xmlns="http://www.w3.org/2000/svg" xmlns:xlink="http://www.w3.org/1999/xlink" width="700" zoomAndPan="magnify" viewBox="0 0 525 176.249993" height="235" preserveAspectRatio="xMidYMid meet" version="1.0"><defs><filter x="0%" y="0%" width="100%" height="100%" id="8c000e4374"><feColorMatrix values="0 0 0 0 1 0 0 0 0 1 0 0 0 0 1 0 0 0 1 0" color-interpolation-filters="sRGB"/></filter><clipPath id="c33318acf2"><path d="M 1.113281 0 L 523.140625 0 L 523.140625 175.503906 L 1.113281 175.503906 Z M 1.113281 0 " clip-rule="nonzero"/></clipPath><clipPath id="af8569f7fb"><path d="M 1.113281 3 L 520 3 L 520 170 L 1.113281 170 Z M 1.113281 3 " clip-rule="nonzero"/></clipPath><clipPath id="0ae7901030"><path d="M 1.113281 0 L 523.140625 0 L 523.140625 175.503906 L 1.113281 175.503906 Z M 1.113281 0 " clip-rule="nonzero"/></clipPath><mask id="6c9d341879"><g filter="url(#8c000e4374)"><rect x="-52.5" width="630" fill="#000000" y="-17.624999" height="211.499992" fill-opacity="0.43"/></g></mask><clipPath id="87b1fc61d8"><path d="M 0.746094 0.113281 L 518.324219 0.113281 L 518.324219 174.449219 L 0.746094 174.449219 Z M 0.746094 0.113281 " clip-rule="nonzero"/></clipPath><clipPath id="d9a0652b1a"><path d="M 3.226562 0.132812 L 518.277344 0.132812 L 518.277344 146.386719 L 514.207031 174.355469 L 0.898438 174.355469 L 3.808594 57.820312 Z M 3.226562 0.132812 " clip-rule="nonzero"/></clipPath><clipPath id="30d25c1472"><path d="M 0.746094 6 L 271 6 L 271 126 L 0.746094 126 Z M 0.746094 6 " clip-rule="nonzero"/></clipPath><clipPath id="1c73f17333"><path d="M 3.226562 0.132812 L 518.277344 0.132812 L 518.277344 146.386719 L 514.207031 174.355469 L 0.898438 174.355469 L 3.808594 57.820312 Z M 3.226562 0.132812 " clip-rule="nonzero"/></clipPath><clipPath id="8878606686"><path d="M 0.746094 19 L 231 19 L 231 97 L 0.746094 97 Z M 0.746094 19 " clip-rule="nonzero"/></clipPath><clipPath id="a6f773fc21"><path d="M 3.226562 0.132812 L 518.277344 0.132812 L 518.277344 146.386719 L 514.207031 174.355469 L 0.898438 174.355469 L 3.808594 57.820312 Z M 3.226562 0.132812 " clip-rule="nonzero"/></clipPath><clipPath id="a74d7f4a43"><path d="M 75 30 L 195 30 L 195 73 L 75 73 Z M 75 30 " clip-rule="nonzero"/></clipPath><clipPath id="60514d0e83"><path d="M 3.226562 0.132812 L 518.277344 0.132812 L 518.277344 146.386719 L 514.207031 174.355469 L 0.898438 174.355469 L 3.808594 57.820312 Z M 3.226562 0.132812 " clip-rule="nonzero"/></clipPath><clipPath id="121bac1e80"><rect x="0" width="523" y="0" height="176"/></clipPath><clipPath id="5794998555"><path d="M 1.113281 3 L 523.140625 3 L 523.140625 175 L 1.113281 175 Z M 1.113281 3 " clip-rule="nonzero"/></clipPath><clipPath id="84fb8f1dde"><path d="M 1.113281 0 L 520 0 L 520 170 L 1.113281 170 Z M 1.113281 0 " clip-rule="nonzero"/></clipPath><clipPath id="c9f1c40f32"><path d="M 1.113281 39 L 62 39 L 62 48 L 1.113281 48 Z M 1.113281 39 " clip-rule="nonzero"/></clipPath><clipPath id="8e42b7c164"><path d="M 1.113281 127 L 64 127 L 64 131 L 1.113281 131 Z M 1.113281 127 " clip-rule="nonzero"/></clipPath><clipPath id="bdf0412f1f"><path d="M 438 124 L 523.140625 124 L 523.140625 146 L 438 146 Z M 438 124 " clip-rule="nonzero"/></clipPath><clipPath id="af85b35cd4"><path d="M 438 130 L 523.140625 130 L 523.140625 146 L 438 146 Z M 438 130 " clip-rule="nonzero"/></clipPath><clipPath id="6a635b3bc2"><path d="M 1.113281 35 L 62 35 L 62 45 L 1.113281 45 Z M 1.113281 35 " clip-rule="nonzero"/></clipPath><clipPath id="1ba233bc74"><path d="M 1.113281 123 L 64 123 L 64 129 L 1.113281 129 Z M 1.113281 123 " clip-rule="nonzero"/></clipPath></defs><g clip-path="url(#c33318acf2)"><path fill="#482109" d="M 0.125 -1.257812 L 523.417969 -1.257812 L 523.417969 147.335938 L 519.277344 175.75 L -2.242188 175.75 L 0.71875 57.347656 Z M 0.125 -1.257812 " fill-opacity="1" fill-rule="nonzero"/></g><g clip-path="url(#af8569f7fb)"><path fill="#d99337" d="M 4.226562 3.703125 L 519.277344 3.703125 L 519.277344 142.5 L 515.207031 169.039062 L 1.898438 169.039062 L 4.808594 58.449219 Z M 4.226562 3.703125 " fill-opacity="1" fill-rule="nonzero"/></g><g clip-path="url(#0ae7901030)"><g mask="url(#6c9d341879)"><g transform="matrix(1, 0, 0, 1, 1, 0)"><g clip-path="url(#121bac1e80)"><g clip-path="url(#87b1fc61d8)"><g clip-path="url(#d9a0652b1a)"><path fill="#b66b25" d="M 561.664062 233.550781 C 364.210938 233.550781 166.757812 233.546875 -30.699219 233.59375 C -31.988281 233.59375 -32.1875 233.222656 -32.1875 231.699219 C -32.152344 111.464844 -32.152344 -8.769531 -32.1875 -129.003906 C -32.1875 -130.527344 -31.992188 -130.898438 -30.699219 -130.898438 C 166.753906 -130.851562 364.207031 -130.855469 561.664062 -130.855469 C 561.683594 -112.359375 561.671875 -93.867188 561.730469 -75.371094 C 561.773438 -61.179688 561.902344 -46.992188 561.992188 -32.804688 C 561.984375 -26.917969 561.980469 -21.027344 561.980469 -15.140625 C 561.980469 -14.570312 561.925781 -13.976562 562.28125 -13.503906 C 562.28125 5.023438 562.28125 23.554688 562.28125 42.082031 C 561.910156 42.546875 561.980469 43.144531 561.980469 43.707031 C 561.980469 47.023438 561.984375 50.34375 561.992188 53.660156 C 561.921875 57.773438 561.8125 61.878906 561.789062 65.992188 C 561.515625 121.847656 561.691406 177.699219 561.664062 233.550781 Z M 188.246094 167.84375 C 187.84375 167.890625 187.445312 167.9375 187.046875 167.980469 C 181.015625 168.800781 175.042969 170.085938 169.058594 171.261719 C 166.480469 171.761719 163.863281 172.027344 161.355469 173.015625 C 160.714844 172.855469 160.097656 172.960938 159.496094 173.28125 C 158.785156 173.371094 158.0625 173.421875 157.351562 173.554688 C 152.269531 174.511719 147.1875 175.496094 142.105469 176.457031 C 138.09375 177.21875 134.078125 177.957031 130.0625 178.703125 C 129.859375 178.730469 129.660156 178.757812 129.457031 178.785156 C 129.042969 178.796875 128.628906 178.769531 128.222656 178.835938 C 121.417969 179.929688 114.585938 180.660156 107.738281 181.148438 C 101.457031 181.59375 95.183594 182.144531 88.90625 182.648438 C 88.28125 182.667969 87.660156 182.6875 87.035156 182.710938 C 85.273438 182.542969 83.539062 182.964844 81.785156 183.0625 C 81.574219 183.070312 81.367188 183.078125 81.15625 183.082031 C 79.394531 182.902344 77.65625 183.289062 75.902344 183.414062 C 75.28125 183.449219 74.660156 183.480469 74.039062 183.515625 C 69.910156 183.617188 65.78125 183.761719 61.664062 184.195312 C 59.695312 184.113281 57.734375 184.183594 55.777344 184.519531 C 55.363281 184.53125 54.949219 184.542969 54.539062 184.558594 C 54.226562 184.566406 53.914062 184.578125 53.605469 184.589844 C 53.296875 184.601562 52.992188 184.609375 52.683594 184.625 C 49.378906 184.777344 46.070312 184.933594 42.765625 185.089844 C 41.3125 184.835938 39.882812 185.242188 38.441406 185.328125 C 37.820312 185.347656 37.195312 185.367188 36.574219 185.386719 C 34.710938 185.257812 32.855469 185.351562 31.003906 185.679688 C 28.628906 185.683594 26.246094 185.582031 23.875 185.9375 C 21.507812 186.039062 19.144531 186.132812 16.777344 186.234375 C 16.5625 186.238281 16.351562 186.242188 16.136719 186.25 C 15.9375 186.253906 15.738281 186.257812 15.539062 186.261719 C 14.898438 186.144531 14.261719 186.128906 13.632812 186.371094 C 13.121094 186.359375 12.609375 186.335938 12.101562 186.347656 C 7.664062 186.445312 3.222656 186.832031 -1.203125 186.367188 C -7.421875 185.714844 -13.628906 184.890625 -19.832031 184.0625 C -21.335938 183.863281 -22.886719 183.898438 -24.332031 183.167969 C -23.648438 183.039062 -22.980469 183.039062 -22.3125 183.039062 C -5.546875 183.035156 11.222656 182.921875 27.984375 182.316406 C 40.460938 181.863281 52.929688 181.230469 65.390625 180.34375 C 75.582031 179.613281 85.761719 178.628906 95.925781 177.4375 C 108.195312 176.003906 120.441406 174.289062 132.652344 172.195312 C 147.011719 169.738281 161.351562 167.15625 175.597656 163.792969 C 188.261719 160.804688 200.898438 158.042969 213.957031 158.804688 C 228.480469 159.648438 243.027344 159.871094 257.53125 161.316406 C 267.816406 162.339844 278.058594 163.78125 288.25 165.820312 C 291.402344 166.449219 294.507812 167.71875 297.726562 167.480469 C 304.164062 167.011719 310.570312 166.144531 316.957031 165.03125 C 332.335938 162.34375 347.546875 158.425781 362.875 155.359375 C 373.523438 153.226562 384.214844 151.445312 395 151.054688 C 403.246094 150.757812 411.492188 150.605469 419.753906 150.765625 C 432.445312 151.011719 445.136719 151.164062 457.828125 150.671875 C 469.449219 150.21875 480.976562 148.664062 492.453125 146.511719 C 503.519531 144.441406 514.5625 142.167969 525.621094 140.019531 C 534.699219 138.257812 543.824219 137.0625 553.007812 136.660156 C 554.136719 136.609375 554.570312 136.136719 554.53125 134.71875 C 554.464844 132.597656 554.484375 130.472656 554.527344 128.351562 C 554.554688 127.0625 554.167969 126.683594 553.132812 126.839844 C 549.601562 127.375 546.046875 127.671875 542.523438 128.304688 C 522.515625 131.898438 502.519531 135.617188 482.507812 139.175781 C 472.402344 140.96875 462.316406 142.644531 452.015625 141.875 C 439.765625 140.964844 427.488281 140.480469 415.214844 140.292969 C 398.203125 140.035156 381.164062 139.511719 364.28125 143.214844 C 353.195312 145.648438 342.117188 147.964844 331.75 153.863281 C 324.996094 157.707031 317.863281 159.433594 310.390625 159.179688 C 303.945312 158.957031 297.488281 159.058594 291.039062 159.183594 C 286.945312 159.257812 282.90625 158.640625 278.855469 158.113281 C 267.726562 156.671875 256.609375 155.152344 245.480469 153.679688 C 236.050781 152.429688 226.613281 151.191406 217.175781 149.964844 C 213.179688 149.445312 209.191406 148.6875 205.148438 149.148438 C 201.042969 149.617188 196.933594 150.089844 192.828125 150.5625 C 181.609375 151.863281 170.554688 154.136719 159.722656 158.199219 C 150.488281 161.664062 141.160156 164.773438 131.699219 167.195312 C 118.757812 170.503906 105.699219 172.90625 92.582031 174.8125 C 80.953125 176.496094 69.296875 177.945312 57.574219 178.011719 C 45.347656 178.082031 33.117188 178.015625 20.890625 178.03125 C 12.054688 178.042969 3.285156 176.847656 -5.492188 175.839844 C -11.605469 175.136719 -17.699219 174.234375 -23.765625 173.078125 C -25.488281 172.75 -25.660156 172.976562 -25.664062 175.101562 C -25.667969 178.320312 -25.613281 181.539062 -25.6875 184.75 C -25.722656 186.277344 -25.359375 186.964844 -24.066406 187.007812 C -19.683594 187.144531 -15.304688 187.398438 -10.921875 187.554688 C -3.136719 187.839844 4.648438 188.082031 12.429688 188.339844 C 12.945312 188.359375 13.460938 188.375 13.976562 188.386719 C 14.183594 188.390625 14.390625 188.394531 14.59375 188.394531 C 14.902344 188.40625 15.207031 188.414062 15.511719 188.425781 C 16.121094 188.738281 16.742188 188.71875 17.375 188.554688 C 22.332031 188.714844 27.292969 188.882812 32.25 189.046875 C 35.542969 189.117188 38.839844 189.183594 42.136719 189.253906 C 46.0625 189.660156 49.992188 189.53125 53.925781 189.441406 C 54.644531 189.449219 55.359375 189.453125 56.078125 189.460938 C 58.144531 189.460938 60.214844 189.460938 62.285156 189.460938 C 67.367188 189.453125 72.457031 189.644531 77.53125 189.378906 C 81.734375 189.160156 85.953125 189.464844 90.144531 188.777344 C 90.867188 188.746094 91.59375 188.714844 92.316406 188.683594 C 95.828125 188.613281 99.339844 188.46875 102.828125 187.941406 C 103.25 187.917969 103.664062 187.894531 104.085938 187.871094 C 105.023438 188.039062 105.9375 187.734375 106.855469 187.582031 C 107.167969 187.558594 107.484375 187.539062 107.796875 187.519531 C 109.078125 187.414062 110.359375 187.375 111.636719 187.203125 C 115.203125 186.722656 118.808594 186.578125 122.339844 185.691406 C 122.546875 185.667969 122.753906 185.644531 122.960938 185.625 C 125.257812 185.484375 127.519531 185.042969 129.769531 184.480469 C 130.597656 184.335938 131.421875 184.1875 132.25 184.042969 C 134.578125 183.558594 136.917969 183.148438 139.230469 182.570312 C 144.511719 181.238281 149.796875 179.925781 154.886719 177.660156 C 155.316406 177.628906 155.734375 177.546875 156.089844 177.207031 C 156.4375 177.113281 156.800781 177.058594 157.136719 176.917969 C 163.945312 174.097656 170.933594 172.300781 178.050781 171.253906 C 181.464844 170.753906 184.886719 170.347656 188.304688 169.898438 C 189.128906 169.863281 189.945312 169.824219 190.769531 169.789062 C 196.132812 169.777344 201.492188 169.765625 206.855469 169.746094 C 207.582031 169.777344 208.308594 169.804688 209.035156 169.832031 C 210.171875 169.925781 211.285156 170.304688 212.433594 170.117188 C 213.257812 170.167969 214.082031 170.222656 214.90625 170.273438 C 216.320312 170.816406 217.800781 170.605469 219.246094 170.832031 C 219.558594 170.871094 219.871094 170.90625 220.1875 170.949219 C 221.632812 171.175781 223.074219 171.402344 224.519531 171.628906 C 224.726562 171.652344 224.9375 171.675781 225.144531 171.699219 C 226.777344 172.125 228.417969 172.5 230.09375 172.59375 C 230.375 172.636719 230.652344 172.679688 230.933594 172.722656 C 235.402344 173.988281 239.871094 175.253906 244.339844 176.519531 L 244.417969 176.550781 L 244.5 176.519531 C 245.601562 177.304688 246.828125 177.578125 248.050781 177.894531 C 248.308594 177.925781 248.566406 177.957031 248.828125 177.992188 C 248.972656 178.09375 249.113281 178.191406 249.257812 178.292969 C 249.78125 178.453125 250.300781 178.613281 250.824219 178.769531 C 253.863281 180.042969 256.972656 180.988281 260.121094 181.75 C 260.320312 181.792969 260.523438 181.832031 260.722656 181.871094 C 262.773438 182.792969 264.929688 183.109375 267.054688 183.582031 C 272.742188 184.847656 278.464844 185.75 284.261719 185.554688 C 287.777344 185.726562 291.296875 185.714844 294.808594 185.5625 C 297.90625 185.648438 301.007812 185.894531 304.089844 185.300781 C 304.503906 185.277344 304.917969 185.257812 305.332031 185.234375 C 307.835938 185.109375 310.328125 184.863281 312.78125 184.203125 C 313.292969 184.136719 313.800781 184.070312 314.308594 184 C 319.015625 183.132812 323.683594 182.03125 328.25 180.351562 C 328.453125 180.296875 328.65625 180.246094 328.859375 180.191406 C 329.566406 180.003906 330.273438 179.84375 330.96875 179.617188 C 337.003906 177.664062 343.03125 175.6875 349.0625 173.730469 C 359.101562 170.476562 369.308594 168.382812 379.625 167.105469 C 379.835938 167.089844 380.046875 167.066406 380.257812 167.046875 C 380.667969 167.050781 381.078125 167.105469 381.488281 167.0625 C 388.871094 166.285156 396.257812 165.875 403.671875 166.285156 C 408.035156 166.527344 412.40625 166.554688 416.777344 166.675781 C 417.085938 166.710938 417.398438 166.75 417.710938 166.785156 C 420.90625 167.902344 424.105469 169.023438 427.304688 170.140625 C 427.503906 170.191406 427.710938 170.234375 427.910156 170.28125 C 429.609375 171.097656 431.375 171.496094 433.191406 171.570312 C 434.214844 171.886719 435.253906 171.804688 436.289062 171.765625 C 437.3125 171.820312 438.324219 172.199219 439.363281 171.984375 C 440.296875 172.039062 441.238281 172.09375 442.171875 172.152344 C 450.277344 173.289062 458.40625 173.046875 466.53125 172.851562 C 467.808594 172.816406 469.070312 172.390625 470.339844 172.148438 C 471.171875 171.992188 472 171.835938 472.824219 171.675781 C 476.136719 171.007812 479.367188 169.933594 482.617188 168.933594 C 488.8125 167.023438 494.980469 164.929688 501.371094 164.214844 C 503.824219 163.941406 506.304688 163.914062 508.734375 163.292969 C 509.25 163.246094 509.769531 163.195312 510.289062 163.144531 C 519.261719 161.902344 528.238281 160.65625 537.214844 159.414062 C 537.628906 159.367188 538.042969 159.324219 538.460938 159.277344 C 539.429688 159.195312 540.394531 159.113281 541.367188 159.03125 C 545.292969 158.703125 549.222656 158.363281 553.152344 158.046875 C 554.027344 157.976562 554.695312 157.730469 554.449219 156.355469 C 554.449219 156.097656 554.449219 155.835938 554.453125 155.574219 C 554.476562 151.972656 554.488281 148.371094 554.527344 144.773438 C 554.539062 143.625 554.234375 143.0625 553.234375 143.371094 C 550.886719 144.101562 548.53125 144.800781 546.179688 145.515625 C 545.976562 145.566406 545.773438 145.609375 545.570312 145.65625 C 544.3125 145.890625 543.058594 146.164062 541.863281 146.738281 C 541.554688 146.839844 541.246094 146.941406 540.9375 147.042969 C 539.539062 147.175781 538.1875 147.566406 536.878906 148.195312 C 536.351562 148.199219 535.835938 148.300781 535.359375 148.613281 C 531.835938 149.511719 528.308594 150.402344 524.785156 151.3125 C 511.582031 154.734375 498.292969 157.519531 484.894531 159.492188 C 484.273438 159.59375 483.65625 159.695312 483.035156 159.796875 C 482.726562 159.824219 482.417969 159.855469 482.109375 159.882812 C 481.792969 159.910156 481.484375 159.9375 481.171875 159.964844 C 480.914062 159.953125 480.65625 159.910156 480.402344 159.941406 C 470.554688 161.167969 460.675781 161.324219 450.789062 161.324219 C 445.027344 161.328125 439.265625 160.816406 433.496094 161.09375 C 431.84375 161.070312 430.195312 161.046875 428.542969 161.023438 C 419.996094 160.785156 411.441406 160.53125 402.894531 160.304688 C 392.324219 160.023438 381.765625 160.125 371.257812 161.796875 C 366.816406 162.503906 362.34375 162.925781 357.949219 164.035156 C 357.746094 164.0625 357.539062 164.089844 357.335938 164.117188 C 355.144531 164.277344 352.984375 164.734375 350.839844 165.292969 C 350.628906 165.320312 350.417969 165.355469 350.207031 165.382812 C 349.796875 165.472656 349.386719 165.5625 348.980469 165.648438 C 348.542969 165.605469 348.117188 165.644531 347.722656 165.929688 C 346.707031 166.089844 345.6875 166.195312 344.679688 166.410156 C 339.179688 167.570312 333.664062 168.621094 328.234375 170.242188 C 328.023438 170.28125 327.816406 170.324219 327.605469 170.367188 C 325.542969 170.835938 323.480469 171.300781 321.417969 171.773438 C 320.179688 171.972656 318.941406 172.171875 317.699219 172.371094 C 314.007812 172.832031 310.316406 173.320312 306.625 173.746094 C 299.84375 174.515625 293.046875 174.832031 286.238281 175.046875 C 279.21875 175.269531 272.222656 175.007812 265.230469 174.261719 C 259.066406 173.601562 252.949219 172.4375 246.808594 171.550781 C 246.496094 171.515625 246.1875 171.476562 245.875 171.441406 C 243.9375 170.878906 241.976562 170.546875 240.003906 170.335938 C 239.691406 170.300781 239.382812 170.261719 239.074219 170.226562 C 234.460938 169.105469 229.804688 168.378906 225.144531 167.671875 C 224.933594 167.640625 224.722656 167.613281 224.511719 167.589844 C 223.808594 167.320312 223.09375 167.148438 222.351562 167.226562 C 222.144531 167.203125 221.9375 167.183594 221.730469 167.160156 C 218.664062 166.375 215.558594 166.035156 212.4375 165.769531 C 211.820312 165.71875 211.203125 165.671875 210.585938 165.625 C 208.730469 165.117188 206.875 165.445312 205.015625 165.648438 C 204.1875 165.695312 203.359375 165.746094 202.53125 165.789062 C 201.792969 165.644531 201.085938 165.875 200.371094 166.058594 C 200.058594 166.085938 199.75 166.113281 199.433594 166.140625 C 196.945312 166.339844 194.457031 166.5625 192.007812 167.195312 C 191.699219 167.230469 191.382812 167.261719 191.074219 167.289062 C 190.761719 167.371094 190.453125 167.453125 190.140625 167.535156 C 189.730469 167.578125 189.320312 167.625 188.90625 167.664062 C 188.679688 167.71875 188.460938 167.78125 188.246094 167.84375 Z M 333.078125 74.152344 C 335.292969 72.855469 337.617188 72.367188 339.984375 72.191406 C 345.949219 71.75 351.839844 72.660156 357.679688 73.996094 C 367.792969 76.308594 377.882812 77.007812 388.136719 75.136719 C 401.519531 72.699219 414.746094 69.253906 428.03125 66.175781 C 436.652344 64.179688 445.292969 62.3125 454.066406 61.703125 C 461.019531 61.222656 467.953125 60.660156 474.839844 59.230469 C 487.449219 56.613281 499.945312 53.066406 512.703125 51.558594 C 520.839844 50.597656 528.972656 50.429688 537.082031 51.992188 C 542.519531 53.042969 547.757812 54.898438 552.777344 57.71875 C 553.546875 58.148438 554.507812 58.933594 554.503906 56.828125 C 554.496094 48.335938 554.492188 39.84375 554.511719 31.351562 C 554.515625 30.183594 554.15625 29.761719 553.21875 29.820312 C 548.6875 30.109375 544.148438 30.261719 539.617188 30.613281 C 529.117188 31.433594 518.621094 32.273438 508.132812 33.234375 C 500.160156 33.96875 492.203125 34.886719 484.242188 35.753906 C 475.664062 36.679688 467.089844 37.652344 458.515625 38.59375 C 450.707031 39.453125 442.902344 40.34375 435.09375 41.132812 C 427.4375 41.90625 419.773438 43.117188 412.109375 43.164062 C 392.921875 43.28125 373.726562 43.777344 354.554688 42.136719 C 343.589844 41.195312 332.675781 39.710938 321.8125 37.632812 C 304.203125 34.269531 286.832031 29.507812 269.6875 23.457031 C 244.753906 14.65625 220.597656 3.3125 197.292969 -10.820312 C 191.582031 -14.28125 185.886719 -17.746094 179.894531 -20.421875 C 162.507812 -28.195312 144.46875 -31.132812 126.109375 -31.574219 C 118.628906 -31.753906 111.160156 -31.289062 103.695312 -30.582031 C 91.234375 -29.402344 78.898438 -27.09375 66.65625 -24.011719 C 48.871094 -19.539062 31.480469 -13.324219 14.417969 -5.660156 C 1.253906 0.257812 -11.632812 6.996094 -24.152344 14.804688 C -25.101562 15.398438 -25.699219 16.015625 -25.691406 17.53125 C -25.644531 27.632812 -25.667969 37.734375 -25.65625 47.832031 C -25.65625 48.375 -25.875 49.117188 -25.371094 49.40625 C -24.902344 49.679688 -24.527344 49.074219 -24.152344 48.777344 C -10.101562 37.554688 4.480469 27.527344 19.644531 18.839844 C 43.445312 5.210938 68.066406 -5.066406 94.125 -9.460938 C 105.410156 -11.363281 116.734375 -11.910156 128.082031 -10.699219 C 141.203125 -9.304688 154.175781 -6.582031 167.058594 -3.273438 C 202.175781 5.75 236.636719 17.738281 270.332031 33.042969 C 283.332031 38.945312 296.171875 45.351562 308.269531 53.820312 C 312.324219 56.65625 316.28125 59.714844 319.410156 64.117188 C 322.144531 67.96875 321.980469 71.773438 318.988281 75.328125 C 317.359375 77.257812 315.441406 78.632812 313.40625 79.777344 C 306.070312 83.917969 298.285156 86.222656 290.480469 88.386719 C 270.136719 94.019531 249.582031 98.386719 229.203125 103.816406 C 203.472656 110.667969 177.789062 117.726562 152.40625 126.457031 C 133.5625 132.9375 114.636719 139.085938 95.371094 143.394531 C 80.832031 146.648438 66.199219 148.816406 51.40625 149.015625 C 44.703125 149.105469 37.988281 148.820312 31.289062 149.101562 C 20.300781 149.558594 9.742188 146.875 -0.703125 143.078125 C -8.683594 140.175781 -16.5 136.679688 -24.128906 132.550781 C -25.300781 131.917969 -25.722656 132.167969 -25.679688 133.777344 C -25.628906 135.707031 -25.699219 137.640625 -25.664062 139.570312 C -25.558594 145.421875 -26.558594 144.121094 -21.835938 146.066406 C -7.8125 151.847656 6.699219 154.410156 21.375 155.070312 C 34.40625 155.65625 47.472656 155.628906 60.511719 154.496094 C 70.460938 153.632812 80.308594 151.9375 90.074219 149.480469 C 112.484375 143.855469 134.679688 137.074219 156.925781 130.550781 C 182.839844 122.957031 209.066406 118.765625 235.714844 118.824219 C 241.585938 118.835938 247.464844 118.347656 253.335938 118.027344 C 263.898438 117.453125 274.457031 116.699219 285.023438 116.28125 C 291.414062 116.027344 297.804688 115.917969 304.195312 115.523438 C 316.101562 114.789062 327.949219 113.289062 339.769531 111.457031 C 357.480469 108.707031 375.085938 105.058594 392.6875 101.402344 C 409.21875 97.972656 425.761719 94.640625 442.367188 91.75 C 458.742188 88.898438 475.183594 87.5 491.703125 87.320312 C 505.273438 87.167969 518.84375 87.5 532.40625 86.847656 C 539.363281 86.515625 546.308594 85.90625 553.226562 84.925781 C 554.113281 84.800781 554.511719 84.351562 554.503906 83.222656 C 554.484375 79.683594 554.472656 76.148438 554.511719 72.609375 C 554.527344 71.21875 553.933594 70.96875 553.03125 71.136719 C 551.183594 71.480469 549.324219 71.386719 547.46875 71.296875 C 543.035156 71.097656 538.601562 70.933594 534.175781 70.566406 C 527.953125 70.046875 521.679688 69.867188 515.558594 68.332031 C 505.578125 65.832031 495.574219 65.980469 485.515625 67.066406 C 477.910156 67.882812 470.320312 69.046875 462.683594 69.042969 C 453.308594 69.039062 444.0625 70.492188 434.847656 72.425781 C 419.746094 75.597656 404.761719 79.644531 389.550781 82.050781 C 380.902344 83.417969 372.320312 83.714844 363.695312 81.597656 C 355.394531 79.5625 347.222656 76.757812 338.859375 75.089844 C 336.949219 74.707031 335.007812 74.460938 333.078125 74.152344 Z M 90.472656 -65.195312 C 77.878906 -65.503906 65.3125 -65 52.777344 -63.351562 C 40.816406 -61.78125 28.949219 -59.539062 17.214844 -56.210938 C 10.71875 -54.371094 4.367188 -51.921875 -1.964844 -49.355469 C -9.179688 -46.433594 -16.605469 -44.429688 -23.996094 -42.335938 C -25.210938 -41.996094 -25.734375 -41.402344 -25.6875 -39.769531 C -25.59375 -36.300781 -25.625 -32.824219 -25.675781 -29.351562 C -25.699219 -27.835938 -25.402344 -27.289062 -24.066406 -27.636719 C -19.777344 -28.757812 -15.464844 -29.730469 -11.15625 -30.753906 C 16.753906 -37.40625 44.652344 -44.132812 72.886719 -48.402344 C 84.613281 -50.179688 96.367188 -51.578125 108.175781 -52.015625 C 119.417969 -52.4375 130.65625 -52.253906 141.859375 -50.59375 C 152.933594 -48.949219 163.910156 -46.71875 174.726562 -43.257812 C 188.332031 -38.90625 201.164062 -31.988281 213.992188 -25.050781 C 223.464844 -19.925781 233.066406 -15.257812 243.050781 -11.875 C 264.492188 -4.605469 286.460938 -1.394531 308.472656 1.511719 C 318.984375 2.898438 329.515625 4.046875 340.015625 5.527344 C 358.203125 8.089844 376.257812 11.945312 394.488281 14.125 C 404.101562 15.277344 413.738281 15.75 423.386719 15.332031 C 437.816406 14.710938 452.242188 13.890625 466.667969 13.136719 C 474.136719 12.746094 481.609375 12.371094 489.078125 11.882812 C 503.855469 10.917969 518.628906 9.898438 533.40625 8.859375 C 539.945312 8.402344 546.472656 7.828125 553.011719 7.347656 C 554.003906 7.273438 554.523438 6.914062 554.519531 5.542969 C 554.496094 -3.589844 554.5 -12.726562 554.515625 -21.859375 C 554.515625 -23.007812 554.167969 -23.496094 553.210938 -23.386719 C 549.722656 -22.972656 546.21875 -22.714844 542.738281 -22.207031 C 533.308594 -20.832031 523.855469 -19.886719 514.355469 -19.789062 C 502.800781 -19.671875 491.246094 -19.746094 479.691406 -19.441406 C 464.21875 -19.027344 448.746094 -18.851562 433.269531 -18.628906 C 422.179688 -18.472656 411.085938 -18.484375 400 -18.980469 C 393.042969 -19.292969 386.085938 -19.671875 379.136719 -20.191406 C 366.730469 -21.117188 354.320312 -22.039062 341.894531 -22.277344 C 322.761719 -22.648438 303.617188 -22.117188 284.484375 -23.066406 C 271.59375 -23.707031 258.730469 -24.648438 245.9375 -26.722656 C 235.386719 -28.429688 224.882812 -30.582031 214.84375 -35.125 C 206.164062 -39.054688 197.625 -43.449219 189.007812 -47.574219 C 183.234375 -50.335938 177.699219 -53.894531 171.625 -55.652344 C 155.347656 -60.375 138.777344 -62.414062 122.167969 -64.078125 C 111.617188 -65.132812 101.054688 -65.480469 90.472656 -65.195312 Z M 542.425781 -50.199219 C 545.832031 -50.199219 549.238281 -50.292969 552.640625 -50.15625 C 554.179688 -50.097656 554.5625 -50.78125 554.542969 -52.59375 C 554.46875 -58.894531 554.519531 -65.203125 554.519531 -71.507812 C 554.519531 -74.421875 554.515625 -74.429688 552.097656 -74.421875 C 536.050781 -74.382812 520.007812 -74.507812 503.96875 -75.167969 C 492.164062 -75.652344 480.355469 -76.003906 468.546875 -76.332031 C 454.777344 -76.71875 441.003906 -76.773438 427.238281 -77.570312 C 417.761719 -78.121094 408.277344 -78.585938 398.800781 -79.242188 C 385.722656 -80.148438 372.636719 -81.003906 359.539062 -81.339844 C 341.382812 -81.804688 323.230469 -81.800781 305.136719 -79.207031 C 298.511719 -78.257812 291.847656 -78.847656 285.191406 -79.007812 C 275.648438 -79.238281 266.105469 -79.132812 256.558594 -78.882812 C 245.160156 -78.589844 233.769531 -78.183594 222.375 -77.703125 C 209.933594 -77.183594 197.515625 -78.113281 185.140625 -79.636719 C 169.542969 -81.558594 153.96875 -83.789062 138.375 -85.773438 C 123.992188 -87.605469 109.582031 -88.316406 95.117188 -87.765625 C 80.417969 -87.207031 65.75 -86.183594 51.132812 -84.199219 C 35.234375 -82.039062 19.441406 -78.945312 3.652344 -75.789062 C -4.90625 -74.078125 -13.238281 -70.972656 -21.757812 -68.953125 C -25.664062 -68.027344 -25.664062 -68.019531 -25.660156 -63.019531 C -25.660156 -60.609375 -25.65625 -60.59375 -23.765625 -61.144531 C -8.4375 -65.59375 6.90625 -69.914062 22.433594 -73.136719 C 34.703125 -75.679688 47.03125 -77.519531 59.457031 -78.414062 C 67.347656 -78.980469 75.242188 -78.8125 83.128906 -78.945312 C 99.738281 -79.21875 116.355469 -79.664062 132.960938 -78.675781 C 138.421875 -78.351562 143.875 -77.824219 149.300781 -77.023438 C 160.277344 -75.40625 171.085938 -72.609375 181.863281 -69.621094 C 199.183594 -64.816406 216.386719 -59.328125 233.851562 -55.363281 C 247.980469 -52.148438 262.167969 -50.027344 276.59375 -50.398438 C 287.160156 -50.667969 297.738281 -50.085938 308.316406 -49.867188 C 320.074219 -49.617188 331.835938 -49.339844 343.59375 -49.097656 C 356.695312 -48.828125 369.796875 -48.554688 382.898438 -48.332031 C 393.265625 -48.160156 403.636719 -47.984375 414.007812 -47.957031 C 430.207031 -47.910156 446.410156 -47.730469 462.609375 -48.140625 C 473.390625 -48.414062 484.171875 -48.5 494.953125 -48.742188 C 510.777344 -49.097656 526.582031 -50.640625 542.425781 -50.199219 Z M 554.511719 109.285156 C 554.511719 106.195312 554.492188 103.109375 554.519531 100.019531 C 554.53125 98.722656 554.179688 98.277344 553.117188 98.667969 C 550.992188 99.449219 548.835938 100.101562 546.703125 100.871094 C 536.632812 104.515625 526.398438 106.378906 515.871094 106.238281 C 499.257812 106.023438 482.644531 106.175781 466.027344 106.195312 C 456.378906 106.207031 446.742188 106.625 437.105469 107.210938 C 421.136719 108.1875 405.210938 109.847656 389.308594 111.921875 C 373.667969 113.960938 358.03125 116.058594 342.402344 118.265625 C 329.234375 120.128906 316.0625 121.917969 302.867188 123.445312 C 287.460938 125.230469 272.03125 126.734375 256.566406 127.226562 C 242.800781 127.667969 229.035156 128.105469 215.296875 129.332031 C 207.480469 130.03125 199.660156 130.660156 191.875 131.792969 C 179.398438 133.613281 167.160156 136.988281 154.980469 140.695312 C 137.839844 145.914062 120.746094 151.363281 103.582031 156.441406 C 86.5625 161.476562 69.300781 164.246094 51.773438 164.148438 C 44.546875 164.109375 37.324219 164.15625 30.101562 164.132812 C 27.730469 164.125 25.351562 164.125 22.984375 163.945312 C 10.703125 162.992188 -1.394531 160.492188 -13.398438 157.203125 C -17.027344 156.207031 -20.621094 155.023438 -24.296875 154.300781 C -25.351562 154.09375 -25.71875 154.453125 -25.675781 155.75 C -25.628906 157.097656 -25.664062 158.453125 -25.664062 159.804688 C -25.660156 164.433594 -25.648438 164.371094 -21.957031 165.238281 C -2.832031 169.742188 16.511719 171.121094 35.914062 171.710938 C 48.9375 172.113281 61.886719 171.28125 74.804688 169.078125 C 84.96875 167.34375 95.167969 165.957031 105.242188 163.414062 C 118.246094 160.128906 131.078125 155.984375 143.910156 151.824219 C 159.234375 146.851562 174.527344 141.710938 190.160156 138.367188 C 196.226562 137.070312 202.355469 136.460938 208.488281 136.445312 C 213.015625 136.429688 217.542969 137.234375 222.074219 137.375 C 231.03125 137.648438 239.839844 139.160156 248.585938 141.515625 C 256.296875 143.585938 264.019531 145.648438 271.957031 145.960938 C 286.6875 146.550781 301.195312 144.597656 315.554688 140.464844 C 334.023438 135.144531 352.757812 132.703125 371.714844 132.683594 C 377.230469 132.679688 382.746094 132.308594 388.257812 131.898438 C 401.484375 130.917969 414.699219 129.480469 427.972656 130.445312 C 435.902344 131.023438 443.824219 131.730469 451.75 132.242188 C 457.570312 132.617188 463.410156 133.285156 469.21875 132.53125 C 479.0625 131.253906 488.882812 129.6875 498.714844 128.214844 C 516.835938 125.503906 534.957031 122.765625 553.082031 120.085938 C 554.238281 119.914062 554.546875 119.28125 554.523438 117.96875 C 554.480469 115.074219 554.511719 112.179688 554.511719 109.285156 Z M -25.660156 94.433594 C -25.660156 103.117188 -25.636719 111.804688 -25.679688 120.488281 C -25.691406 121.996094 -25.390625 122.757812 -24.117188 123.199219 C -20.941406 124.304688 -17.785156 125.546875 -14.6875 126.957031 C -3.425781 132.066406 7.925781 136.582031 19.902344 138.519531 C 31.058594 140.328125 42.214844 140.820312 53.390625 139.609375 C 64.757812 138.375 75.957031 135.621094 87.148438 132.945312 C 104.070312 128.902344 120.910156 124.367188 137.691406 119.519531 C 149.300781 116.171875 161.082031 113.597656 172.367188 108.773438 C 185.425781 103.1875 198.652344 98.617188 212.226562 95.421875 C 235.589844 89.917969 259.066406 85.246094 282.503906 80.265625 C 288.90625 78.90625 295.34375 77.691406 301.5625 75.25 C 304.328125 74.164062 304.691406 73.035156 303.503906 69.65625 C 302.25 66.089844 300.125 63.378906 297.773438 60.921875 C 293.519531 56.476562 288.789062 52.9375 283.882812 49.761719 C 267.789062 39.339844 250.761719 31.878906 233.460938 25.339844 C 208 15.714844 182.105469 8.449219 155.757812 3.734375 C 138.734375 0.683594 121.652344 -1.226562 104.429688 -0.8125 C 92.136719 -0.511719 80.132812 1.566406 68.386719 6.441406 C 44.527344 16.347656 21.925781 29.46875 0.632812 46.164062 C -7.746094 52.738281 -15.828125 59.917969 -24.617188 65.675781 C -25.597656 66.320312 -25.671875 67.238281 -25.667969 68.378906 C -25.652344 77.0625 -25.660156 85.75 -25.660156 94.433594 Z M 264.261719 224.242188 C 359.714844 224.242188 455.164062 224.242188 550.617188 224.242188 C 551.339844 224.242188 552.070312 224.160156 552.78125 224.261719 C 554.15625 224.449219 554.550781 223.738281 554.542969 222.0625 C 554.492188 211.574219 554.488281 201.089844 554.539062 190.605469 C 554.550781 188.847656 554.132812 188.253906 552.691406 188.304688 C 546.089844 188.515625 539.507812 189.132812 532.945312 190.054688 C 518.679688 192.054688 504.613281 195.503906 490.628906 199.476562 C 478.847656 202.816406 467.007812 205.664062 454.988281 207.238281 C 442.617188 208.863281 430.203125 209.632812 417.769531 209.574219 C 409.707031 209.539062 401.675781 210.066406 393.691406 211.308594 C 380.589844 213.347656 367.460938 215.035156 354.3125 216.464844 C 339.933594 218.035156 325.523438 219.203125 311.097656 219.945312 C 299.246094 220.550781 287.382812 220.707031 275.519531 220.960938 C 262.320312 221.246094 249.253906 220.316406 236.289062 217.011719 C 228.765625 215.09375 221.167969 213.667969 213.453125 213.304688 C 207.324219 213.011719 201.203125 212.421875 195.089844 211.753906 C 187.28125 210.902344 179.472656 209.828125 171.640625 209.75 C 155.960938 209.585938 140.277344 209.289062 124.59375 209.949219 C 116.597656 210.285156 108.65625 211.375 100.71875 212.53125 C 91.960938 213.804688 83.210938 215.304688 74.394531 215.6875 C 65.585938 216.070312 56.757812 215.972656 47.949219 216.535156 C 38.8125 217.113281 29.84375 215.445312 20.867188 213.757812 C 5.921875 210.949219 -9.121094 210.488281 -24.195312 210.804688 C -25.378906 210.828125 -25.699219 211.414062 -25.671875 212.773438 C -25.617188 215.605469 -25.65625 218.433594 -25.65625 221.265625 C -25.660156 224.242188 -25.660156 224.242188 -23.324219 224.242188 C 72.535156 224.242188 168.398438 224.242188 264.261719 224.242188 Z M 497.222656 -86.304688 C 512.855469 -86.023438 528.488281 -85.855469 544.117188 -86.527344 C 547.160156 -86.660156 550.191406 -86.941406 553.230469 -87.117188 C 554.113281 -87.167969 554.535156 -87.589844 554.519531 -88.753906 C 554.484375 -91.457031 554.492188 -94.15625 554.523438 -96.859375 C 554.535156 -98.054688 554.117188 -98.457031 553.199219 -98.351562 C 551.8125 -98.183594 550.421875 -98.09375 549.035156 -97.949219 C 535.769531 -96.574219 522.476562 -95.835938 509.175781 -95.441406 C 500.308594 -95.175781 491.429688 -95.367188 482.554688 -95.289062 C 473.351562 -95.210938 464.183594 -95.78125 455.140625 -97.980469 C 439.960938 -101.667969 424.660156 -103.542969 409.191406 -103.839844 C 392.460938 -104.164062 375.785156 -103.304688 359.113281 -101.667969 C 347.238281 -100.5 335.34375 -99.675781 323.449219 -98.925781 C 310.882812 -98.132812 298.304688 -97.195312 285.730469 -97.066406 C 270.332031 -96.910156 255.03125 -95.328125 239.71875 -93.675781 C 228.941406 -92.515625 218.175781 -92.921875 207.417969 -93.941406 C 196.519531 -94.976562 185.636719 -96.371094 174.707031 -96.773438 C 159.707031 -97.324219 144.695312 -97.710938 129.683594 -97.933594 C 119.363281 -98.082031 109.0625 -98.226562 98.78125 -99.507812 C 89.339844 -100.683594 79.878906 -101.742188 70.386719 -101.8125 C 55.53125 -101.921875 40.664062 -102.160156 25.824219 -101.078125 C 19.027344 -100.582031 12.230469 -100.105469 5.484375 -98.894531 C -4.574219 -97.085938 -14.382812 -93.542969 -24.492188 -92.09375 C -25.394531 -91.964844 -25.675781 -91.335938 -25.667969 -90.253906 C -25.640625 -85.945312 -25.640625 -81.632812 -25.671875 -77.324219 C -25.679688 -76.027344 -25.277344 -75.628906 -24.261719 -75.804688 C -21.761719 -76.242188 -19.246094 -76.558594 -16.742188 -76.988281 C -4.832031 -79.042969 6.945312 -82.058594 18.765625 -84.746094 C 29.019531 -87.074219 39.296875 -89.1875 49.710938 -90.015625 C 53.828125 -90.339844 57.949219 -90.546875 62.0625 -90.941406 C 69.464844 -91.652344 76.839844 -92.84375 84.273438 -92.996094 C 91.703125 -93.148438 99.132812 -92.941406 106.558594 -92.617188 C 120.578125 -92 134.59375 -91.199219 148.617188 -90.753906 C 160.628906 -90.375 172.660156 -90.660156 184.667969 -89.953125 C 191.621094 -89.542969 198.578125 -89.199219 205.527344 -88.667969 C 216.800781 -87.804688 228.074219 -86.886719 239.363281 -86.546875 C 254.117188 -86.101562 268.867188 -86.410156 283.621094 -87.105469 C 295.988281 -87.683594 308.351562 -88.347656 320.71875 -89.089844 C 332.460938 -89.796875 344.207031 -90.574219 355.960938 -90.964844 C 370.035156 -91.433594 384.109375 -92.285156 398.199219 -91.546875 C 407.425781 -91.058594 416.613281 -89.9375 425.808594 -88.996094 C 434.546875 -88.097656 443.28125 -87.089844 452.046875 -86.902344 C 467.09375 -86.582031 482.160156 -86.488281 497.222656 -86.304688 Z M 411.074219 37.886719 C 412.46875 37.886719 413.859375 37.894531 415.25 37.886719 C 423.917969 37.828125 432.570312 37.207031 441.21875 36.53125 C 452.28125 35.664062 463.332031 34.628906 474.367188 33.257812 C 483.394531 32.136719 492.433594 31.132812 501.457031 29.933594 C 512.015625 28.53125 522.566406 27.003906 533.117188 25.476562 C 539.824219 24.507812 546.523438 23.421875 553.234375 22.449219 C 554.234375 22.304688 554.550781 21.769531 554.527344 20.59375 C 554.484375 18.28125 554.480469 15.960938 554.519531 13.644531 C 554.542969 12.347656 554.148438 11.964844 553.121094 12.144531 C 549.957031 12.703125 546.773438 13.109375 543.613281 13.679688 C 526.96875 16.6875 510.257812 18.867188 493.460938 20.011719 C 480.945312 20.871094 468.417969 21.265625 455.886719 21.53125 C 447.53125 21.710938 439.167969 21.707031 430.8125 21.660156 C 406.261719 21.527344 381.699219 22.324219 357.164062 20.511719 C 346.300781 19.707031 335.464844 18.589844 324.648438 17.066406 C 303.40625 14.066406 282.394531 9.410156 261.621094 3.140625 C 231.265625 -6.023438 201.8125 -18.589844 173.09375 -33.847656 C 157.417969 -42.175781 141.023438 -46.261719 124.066406 -47.011719 C 106.878906 -47.765625 89.871094 -45.390625 72.949219 -41.890625 C 54.011719 -37.96875 35.285156 -32.738281 16.5 -27.882812 C 3.015625 -24.390625 -10.492188 -21.054688 -24.085938 -18.28125 C -25.3125 -18.03125 -25.738281 -17.457031 -25.683594 -15.929688 C -25.597656 -13.425781 -25.664062 -10.914062 -25.660156 -8.40625 C -25.652344 -6.101562 -25.601562 -6.058594 -23.828125 -6.558594 C -16.125 -8.71875 -8.550781 -11.488281 -0.929688 -14.050781 C 11.90625 -18.375 24.585938 -23.386719 37.832031 -25.773438 C 54.171875 -28.714844 70.253906 -33.480469 86.472656 -37.28125 C 93.515625 -38.929688 100.523438 -40.867188 107.71875 -41.265625 C 124.71875 -42.210938 141.363281 -39.28125 157.816406 -34.207031 C 179.359375 -27.566406 200.042969 -17.757812 220.675781 -7.75 C 239.566406 1.417969 258.328125 11.03125 277.765625 18.335938 C 290.09375 22.964844 302.605469 26.464844 315.515625 27.355469 C 325.511719 28.042969 335.445312 29.507812 345.34375 31.304688 C 353.511719 32.789062 361.652344 34.457031 369.84375 35.675781 C 376.296875 36.636719 382.769531 37.359375 389.261719 37.664062 C 396.53125 38.007812 403.800781 38.367188 411.074219 37.886719 Z M 311.550781 -104.167969 C 311.550781 -104.332031 311.550781 -104.5 311.550781 -104.667969 C 319.082031 -104.667969 326.617188 -104.5 334.140625 -104.71875 C 340.683594 -104.914062 347.226562 -105.421875 353.710938 -106.691406 C 369.21875 -109.722656 384.835938 -111.355469 400.519531 -111.878906 C 407.015625 -112.097656 413.527344 -111.730469 420.019531 -112.003906 C 430.160156 -112.433594 439.792969 -109.894531 449.175781 -105.324219 C 453.644531 -103.148438 458.179688 -101.140625 463.035156 -100.722656 C 470.242188 -100.109375 477.472656 -100.164062 484.6875 -100.132812 C 500.679688 -100.0625 516.65625 -100.84375 532.601562 -102.382812 C 539.335938 -103.035156 546.054688 -103.90625 552.78125 -104.632812 C 554.035156 -104.765625 554.660156 -105.332031 554.535156 -107.023438 C 554.433594 -108.363281 554.449219 -109.730469 554.53125 -111.074219 C 554.625 -112.664062 554.148438 -113.257812 552.847656 -113.144531 C 548.886719 -112.808594 544.917969 -112.578125 540.957031 -112.296875 C 533.390625 -111.757812 525.820312 -111.222656 518.253906 -110.664062 C 508.835938 -109.96875 499.425781 -109.105469 490 -108.578125 C 480.917969 -108.074219 471.855469 -108.984375 462.820312 -110.117188 C 450.765625 -111.628906 438.761719 -113.710938 426.699219 -115.152344 C 410.984375 -117.03125 395.269531 -116.78125 379.570312 -115.253906 C 366.824219 -114.015625 354.082031 -112.601562 341.304688 -112.039062 C 328.933594 -111.496094 316.558594 -111.039062 304.183594 -110.894531 C 275.859375 -110.554688 247.535156 -110.644531 219.214844 -110.144531 C 190.953125 -109.648438 162.679688 -109.421875 134.429688 -111.472656 C 125.375 -112.128906 116.296875 -112.539062 107.242188 -113.195312 C 94.265625 -114.128906 81.285156 -114.910156 68.296875 -115.347656 C 59.527344 -115.640625 50.757812 -115.652344 41.992188 -115.839844 C 31.730469 -116.066406 21.484375 -116.597656 11.222656 -115.484375 C -0.59375 -114.207031 -12.433594 -113.320312 -24.261719 -112.308594 C -25.332031 -112.21875 -25.703125 -111.714844 -25.667969 -110.414062 C -25.613281 -108.230469 -25.59375 -106.039062 -25.671875 -103.855469 C -25.730469 -102.234375 -25.175781 -101.902344 -23.996094 -102.035156 C -20.351562 -102.441406 -16.699219 -102.746094 -13.046875 -103.085938 C -6.722656 -103.675781 -0.402344 -104.269531 5.921875 -104.847656 C 13.429688 -105.539062 20.9375 -106.792969 28.445312 -106.78125 C 48.402344 -106.746094 68.367188 -107.597656 88.324219 -106.222656 C 97.746094 -105.574219 107.175781 -105.050781 116.609375 -104.730469 C 132.640625 -104.183594 148.679688 -103.710938 164.699219 -102.667969 C 172.0625 -102.1875 179.425781 -101.675781 186.78125 -101.011719 C 198.152344 -99.984375 209.53125 -99.179688 220.925781 -98.921875 C 230.320312 -98.710938 239.664062 -99.539062 249 -101.039062 C 262.359375 -103.1875 275.835938 -103.578125 289.285156 -104.101562 C 296.691406 -104.402344 304.125 -104.167969 311.550781 -104.167969 Z M 435.191406 -30.183594 C 435.191406 -30.261719 435.191406 -30.335938 435.191406 -30.414062 C 439.933594 -30.414062 444.679688 -30.367188 449.425781 -30.421875 C 461.136719 -30.554688 472.84375 -30.460938 484.558594 -30.75 C 497.867188 -31.074219 511.179688 -30.851562 524.488281 -31.140625 C 533.925781 -31.34375 543.371094 -31.25 552.816406 -31.226562 C 554.054688 -31.222656 554.585938 -31.640625 554.535156 -33.289062 C 554.453125 -36.113281 554.484375 -38.945312 554.527344 -41.777344 C 554.550781 -43.15625 554.050781 -43.550781 553.015625 -43.507812 C 547.605469 -43.28125 542.191406 -43.050781 536.777344 -42.925781 C 524.453125 -42.636719 512.125 -42.378906 499.800781 -42.15625 C 487.984375 -41.941406 476.171875 -41.917969 464.355469 -41.835938 C 439.230469 -41.65625 414.101562 -41.550781 388.976562 -41.933594 C 371.230469 -42.203125 353.480469 -41.960938 335.734375 -42.359375 C 324.800781 -42.601562 313.859375 -42.464844 302.921875 -42.6875 C 287.703125 -42.996094 272.484375 -43.101562 257.265625 -43.097656 C 244.398438 -43.089844 231.742188 -44.886719 219.28125 -48.902344 C 209.746094 -51.972656 200.351562 -55.765625 190.738281 -58.457031 C 181.429688 -61.0625 171.988281 -62.964844 162.730469 -65.820312 C 143.273438 -71.820312 123.496094 -74.019531 103.542969 -74.414062 C 93.945312 -74.605469 84.363281 -74.144531 74.785156 -73.398438 C 66.03125 -72.714844 57.285156 -71.8125 48.636719 -70.050781 C 24.710938 -65.183594 0.816406 -60.089844 -22.886719 -53.691406 C -25.890625 -52.882812 -25.667969 -53.789062 -25.664062 -49.226562 C -25.664062 -49.097656 -25.65625 -48.972656 -25.664062 -48.84375 C -25.699219 -47.867188 -25.3125 -47.605469 -24.59375 -47.824219 C -23.089844 -48.277344 -21.578125 -48.695312 -20.074219 -49.140625 C 4.167969 -56.320312 28.46875 -63.160156 53.191406 -67.335938 C 71.511719 -70.4375 89.894531 -72.121094 108.40625 -71.542969 C 121.730469 -71.125 134.964844 -69.671875 148.132812 -67.136719 C 159.675781 -64.910156 171.078125 -61.929688 181.980469 -56.53125 C 193.710938 -50.722656 205.792969 -46.363281 218.082031 -42.886719 C 239.679688 -36.773438 261.644531 -34.183594 283.695312 -32.507812 C 295.277344 -31.628906 306.878906 -31.269531 318.484375 -30.996094 C 335.144531 -30.605469 351.808594 -30.3125 368.46875 -30.214844 C 390.714844 -30.085938 412.949219 -30.183594 435.191406 -30.183594 Z M 448.964844 187.96875 C 455.878906 188.484375 462.484375 187.578125 469.054688 186.152344 C 478.8125 184.03125 488.441406 181.113281 498.15625 178.722656 C 515.589844 174.4375 533.195312 171.882812 550.9375 170.703125 C 554.546875 170.460938 554.546875 170.464844 554.515625 165.71875 C 554.5 163.21875 554.488281 163.167969 552.546875 163.273438 C 548.578125 163.496094 544.628906 164 540.691406 164.644531 C 528.457031 166.660156 516.425781 170.042969 504.355469 173.15625 C 490.949219 176.613281 477.46875 179.304688 463.734375 179.410156 C 455.894531 179.472656 448.050781 179.503906 440.207031 179.386719 C 435.882812 179.324219 431.550781 179.078125 427.234375 178.539062 C 416.664062 177.21875 406.226562 174.65625 395.628906 173.527344 C 386.515625 172.554688 377.539062 173.046875 368.554688 175.34375 C 355.640625 178.640625 343.007812 183.128906 330.453125 188.050781 C 320.785156 191.839844 310.921875 193.867188 300.746094 193.503906 C 295.949219 193.335938 291.152344 193.3125 286.363281 192.964844 C 280.339844 192.53125 274.320312 191.980469 268.347656 190.875 C 258.542969 189.054688 248.933594 186.019531 239.222656 183.605469 C 225.179688 180.109375 211.0625 177.625 196.695312 177.925781 C 192.515625 178.011719 188.308594 177.757812 184.21875 178.984375 C 176.148438 181.40625 168.148438 184.164062 159.960938 186 C 148.929688 188.472656 137.878906 190.574219 126.648438 190.679688 C 117.105469 190.769531 107.566406 191.085938 98.027344 191.378906 C 88.128906 191.6875 78.226562 191.90625 68.324219 192.175781 C 59.402344 192.421875 50.484375 192.679688 41.5625 192.933594 C 27.175781 193.335938 12.785156 193.746094 -1.597656 194.144531 C -7.941406 194.320312 -14.285156 194.476562 -20.628906 194.667969 C -21.964844 194.710938 -23.304688 194.871094 -24.640625 194.980469 C -25.140625 195.015625 -25.566406 195.175781 -25.636719 195.917969 C -25.707031 196.667969 -25.464844 197.160156 -24.867188 197.351562 C -24.515625 197.464844 -24.164062 197.566406 -23.8125 197.664062 C -16.863281 199.566406 -9.78125 199.640625 -2.726562 199.839844 C 7.484375 200.125 17.691406 199.574219 27.910156 199.820312 C 47.207031 200.285156 66.484375 199.28125 85.746094 197.957031 C 92.230469 197.511719 98.714844 196.996094 105.191406 196.335938 C 115.3125 195.300781 125.433594 194.21875 135.542969 192.976562 C 145.339844 191.769531 155.148438 190.621094 164.8125 188.105469 C 174.71875 185.523438 184.679688 183.398438 194.878906 184.164062 C 202.808594 184.753906 210.71875 185.609375 218.589844 186.976562 C 236.871094 190.152344 255.046875 194.226562 273.359375 197.167969 C 285.285156 199.082031 297.203125 200.863281 309.253906 200.742188 C 318.753906 200.644531 328.222656 199.957031 337.636719 198.371094 C 343.625 197.363281 349.597656 196.152344 355.183594 193.105469 C 367.324219 186.488281 380.070312 183.496094 393.242188 183.078125 C 403.628906 182.746094 413.945312 184.039062 424.253906 185.488281 C 432.550781 186.652344 440.773438 188.875 448.964844 187.96875 Z M 264.605469 -122.402344 C 168.835938 -122.402344 73.066406 -122.402344 -22.703125 -122.402344 C -23.375 -122.402344 -24.046875 -122.398438 -24.71875 -122.371094 C -25.160156 -122.355469 -25.472656 -122.164062 -25.625 -121.546875 C -26.246094 -119.015625 -25.519531 -117.746094 -23.429688 -117.765625 C -22.914062 -117.773438 -22.398438 -117.78125 -21.882812 -117.8125 C -13.277344 -118.320312 -4.671875 -118.734375 3.921875 -119.386719 C 8.304688 -119.71875 12.6875 -119.625 17.070312 -119.859375 C 23.046875 -120.179688 29.039062 -120.539062 35.011719 -120.289062 C 46.246094 -119.816406 57.464844 -118.804688 68.695312 -118.234375 C 81.527344 -117.585938 94.367188 -117.101562 107.203125 -116.675781 C 117.929688 -116.320312 128.65625 -116.085938 139.386719 -115.910156 C 151.613281 -115.710938 163.839844 -115.539062 176.066406 -115.527344 C 199.648438 -115.503906 223.226562 -115.359375 246.808594 -115.660156 C 264.195312 -115.886719 281.585938 -115.769531 298.972656 -115.75 C 306.253906 -115.742188 313.511719 -116.238281 320.777344 -116.726562 C 331.847656 -117.46875 342.914062 -118.566406 354.011719 -118.015625 C 356.703125 -117.882812 359.390625 -117.730469 362.03125 -118.257812 C 376.648438 -121.191406 391.441406 -120.832031 406.152344 -121.90625 C 420.316406 -122.941406 434.226562 -119.953125 448.132812 -117.128906 C 457.605469 -115.203125 467.113281 -113.34375 476.730469 -113.652344 C 485.796875 -113.941406 494.855469 -114.851562 503.914062 -115.535156 C 514.875 -116.371094 525.835938 -117.265625 536.792969 -118.117188 C 542.25 -118.542969 547.707031 -118.945312 553.164062 -119.335938 C 554.003906 -119.398438 554.515625 -119.699219 554.519531 -120.914062 C 554.519531 -122.167969 553.992188 -122.445312 553.148438 -122.402344 C 552.632812 -122.378906 552.117188 -122.402344 551.597656 -122.402344 C 455.933594 -122.402344 360.269531 -122.402344 264.605469 -122.402344 Z M 264.605469 -122.402344 " fill-opacity="1" fill-rule="nonzero"/></g></g><g clip-path="url(#30d25c1472)"><g clip-path="url(#1c73f17333)"><path fill="#b66b25" d="M 134.867188 6.519531 C 153.769531 6.429688 170.984375 8.988281 187.847656 14.722656 C 193.109375 16.511719 198.199219 19.09375 203.386719 21.234375 C 216.851562 26.792969 230.332031 32.3125 243.480469 38.980469 C 250.222656 42.402344 256.894531 46.015625 263.0625 50.894531 C 265.25 52.621094 267.320312 54.523438 269.0625 56.933594 C 271.878906 60.832031 271.628906 63.917969 268.210938 66.898438 C 263.410156 71.085938 257.941406 73.460938 252.457031 75.710938 C 233.558594 83.464844 214.140625 88.65625 194.699219 93.726562 C 173.34375 99.296875 151.886719 104.175781 130.394531 108.863281 C 113.378906 112.574219 96.359375 116.277344 79.273438 119.453125 C 66.878906 121.757812 54.457031 123.738281 41.949219 124.785156 C 33.859375 125.464844 25.777344 125.789062 17.683594 125.082031 C 10.398438 124.449219 3.230469 123.121094 -3.519531 119.34375 C -12.164062 114.5 -16.867188 105.542969 -16.628906 94.121094 C -16.480469 87.054688 -14.054688 81.085938 -10.597656 75.699219 C -5.863281 68.328125 0.0859375 62.660156 6.34375 57.519531 C 23.101562 43.746094 40.558594 31.648438 59.5625 23.265625 C 76.019531 16.015625 92.878906 10.984375 110.214844 8.445312 C 118.878906 7.175781 127.566406 6.414062 134.867188 6.519531 Z M 33.484375 110.484375 C 34.925781 110.484375 36.367188 110.46875 37.8125 110.488281 C 49.066406 110.644531 60.273438 109.730469 71.484375 108.574219 C 88.03125 106.863281 104.519531 104.488281 120.980469 101.832031 C 137.804688 99.113281 154.582031 95.960938 171.289062 92.28125 C 190.289062 88.097656 209.214844 83.46875 227.769531 76.757812 C 235.402344 74 242.976562 70.996094 249.984375 66.1875 C 252.160156 64.695312 254.253906 63.03125 255.847656 60.589844 C 257.066406 58.71875 257.035156 57.820312 255.746094 56.054688 C 254.382812 54.183594 252.765625 52.691406 251.085938 51.304688 C 241.488281 43.363281 231.050781 37.507812 220.355469 32.359375 C 200.867188 22.976562 180.789062 16.570312 159.9375 14.195312 C 148.65625 12.910156 137.367188 12.804688 126.148438 14.828125 C 108.886719 17.945312 91.777344 22.101562 74.941406 27.832031 C 61.984375 32.246094 49.28125 37.554688 37.171875 44.902344 C 28.984375 49.871094 21.457031 56.210938 13.792969 62.269531 C 8.257812 66.652344 2.890625 71.34375 -1.699219 77.253906 C -5.121094 81.660156 -7.925781 86.53125 -8.796875 92.757812 C -9.714844 99.324219 -7.6875 104.078125 -2.808594 106.808594 C 0.625 108.730469 4.277344 109.519531 7.980469 110.015625 C 16.457031 111.148438 24.976562 110.742188 33.484375 110.484375 Z M 33.484375 110.484375 " fill-opacity="1" fill-rule="nonzero"/></g></g><g clip-path="url(#8878606686)"><g clip-path="url(#a6f773fc21)"><path fill="#b66b25" d="M 159.453125 20.007812 C 172.714844 19.867188 185.050781 21.296875 197.132812 25.4375 C 203.496094 27.621094 209.394531 31.121094 215.191406 34.96875 C 218.378906 37.085938 221.707031 38.867188 224.625 41.570312 C 228.125 44.804688 230.164062 49.042969 230.652344 54.503906 C 230.945312 57.796875 229.917969 60.414062 228.398438 62.855469 C 224.28125 69.460938 218.867188 73.992188 212.917969 77.589844 C 203.261719 83.425781 192.9375 85.984375 182.34375 87.292969 C 166.621094 89.238281 150.851562 89.675781 135.070312 90.082031 C 128.054688 90.265625 121.042969 90.25 114.027344 90.394531 C 101.183594 90.660156 88.335938 90.761719 75.5 91.222656 C 64.007812 91.636719 52.546875 92.875 41.085938 94.03125 C 30.089844 95.136719 19.113281 96.726562 8.054688 96.511719 C 5.527344 96.464844 3 96.296875 0.550781 95.386719 C -0.191406 95.109375 -0.910156 94.78125 -1.570312 94.246094 C -2.359375 93.597656 -2.535156 92.816406 -2.054688 91.792969 C -1.292969 90.183594 -0.519531 88.605469 0.5 87.210938 C 5.34375 80.59375 11.371094 75.996094 17.5625 71.710938 C 29.675781 63.328125 42.4375 56.695312 55.214844 50.097656 C 61.507812 46.847656 67.589844 43.042969 73.777344 39.515625 C 83.246094 34.113281 93.363281 31.082031 103.484375 28.222656 C 117.1875 24.355469 131.0625 21.84375 145.074219 20.570312 C 150.113281 20.117188 155.167969 19.871094 159.453125 20.007812 Z M 135.203125 81.925781 C 144.050781 82.078125 156.339844 81.203125 168.503906 78.335938 C 182.707031 74.992188 196.527344 70.15625 209.460938 61.902344 C 211.898438 60.347656 214.28125 58.65625 216.304688 56.324219 C 217.703125 54.71875 217.710938 54.171875 216.613281 52.226562 C 209.417969 39.488281 199.714844 31.140625 187.828125 26.582031 C 175.984375 22.042969 163.863281 21.617188 151.660156 22.929688 C 139.75 24.210938 128.105469 27.324219 116.617188 31.378906 C 97.550781 38.113281 79.230469 47.269531 61.339844 57.824219 C 48.507812 65.398438 35.960938 73.636719 23.824219 82.84375 C 23.273438 83.261719 22.265625 83.574219 22.371094 84.34375 C 22.496094 85.289062 23.558594 85.09375 24.21875 85.320312 C 24.863281 85.539062 25.535156 85.621094 26.199219 85.71875 C 31.910156 86.585938 37.5625 85.65625 43.117188 84.285156 C 58.8125 80.40625 74.644531 79.660156 90.5625 80.390625 C 104.265625 81.019531 117.972656 81.863281 135.203125 81.925781 Z M 135.203125 81.925781 " fill-opacity="1" fill-rule="nonzero"/></g></g><g clip-path="url(#a74d7f4a43)"><g clip-path="url(#60514d0e83)"><path fill="#b66b25" d="M 192.089844 44.070312 C 189.636719 39.535156 186.003906 36.832031 182.039062 34.777344 C 177.308594 32.324219 172.328125 31.335938 167.25 31.078125 C 160.519531 30.730469 153.839844 31.246094 147.320312 33.523438 C 143.488281 34.863281 139.867188 36.96875 136.308594 39.160156 C 127.699219 44.472656 118.761719 47.261719 109.078125 45.691406 C 106.015625 45.191406 102.894531 45.496094 99.824219 46.121094 C 89.839844 48.144531 82.710938 55.757812 76.355469 64.839844 C 75.476562 66.089844 75.738281 67.265625 76.984375 68.152344 C 78.25 69.050781 79.648438 69.539062 81.070312 69.882812 C 89.46875 71.910156 97.96875 72.222656 108.035156 72.230469 C 113.558594 72.277344 120.613281 71.738281 127.675781 71.511719 C 139.640625 71.121094 151.597656 70.679688 163.507812 69.113281 C 169.933594 68.269531 176.296875 67.03125 182.414062 64.296875 C 185.742188 62.804688 188.996094 61.007812 191.347656 57.613281 C 195.070312 52.222656 195.191406 49.816406 192.089844 44.070312 Z M 167.730469 55.09375 C 166.367188 57.066406 164.476562 58.109375 162.542969 58.972656 C 158.996094 60.558594 155.296875 61.28125 151.570312 61.769531 C 144.65625 62.679688 137.710938 62.9375 130.769531 63.160156 C 126.667969 63.296875 122.574219 63.605469 119.367188 63.582031 C 113.527344 63.578125 108.589844 63.394531 103.714844 62.214844 C 102.890625 62.019531 102.078125 61.734375 101.34375 61.210938 C 100.621094 60.695312 100.46875 60.015625 100.980469 59.289062 C 104.671875 54.019531 108.808594 49.597656 114.605469 48.421875 C 116.386719 48.058594 118.203125 47.886719 119.976562 48.171875 C 125.601562 49.082031 130.785156 47.460938 135.785156 44.378906 C 137.851562 43.105469 139.953125 41.882812 142.175781 41.105469 C 145.960938 39.785156 149.839844 39.484375 153.746094 39.6875 C 156.695312 39.839844 159.585938 40.414062 162.332031 41.835938 C 164.636719 43.03125 166.746094 44.597656 168.164062 47.234375 C 169.96875 50.570312 169.898438 51.964844 167.730469 55.09375 Z M 167.730469 55.09375 " fill-opacity="1" fill-rule="nonzero"/></g></g></g></g></g></g><g clip-path="url(#5794998555)"><path fill="#823d10" d="M 519.277344 3.703125 L 511.425781 17.488281 L 511.425781 39.980469 L 464.910156 45.3125 L 519.277344 53.972656 L 513.621094 60.675781 L 511.429688 116.09375 L 472.792969 128.828125 L 438.894531 145.359375 L 523.417969 130.160156 L 510.636719 139.835938 L 511.871094 160.78125 L 272.957031 163.222656 L 39.96875 163.222656 L 12.417969 163.933594 L 1.898438 174.355469 L 515.207031 169.039062 L 523.417969 147.335938 Z M 519.277344 3.703125 " fill-opacity="0.68" fill-rule="nonzero"/></g><g clip-path="url(#84fb8f1dde)"><path fill="#f4cb56" d="M 1.898438 169.039062 L 12.417969 163.933594 L 12.417969 138.847656 L 63.3125 128.976562 L 3.066406 127.574219 L 9.050781 123.515625 L 9.617188 53.597656 L 61.363281 44.117188 L 4.628906 39.980469 L 14.9375 35.839844 L 13.757812 8.609375 L 340.140625 12.046875 L 415.003906 7.5 L 458.414062 12.449219 L 508.671875 12.035156 L 519.277344 6.058594 L 4.226562 0.132812 Z M 1.898438 169.039062 " fill-opacity="0.46" fill-rule="nonzero"/></g><g clip-path="url(#c9f1c40f32)"><path fill="#482109" d="M 1.898438 39.980469 L 61.363281 44.117188 L 2.652344 47.425781 Z M 1.898438 39.980469 " fill-opacity="1" fill-rule="nonzero"/></g><g clip-path="url(#8e42b7c164)"><path fill="#482109" d="M -0.289062 127.496094 L 63.3125 128.976562 L 0.515625 130.160156 Z M -0.289062 127.496094 " fill-opacity="1" fill-rule="nonzero"/></g><g clip-path="url(#bdf0412f1f)"><path fill="#482109" d="M 523.417969 124.046875 C 523.417969 124.046875 469.664062 132.15625 438.894531 145.359375 L 523.417969 130.160156 Z M 523.417969 124.046875 " fill-opacity="1" fill-rule="nonzero"/></g><path fill="#482109" d="M 519.277344 53.972656 L 464.910156 45.3125 L 519.277344 49.640625 Z M 519.277344 53.972656 " fill-opacity="1" fill-rule="nonzero"/><path fill="#f4cb56" d="M 464.910156 45.3125 L 513.621094 60.675781 L 519.277344 53.972656 Z M 464.910156 45.3125 " fill-opacity="0.46" fill-rule="nonzero"/><g clip-path="url(#af85b35cd4)"><path fill="#f4cb56" d="M 438.894531 145.359375 L 510.636719 139.835938 L 523.417969 130.160156 Z M 438.894531 145.359375 " fill-opacity="0.46" fill-rule="nonzero"/></g><g clip-path="url(#6a635b3bc2)"><path fill="#823d10" d="M 14.9375 35.839844 L 61.363281 44.117188 L 1.898438 39.980469 Z M 14.9375 35.839844 " fill-opacity="0.68" fill-rule="nonzero"/></g><g clip-path="url(#1ba233bc74)"><path fill="#823d10" d="M 9.050781 123.515625 L 63.3125 128.976562 L -0.289062 127.496094 Z M 9.050781 123.515625 " fill-opacity="0.68" fill-rule="nonzero"/></g></svg>