<svg xmlns="http://www.w3.org/2000/svg" xmlns:xlink="http://www.w3.org/1999/xlink" width="235" zoomAndPan="magnify" viewBox="0 0 176.25 524.999984" height="700" preserveAspectRatio="xMidYMid meet" version="1.0"><defs><filter x="0%" y="0%" width="100%" height="100%" id="915b82c065"><feColorMatrix values="0 0 0 0 1 0 0 0 0 1 0 0 0 0 1 0 0 0 1 0" color-interpolation-filters="sRGB"/></filter><clipPath id="7b54860cf8"><path d="M 0.882812 1.113281 L 175.503906 1.113281 L 175.503906 523.609375 L 0.882812 523.609375 Z M 0.882812 1.113281 " clip-rule="nonzero"/></clipPath><clipPath id="1d3ba68571"><path d="M 5 1.113281 L 171 1.113281 L 171 520 L 5 520 Z M 5 1.113281 " clip-rule="nonzero"/></clipPath><clipPath id="a7e52250e6"><path d="M 0.882812 1.113281 L 175.503906 1.113281 L 175.503906 523.609375 L 0.882812 523.609375 Z M 0.882812 1.113281 " clip-rule="nonzero"/></clipPath><mask id="2f4dc0b0ad"><g filter="url(#915b82c065)"><rect x="-17.625" width="211.5" fill="#000000" y="-52.499998" height="629.999981" fill-opacity="0.43"/></g></mask><clipPath id="5204b5d6a4"><path d="M 0.882812 0.167969 L 174.261719 0.167969 L 174.261719 518.480469 L 0.882812 518.480469 Z M 0.882812 0.167969 " clip-rule="nonzero"/></clipPath><clipPath id="dc3cdcf4f9"><path d="M 174.238281 2.648438 L 174.238281 518.433594 L 27.984375 518.433594 L 0.0195312 514.355469 L 0.0195312 0.316406 L 116.554688 3.230469 Z M 174.238281 2.648438 " clip-rule="nonzero"/></clipPath><clipPath id="a633bd1b3b"><path d="M 48 0.167969 L 168 0.167969 L 168 271 L 48 271 Z M 48 0.167969 " clip-rule="nonzero"/></clipPath><clipPath id="d64483d625"><path d="M 174.238281 2.648438 L 174.238281 518.433594 L 27.984375 518.433594 L 0.0195312 514.355469 L 0.0195312 0.316406 L 116.554688 3.230469 Z M 174.238281 2.648438 " clip-rule="nonzero"/></clipPath><clipPath id="e14fca0a22"><path d="M 77 0.167969 L 155 0.167969 L 155 231 L 77 231 Z M 77 0.167969 " clip-rule="nonzero"/></clipPath><clipPath id="11f83907db"><path d="M 174.238281 2.648438 L 174.238281 518.433594 L 27.984375 518.433594 L 0.0195312 514.355469 L 0.0195312 0.316406 L 116.554688 3.230469 Z M 174.238281 2.648438 " clip-rule="nonzero"/></clipPath><clipPath id="0356ae451b"><path d="M 102 75 L 144 75 L 144 194 L 102 194 Z M 102 75 " clip-rule="nonzero"/></clipPath><clipPath id="c376769de9"><path d="M 174.238281 2.648438 L 174.238281 518.433594 L 27.984375 518.433594 L 0.0195312 514.355469 L 0.0195312 0.316406 L 116.554688 3.230469 Z M 174.238281 2.648438 " clip-rule="nonzero"/></clipPath><clipPath id="b139508b05"><rect x="0" width="176" y="0" height="523"/></clipPath><clipPath id="3bbde3d7c1"><path d="M 0.882812 1.113281 L 171 1.113281 L 171 523.609375 L 0.882812 523.609375 Z M 0.882812 1.113281 " clip-rule="nonzero"/></clipPath><clipPath id="df496d565c"><path d="M 5 1.113281 L 175 1.113281 L 175 520 L 5 520 Z M 5 1.113281 " clip-rule="nonzero"/></clipPath><clipPath id="f1870a1785"><path d="M 126 1.113281 L 135 1.113281 L 135 61 L 126 61 Z M 126 1.113281 " clip-rule="nonzero"/></clipPath><clipPath id="ddfccc6dd2"><path d="M 44 1.113281 L 47 1.113281 L 47 63 L 44 63 Z M 44 1.113281 " clip-rule="nonzero"/></clipPath><clipPath id="da910a3274"><path d="M 29 438 L 51 438 L 51 523.609375 L 29 523.609375 Z M 29 438 " clip-rule="nonzero"/></clipPath><clipPath id="efa4336502"><path d="M 29 438 L 45 438 L 45 523.609375 L 29 523.609375 Z M 29 438 " clip-rule="nonzero"/></clipPath><clipPath id="2c3e5e6d1e"><path d="M 130 1.113281 L 139 1.113281 L 139 61 L 130 61 Z M 130 1.113281 " clip-rule="nonzero"/></clipPath><clipPath id="55a206230a"><path d="M 45 1.113281 L 51 1.113281 L 51 63 L 45 63 Z M 45 1.113281 " clip-rule="nonzero"/></clipPath></defs><g clip-path="url(#7b54860cf8)"><path fill="#482109" d="M 175.632812 -0.457031 L 175.632812 523.578125 L 27.039062 523.578125 L -1.375 519.433594 L -1.375 -2.828125 L 117.027344 0.132812 Z M 175.632812 -0.457031 " fill-opacity="1" fill-rule="nonzero"/></g><g clip-path="url(#1d3ba68571)"><path fill="#d99337" d="M 170.671875 3.648438 L 170.671875 519.433594 L 31.875 519.433594 L 5.335938 515.355469 L 5.335938 1.316406 L 115.925781 4.230469 Z M 170.671875 3.648438 " fill-opacity="1" fill-rule="nonzero"/></g><g clip-path="url(#a7e52250e6)"><g mask="url(#2f4dc0b0ad)"><g transform="matrix(1, 0, 0, 1, 0, 1)"><g clip-path="url(#b139508b05)"><g clip-path="url(#5204b5d6a4)"><g clip-path="url(#dc3cdcf4f9)"><path fill="#b66b25" d="M -59.175781 561.882812 C -59.175781 364.148438 -59.171875 166.414062 -59.222656 -31.328125 C -59.222656 -32.613281 -58.847656 -32.816406 -57.324219 -32.816406 C 62.910156 -32.78125 183.140625 -32.78125 303.378906 -32.816406 C 304.902344 -32.816406 305.273438 -32.617188 305.273438 -31.328125 C 305.226562 166.410156 305.230469 364.144531 305.230469 561.882812 C 286.734375 561.902344 268.242188 561.890625 249.746094 561.949219 C 235.554688 561.992188 221.367188 562.121094 207.175781 562.210938 C 201.289062 562.203125 195.398438 562.199219 189.511719 562.199219 C 188.945312 562.199219 188.351562 562.144531 187.878906 562.5 C 169.347656 562.5 150.820312 562.5 132.292969 562.5 C 131.828125 562.128906 131.230469 562.199219 130.667969 562.199219 C 127.351562 562.199219 124.03125 562.203125 120.714844 562.210938 C 116.601562 562.140625 112.492188 562.03125 108.382812 562.007812 C 52.527344 561.734375 -3.324219 561.910156 -59.175781 561.882812 Z M 6.53125 187.929688 C 6.484375 187.53125 6.4375 187.132812 6.390625 186.730469 C 5.574219 180.691406 4.285156 174.710938 3.113281 168.71875 C 2.609375 166.136719 2.347656 163.515625 1.359375 161.003906 C 1.519531 160.359375 1.410156 159.742188 1.089844 159.140625 C 1 158.425781 0.949219 157.707031 0.820312 156.996094 C -0.140625 151.90625 -1.121094 146.816406 -2.085938 141.722656 C -2.84375 137.707031 -3.582031 133.683594 -4.332031 129.664062 C -4.355469 129.464844 -4.382812 129.261719 -4.410156 129.058594 C -4.421875 128.644531 -4.394531 128.230469 -4.460938 127.824219 C -5.554688 121.007812 -6.285156 114.167969 -6.773438 107.308594 C -7.222656 101.019531 -7.769531 94.734375 -8.273438 88.449219 C -8.296875 87.824219 -8.3125 87.203125 -8.335938 86.578125 C -8.171875 84.8125 -8.589844 83.074219 -8.6875 81.320312 C -8.695312 81.109375 -8.703125 80.902344 -8.707031 80.691406 C -8.527344 78.921875 -8.917969 77.183594 -9.039062 75.429688 C -9.074219 74.808594 -9.105469 74.183594 -9.140625 73.5625 C -9.242188 69.425781 -9.386719 65.292969 -9.820312 61.167969 C -9.738281 59.199219 -9.808594 57.234375 -10.144531 55.273438 C -10.15625 54.859375 -10.167969 54.449219 -10.183594 54.035156 C -10.191406 53.722656 -10.207031 53.410156 -10.214844 53.097656 C -10.226562 52.789062 -10.238281 52.484375 -10.25 52.179688 C -10.402344 48.867188 -10.5625 45.554688 -10.714844 42.246094 C -10.460938 40.789062 -10.867188 39.355469 -10.953125 37.914062 C -10.972656 37.292969 -10.992188 36.667969 -11.011719 36.046875 C -10.882812 34.179688 -10.976562 32.320312 -11.304688 30.46875 C -11.308594 28.085938 -11.207031 25.699219 -11.5625 23.324219 C -11.664062 20.957031 -11.757812 18.589844 -11.859375 16.21875 C -11.863281 16.003906 -11.867188 15.792969 -11.875 15.578125 C -11.878906 15.378906 -11.882812 15.179688 -11.886719 14.980469 C -11.769531 14.339844 -11.757812 13.699219 -11.996094 13.070312 C -11.988281 12.558594 -11.960938 12.046875 -11.972656 11.535156 C -12.070312 7.09375 -12.457031 2.644531 -11.992188 -1.789062 C -11.339844 -8.011719 -10.515625 -14.230469 -9.6875 -20.441406 C -9.488281 -21.949219 -9.523438 -23.5 -8.796875 -24.949219 C -8.664062 -24.265625 -8.664062 -23.59375 -8.664062 -22.925781 C -8.660156 -6.136719 -8.546875 10.65625 -7.941406 27.441406 C -7.492188 39.9375 -6.855469 52.421875 -5.96875 64.898438 C -5.242188 75.109375 -4.253906 85.300781 -3.066406 95.480469 C -1.628906 107.765625 0.0859375 120.03125 2.179688 132.257812 C 4.636719 146.636719 7.21875 161 10.582031 175.265625 C 13.570312 187.949219 16.328125 200.601562 15.570312 213.679688 C 14.726562 228.222656 14.503906 242.789062 13.058594 257.316406 C 12.03125 267.617188 10.59375 277.875 8.554688 288.082031 C 7.925781 291.234375 6.65625 294.34375 6.890625 297.566406 C 7.363281 304.015625 8.226562 310.429688 9.34375 316.828125 C 12.027344 332.226562 15.949219 347.460938 19.015625 362.808594 C 21.148438 373.472656 22.929688 384.179688 23.320312 394.980469 C 23.617188 403.238281 23.769531 411.5 23.609375 419.769531 C 23.359375 432.476562 23.210938 445.1875 23.703125 457.894531 C 24.15625 469.535156 25.710938 481.078125 27.859375 492.574219 C 29.933594 503.652344 32.207031 514.710938 34.351562 525.789062 C 36.117188 534.878906 37.3125 544.015625 37.714844 553.210938 C 37.761719 554.34375 38.238281 554.78125 39.652344 554.738281 C 41.777344 554.675781 43.898438 554.691406 46.023438 554.734375 C 47.308594 554.761719 47.691406 554.375 47.535156 553.335938 C 47 549.800781 46.699219 546.242188 46.070312 542.714844 C 42.476562 522.679688 38.757812 502.652344 35.199219 482.613281 C 33.40625 472.492188 31.730469 462.394531 32.496094 452.078125 C 33.410156 439.8125 33.894531 427.515625 34.082031 415.226562 C 34.335938 398.1875 34.863281 381.125 31.160156 364.21875 C 28.726562 353.117188 26.410156 342.023438 20.507812 331.640625 C 16.667969 324.878906 14.941406 317.734375 15.195312 310.25 C 15.417969 303.796875 15.3125 297.332031 15.191406 290.871094 C 15.117188 286.773438 15.734375 282.726562 16.257812 278.671875 C 17.703125 267.527344 19.21875 256.390625 20.695312 245.25 C 21.945312 235.804688 23.183594 226.355469 24.410156 216.902344 C 24.929688 212.902344 25.6875 208.90625 25.226562 204.859375 C 24.753906 200.746094 24.285156 196.632812 23.808594 192.519531 C 22.511719 181.285156 20.238281 170.214844 16.175781 159.367188 C 12.710938 150.121094 9.601562 140.777344 7.179688 131.308594 C 3.871094 118.34375 1.464844 105.265625 -0.4375 92.128906 C -2.121094 80.484375 -3.570312 68.8125 -3.636719 57.074219 C -3.710938 44.832031 -3.640625 32.582031 -3.65625 20.339844 C -3.671875 11.492188 -2.476562 2.707031 -1.464844 -6.082031 C -0.765625 -12.203125 0.140625 -18.304688 1.296875 -24.382812 C 1.625 -26.109375 1.398438 -26.277344 -0.730469 -26.28125 C -3.945312 -26.289062 -7.164062 -26.234375 -10.375 -26.308594 C -11.902344 -26.34375 -12.59375 -25.976562 -12.632812 -24.679688 C -12.769531 -20.292969 -13.023438 -15.910156 -13.183594 -11.519531 C -13.464844 -3.722656 -13.707031 4.070312 -13.96875 11.867188 C -13.984375 12.382812 -14 12.898438 -14.011719 13.414062 C -14.015625 13.621094 -14.019531 13.828125 -14.023438 14.035156 C -14.03125 14.339844 -14.042969 14.644531 -14.050781 14.953125 C -14.363281 15.5625 -14.34375 16.183594 -14.179688 16.816406 C -14.34375 21.78125 -14.507812 26.75 -14.671875 31.714844 C -14.742188 35.011719 -14.808594 38.3125 -14.878906 41.613281 C -15.285156 45.546875 -15.15625 49.480469 -15.066406 53.421875 C -15.074219 54.140625 -15.078125 54.859375 -15.085938 55.574219 C -15.085938 57.644531 -15.085938 59.71875 -15.085938 61.789062 C -15.078125 66.882812 -15.273438 71.976562 -15.003906 77.058594 C -14.785156 81.265625 -15.09375 85.496094 -14.402344 89.691406 C -14.371094 90.414062 -14.339844 91.144531 -14.308594 91.867188 C -14.238281 95.382812 -14.09375 98.898438 -13.566406 102.394531 C -13.542969 102.8125 -13.519531 103.230469 -13.496094 103.648438 C -13.667969 104.59375 -13.359375 105.507812 -13.207031 106.425781 C -13.183594 106.742188 -13.167969 107.054688 -13.144531 107.367188 C -13.042969 108.652344 -13 109.9375 -12.828125 111.210938 C -12.347656 114.785156 -12.203125 118.394531 -11.316406 121.929688 C -11.292969 122.140625 -11.273438 122.347656 -11.25 122.554688 C -11.113281 124.855469 -10.667969 127.117188 -10.105469 129.371094 C -9.960938 130.199219 -9.8125 131.027344 -9.671875 131.859375 C -9.183594 134.1875 -8.777344 136.53125 -8.195312 138.847656 C -6.867188 144.132812 -5.550781 149.425781 -3.285156 154.527344 C -3.253906 154.957031 -3.171875 155.371094 -2.835938 155.730469 C -2.738281 156.078125 -2.683594 156.441406 -2.542969 156.78125 C 0.277344 163.597656 2.074219 170.59375 3.121094 177.722656 C 3.621094 181.140625 4.027344 184.566406 4.476562 187.992188 C 4.511719 188.816406 4.550781 189.636719 4.585938 190.460938 C 4.597656 195.828125 4.609375 201.199219 4.625 206.570312 C 4.597656 207.296875 4.570312 208.023438 4.542969 208.753906 C 4.445312 209.886719 4.070312 211.003906 4.257812 212.152344 C 4.207031 212.980469 4.152344 213.804688 4.101562 214.632812 C 3.558594 216.046875 3.769531 217.527344 3.542969 218.976562 C 3.503906 219.289062 3.464844 219.601562 3.425781 219.921875 C 3.195312 221.367188 2.972656 222.8125 2.746094 224.257812 C 2.722656 224.464844 2.695312 224.675781 2.675781 224.882812 C 2.25 226.519531 1.875 228.160156 1.78125 229.835938 C 1.738281 230.121094 1.695312 230.398438 1.652344 230.679688 C 0.386719 235.15625 -0.878906 239.628906 -2.144531 244.105469 L -2.175781 244.183594 L -2.144531 244.265625 C -2.929688 245.367188 -3.203125 246.597656 -3.519531 247.820312 C -3.550781 248.078125 -3.585938 248.339844 -3.617188 248.597656 C -3.71875 248.742188 -3.816406 248.886719 -3.921875 249.03125 C -4.078125 249.554688 -4.238281 250.078125 -4.394531 250.597656 C -5.671875 253.644531 -6.613281 256.757812 -7.375 259.90625 C -7.417969 260.109375 -7.457031 260.3125 -7.496094 260.515625 C -8.421875 262.566406 -8.734375 264.726562 -9.207031 266.855469 C -10.472656 272.550781 -11.375 278.277344 -11.179688 284.085938 C -11.351562 287.605469 -11.339844 291.128906 -11.1875 294.648438 C -11.277344 297.746094 -11.519531 300.855469 -10.925781 303.941406 C -10.902344 304.355469 -10.882812 304.769531 -10.863281 305.183594 C -10.734375 307.691406 -10.492188 310.1875 -9.832031 312.648438 C -9.761719 313.15625 -9.695312 313.664062 -9.625 314.175781 C -8.761719 318.886719 -7.65625 323.5625 -5.976562 328.136719 C -5.921875 328.339844 -5.871094 328.542969 -5.816406 328.746094 C -5.628906 329.453125 -5.46875 330.160156 -5.246094 330.859375 C -3.289062 336.902344 -1.316406 342.9375 0.644531 348.976562 C 3.898438 359.03125 5.992188 369.25 7.265625 379.582031 C 7.285156 379.792969 7.308594 380.003906 7.328125 380.214844 C 7.320312 380.625 7.269531 381.039062 7.3125 381.449219 C 8.085938 388.84375 8.496094 396.242188 8.085938 403.664062 C 7.847656 408.035156 7.820312 412.410156 7.699219 416.789062 C 7.664062 417.097656 7.625 417.414062 7.589844 417.722656 C 6.472656 420.925781 5.351562 424.128906 4.230469 427.328125 C 4.183594 427.53125 4.140625 427.738281 4.089844 427.9375 C 3.277344 429.640625 2.875 431.40625 2.804688 433.226562 C 2.484375 434.25 2.570312 435.292969 2.605469 436.328125 C 2.554688 437.351562 2.175781 438.367188 2.390625 439.40625 C 2.335938 440.34375 2.28125 441.28125 2.222656 442.21875 C 1.085938 450.335938 1.324219 458.476562 1.523438 466.617188 C 1.554688 467.890625 1.980469 469.15625 2.226562 470.429688 C 2.382812 471.261719 2.539062 472.089844 2.695312 472.917969 C 3.367188 476.230469 4.441406 479.46875 5.441406 482.722656 C 7.351562 488.929688 9.441406 495.101562 10.15625 501.503906 C 10.433594 503.960938 10.460938 506.441406 11.082031 508.875 C 11.128906 509.394531 11.179688 509.914062 11.226562 510.433594 C 12.472656 519.421875 13.71875 528.410156 14.960938 537.398438 C 15.007812 537.8125 15.050781 538.226562 15.097656 538.644531 C 15.179688 539.617188 15.261719 540.582031 15.34375 541.554688 C 15.671875 545.488281 16.011719 549.425781 16.328125 553.355469 C 16.398438 554.234375 16.644531 554.90625 18.019531 554.660156 C 18.277344 554.660156 18.539062 554.660156 18.800781 554.660156 C 22.398438 554.683594 26 554.695312 29.601562 554.734375 C 30.746094 554.75 31.3125 554.441406 31 553.441406 C 30.273438 551.085938 29.570312 548.730469 28.855469 546.375 C 28.808594 546.171875 28.765625 545.96875 28.714844 545.765625 C 28.480469 544.507812 28.210938 543.25 27.636719 542.054688 C 27.535156 541.742188 27.433594 541.4375 27.332031 541.125 C 27.195312 539.722656 26.808594 538.371094 26.179688 537.0625 C 26.175781 536.53125 26.074219 536.019531 25.761719 535.542969 C 24.859375 532.011719 23.972656 528.480469 23.058594 524.949219 C 19.640625 511.726562 16.855469 498.417969 14.882812 485.003906 C 14.777344 484.382812 14.679688 483.765625 14.578125 483.140625 C 14.546875 482.832031 14.519531 482.523438 14.492188 482.210938 C 14.464844 481.898438 14.4375 481.585938 14.410156 481.273438 C 14.421875 481.015625 14.464844 480.757812 14.433594 480.503906 C 13.207031 470.640625 13.050781 460.75 13.046875 450.851562 C 13.046875 445.078125 13.558594 439.308594 13.28125 433.53125 C 13.304688 431.878906 13.328125 430.222656 13.347656 428.574219 C 13.589844 420.011719 13.84375 411.445312 14.070312 402.886719 C 14.347656 392.300781 14.25 381.726562 12.578125 371.203125 C 11.867188 366.757812 11.449219 362.277344 10.339844 357.878906 C 10.3125 357.671875 10.28125 357.46875 10.257812 357.261719 C 10.097656 355.066406 9.640625 352.90625 9.082031 350.757812 C 9.050781 350.546875 9.019531 350.335938 8.992188 350.125 C 8.902344 349.714844 8.8125 349.304688 8.726562 348.894531 C 8.769531 348.457031 8.726562 348.03125 8.441406 347.636719 C 8.285156 346.621094 8.179688 345.597656 7.964844 344.589844 C 6.804688 339.082031 5.753906 333.558594 4.132812 328.117188 C 4.089844 327.910156 4.050781 327.703125 4.007812 327.492188 C 3.539062 325.425781 3.070312 323.359375 2.601562 321.292969 C 2.402344 320.054688 2.203125 318.8125 2.003906 317.570312 C 1.542969 313.875 1.054688 310.179688 0.628906 306.480469 C -0.140625 299.691406 -0.460938 292.882812 -0.675781 286.0625 C -0.894531 279.035156 -0.632812 272.027344 0.113281 265.027344 C 0.769531 258.851562 1.9375 252.726562 2.824219 246.578125 C 2.859375 246.265625 2.898438 245.953125 2.933594 245.644531 C 3.496094 243.703125 3.828125 241.738281 4.035156 239.761719 C 4.074219 239.449219 4.113281 239.144531 4.148438 238.832031 C 5.265625 234.214844 5.996094 229.550781 6.703125 224.882812 C 6.730469 224.671875 6.761719 224.460938 6.785156 224.25 C 7.050781 223.546875 7.226562 222.832031 7.148438 222.085938 C 7.171875 221.878906 7.191406 221.671875 7.210938 221.464844 C 8 218.394531 8.335938 215.28125 8.605469 212.160156 C 8.65625 211.542969 8.703125 210.921875 8.75 210.304688 C 9.257812 208.445312 8.929688 206.585938 8.726562 204.726562 C 8.675781 203.894531 8.628906 203.066406 8.585938 202.238281 C 8.730469 201.5 8.496094 200.789062 8.316406 200.074219 C 8.289062 199.761719 8.261719 199.449219 8.234375 199.136719 C 8.03125 196.644531 7.8125 194.152344 7.175781 191.699219 C 7.144531 191.390625 7.113281 191.074219 7.085938 190.765625 C 7.003906 190.453125 6.921875 190.140625 6.839844 189.832031 C 6.796875 189.417969 6.75 189.007812 6.710938 188.59375 C 6.65625 188.367188 6.59375 188.148438 6.53125 187.929688 Z M 100.222656 332.96875 C 101.519531 335.191406 102.003906 337.515625 102.179688 339.886719 C 102.625 345.859375 101.714844 351.757812 100.378906 357.605469 C 98.066406 367.734375 97.363281 377.839844 99.234375 388.109375 C 101.675781 401.511719 105.121094 414.753906 108.195312 428.058594 C 110.191406 436.691406 112.0625 445.34375 112.671875 454.128906 C 113.152344 461.09375 113.714844 468.039062 115.144531 474.933594 C 117.761719 487.5625 121.308594 500.078125 122.816406 512.851562 C 123.777344 521 123.945312 529.144531 122.378906 537.265625 C 121.332031 542.707031 119.472656 547.957031 116.65625 552.980469 C 116.222656 553.753906 115.441406 554.714844 117.542969 554.714844 C 126.039062 554.703125 134.53125 554.699219 143.023438 554.71875 C 144.191406 554.722656 144.613281 554.363281 144.554688 553.425781 C 144.265625 548.886719 144.113281 544.339844 143.757812 539.804688 C 142.9375 529.289062 142.097656 518.777344 141.136719 508.273438 C 140.40625 500.292969 139.488281 492.324219 138.621094 484.351562 C 137.691406 475.761719 136.722656 467.171875 135.78125 458.585938 C 134.921875 450.769531 134.03125 442.953125 133.242188 435.132812 C 132.46875 427.464844 131.257812 419.789062 131.210938 412.113281 C 131.09375 392.902344 130.597656 373.675781 132.238281 354.476562 C 133.175781 343.496094 134.664062 332.566406 136.742188 321.6875 C 140.105469 304.054688 144.867188 286.65625 150.917969 269.488281 C 159.71875 244.523438 171.058594 220.332031 185.191406 196.992188 C 188.65625 191.273438 192.121094 185.566406 194.796875 179.570312 C 202.570312 162.15625 205.507812 144.09375 205.949219 125.707031 C 206.128906 118.214844 205.660156 110.738281 204.957031 103.261719 C 203.777344 90.78125 201.46875 78.429688 198.386719 66.167969 C 193.914062 48.359375 187.699219 30.941406 180.035156 13.855469 C 174.117188 0.671875 167.378906 -12.230469 159.566406 -24.769531 C 158.976562 -25.71875 158.355469 -26.316406 156.839844 -26.308594 C 146.738281 -26.261719 136.640625 -26.289062 126.539062 -26.273438 C 126 -26.273438 125.257812 -26.496094 124.96875 -25.988281 C 124.695312 -25.519531 125.300781 -25.144531 125.597656 -24.769531 C 136.820312 -10.695312 146.84375 3.90625 155.535156 19.089844 C 169.164062 42.925781 179.441406 67.578125 183.835938 93.675781 C 185.738281 104.976562 186.28125 116.316406 185.074219 127.679688 C 183.675781 140.820312 180.957031 153.8125 177.644531 166.714844 C 168.625 201.882812 156.636719 236.390625 141.332031 270.136719 C 135.425781 283.152344 129.019531 296.011719 120.554688 308.125 C 117.71875 312.1875 114.660156 316.148438 110.257812 319.28125 C 106.40625 322.023438 102.601562 321.855469 99.046875 318.859375 C 97.117188 317.230469 95.742188 315.308594 94.597656 313.273438 C 90.457031 305.925781 88.152344 298.125 85.988281 290.3125 C 80.355469 269.9375 75.984375 249.355469 70.558594 228.945312 C 63.707031 203.179688 56.648438 177.457031 47.917969 152.042969 C 41.4375 133.167969 35.289062 114.21875 30.980469 94.925781 C 27.726562 80.367188 25.554688 65.710938 25.359375 50.898438 C 25.269531 44.183594 25.554688 37.457031 25.273438 30.75 C 24.816406 19.75 27.5 9.175781 31.296875 -1.285156 C 34.199219 -9.28125 37.695312 -17.105469 41.824219 -24.746094 C 42.457031 -25.917969 42.207031 -26.34375 40.597656 -26.300781 C 38.667969 -26.25 36.734375 -26.320312 34.804688 -26.285156 C 28.953125 -26.179688 30.25 -27.179688 28.304688 -22.445312 C 22.523438 -8.40625 19.964844 6.125 19.304688 20.824219 C 18.71875 33.875 18.746094 46.957031 19.878906 60.015625 C 20.738281 69.976562 22.4375 79.839844 24.894531 89.621094 C 30.519531 112.0625 37.300781 134.289062 43.824219 156.570312 C 51.417969 182.519531 55.609375 208.78125 55.550781 235.464844 C 55.535156 241.347656 56.027344 247.234375 56.347656 253.117188 C 56.921875 263.695312 57.675781 274.265625 58.09375 284.847656 C 58.347656 291.246094 58.457031 297.648438 58.851562 304.046875 C 59.585938 315.96875 61.082031 327.832031 62.917969 339.671875 C 65.667969 357.40625 69.316406 375.035156 72.96875 392.664062 C 76.402344 409.21875 79.730469 425.789062 82.621094 442.414062 C 85.476562 458.8125 86.871094 475.28125 87.054688 491.824219 C 87.207031 505.410156 86.875 519 87.527344 532.582031 C 87.859375 539.550781 88.46875 546.503906 89.449219 553.433594 C 89.574219 554.320312 90.023438 554.71875 91.152344 554.714844 C 94.6875 554.691406 98.226562 554.679688 101.765625 554.71875 C 103.15625 554.734375 103.40625 554.140625 103.234375 553.238281 C 102.894531 551.386719 102.988281 549.523438 103.074219 547.667969 C 103.277344 543.226562 103.441406 538.785156 103.808594 534.355469 C 104.328125 528.125 104.507812 521.839844 106.042969 515.710938 C 108.542969 505.714844 108.390625 495.699219 107.308594 485.625 C 106.492188 478.011719 105.328125 470.40625 105.332031 462.757812 C 105.335938 453.371094 103.882812 444.113281 101.949219 434.886719 C 98.773438 419.761719 94.730469 404.757812 92.324219 389.523438 C 90.957031 380.859375 90.660156 372.269531 92.777344 363.632812 C 94.808594 355.316406 97.613281 347.132812 99.285156 338.761719 C 99.664062 336.847656 99.914062 334.90625 100.222656 332.96875 Z M 239.570312 90.019531 C 239.878906 77.40625 239.371094 64.824219 237.726562 52.269531 C 236.15625 40.292969 233.910156 28.40625 230.585938 16.65625 C 228.746094 10.152344 226.296875 3.792969 223.730469 -2.550781 C 220.808594 -9.773438 218.804688 -17.210938 216.710938 -24.613281 C 216.367188 -25.828125 215.777344 -26.351562 214.144531 -26.308594 C 210.675781 -26.214844 207.195312 -26.242188 203.726562 -26.292969 C 202.210938 -26.316406 201.664062 -26.019531 202.011719 -24.683594 C 203.128906 -20.390625 204.105469 -16.070312 205.128906 -11.753906 C 211.78125 16.195312 218.507812 44.136719 222.777344 72.40625 C 224.554688 84.152344 225.949219 95.921875 226.390625 107.746094 C 226.808594 119.007812 226.628906 130.261719 224.96875 141.476562 C 223.324219 152.566406 221.09375 163.5625 217.632812 174.394531 C 213.28125 188.015625 206.363281 200.867188 199.425781 213.714844 C 194.300781 223.203125 189.632812 232.816406 186.246094 242.816406 C 178.980469 264.285156 175.769531 286.289062 172.863281 308.328125 C 171.472656 318.855469 170.328125 329.402344 168.847656 339.917969 C 166.285156 358.132812 162.429688 376.214844 160.246094 394.46875 C 159.097656 404.097656 158.625 413.746094 159.042969 423.40625 C 159.664062 437.855469 160.484375 452.304688 161.238281 466.75 C 161.628906 474.230469 162.003906 481.710938 162.492188 489.191406 C 163.457031 503.992188 164.476562 518.785156 165.511719 533.582031 C 165.972656 540.132812 166.546875 546.671875 167.027344 553.21875 C 167.097656 554.210938 167.457031 554.730469 168.828125 554.730469 C 177.964844 554.703125 187.101562 554.710938 196.234375 554.722656 C 197.378906 554.722656 197.871094 554.375 197.757812 553.417969 C 197.347656 549.925781 197.089844 546.414062 196.582031 542.929688 C 195.207031 533.488281 194.261719 524.019531 194.164062 514.507812 C 194.042969 502.9375 194.121094 491.363281 193.8125 479.792969 C 193.402344 464.296875 193.222656 448.800781 193.003906 433.304688 C 192.847656 422.199219 192.859375 411.085938 193.355469 399.988281 C 193.667969 393.023438 194.046875 386.054688 194.566406 379.09375 C 195.492188 366.671875 196.414062 354.242188 196.652344 341.800781 C 197.023438 322.636719 196.492188 303.46875 197.441406 284.308594 C 198.082031 271.398438 199.023438 258.515625 201.09375 245.703125 C 202.804688 235.140625 204.957031 224.621094 209.5 214.566406 C 213.429688 205.878906 217.824219 197.324219 221.949219 188.691406 C 224.710938 182.914062 228.269531 177.371094 230.027344 171.289062 C 234.75 154.988281 236.789062 138.394531 238.453125 121.761719 C 239.507812 111.195312 239.855469 100.613281 239.570312 90.019531 Z M 224.574219 542.617188 C 224.574219 546.027344 224.664062 549.441406 224.53125 552.847656 C 224.46875 554.386719 225.15625 554.769531 226.96875 554.75 C 233.269531 554.675781 239.578125 554.726562 245.882812 554.726562 C 248.796875 554.726562 248.804688 554.722656 248.796875 552.300781 C 248.753906 536.234375 248.878906 520.167969 249.539062 504.105469 C 250.023438 492.285156 250.378906 480.457031 250.707031 468.632812 C 251.09375 454.839844 251.144531 441.050781 251.945312 427.265625 C 252.496094 417.773438 252.960938 408.277344 253.617188 398.789062 C 254.523438 385.6875 255.378906 372.585938 255.714844 359.472656 C 256.179688 341.285156 256.175781 323.109375 253.582031 304.988281 C 252.632812 298.355469 253.222656 291.679688 253.382812 285.015625 C 253.609375 275.460938 253.503906 265.902344 253.257812 256.34375 C 252.964844 244.929688 252.554688 233.519531 252.078125 222.109375 C 251.554688 209.648438 252.488281 197.214844 254.011719 184.820312 C 255.929688 169.199219 258.160156 153.605469 260.148438 137.988281 C 261.980469 123.589844 262.691406 109.15625 262.136719 94.671875 C 261.582031 79.949219 260.558594 65.261719 258.570312 50.625 C 256.410156 34.703125 253.320312 18.886719 250.164062 3.078125 C 248.453125 -5.496094 245.347656 -13.839844 243.328125 -22.371094 C 242.402344 -26.28125 242.394531 -26.28125 237.394531 -26.277344 C 234.980469 -26.277344 234.96875 -26.273438 235.515625 -24.378906 C 239.96875 -9.03125 244.289062 6.335938 247.507812 21.882812 C 250.054688 34.167969 251.894531 46.515625 252.789062 58.960938 C 253.355469 66.863281 253.1875 74.765625 253.320312 82.664062 C 253.59375 99.296875 254.035156 115.941406 253.050781 132.570312 C 252.726562 138.039062 252.199219 143.496094 251.394531 148.933594 C 249.78125 159.925781 246.984375 170.75 243.992188 181.542969 C 239.191406 198.886719 233.703125 216.113281 229.734375 233.605469 C 226.523438 247.753906 224.402344 261.960938 224.773438 276.40625 C 225.039062 286.988281 224.460938 297.582031 224.238281 308.171875 C 223.992188 319.949219 223.714844 331.726562 223.46875 343.5 C 223.203125 356.621094 222.929688 369.742188 222.707031 382.859375 C 222.535156 393.242188 222.359375 403.628906 222.328125 414.015625 C 222.285156 430.238281 222.105469 446.460938 222.515625 462.683594 C 222.789062 473.480469 222.875 484.28125 223.113281 495.074219 C 223.46875 510.921875 225.015625 526.75 224.574219 542.617188 Z M 65.089844 554.71875 C 68.179688 554.71875 71.265625 554.699219 74.355469 554.730469 C 75.652344 554.738281 76.097656 554.386719 75.707031 553.324219 C 74.925781 551.195312 74.269531 549.035156 73.503906 546.902344 C 69.859375 536.816406 67.996094 526.566406 68.132812 516.023438 C 68.347656 499.386719 68.199219 482.75 68.179688 466.109375 C 68.167969 456.449219 67.75 446.796875 67.164062 437.148438 C 66.1875 421.152344 64.527344 405.207031 62.453125 389.28125 C 60.414062 373.617188 58.316406 357.957031 56.105469 342.308594 C 54.246094 329.121094 52.457031 315.929688 50.929688 302.714844 C 49.144531 287.289062 47.640625 271.839844 47.148438 256.351562 C 46.707031 242.5625 46.269531 228.78125 45.042969 215.023438 C 44.34375 207.195312 43.714844 199.359375 42.578125 191.566406 C 40.757812 179.070312 37.386719 166.816406 33.675781 154.621094 C 28.460938 137.453125 23.011719 120.335938 17.933594 103.148438 C 12.898438 86.105469 10.128906 68.816406 10.226562 51.265625 C 10.261719 44.03125 10.21875 36.796875 10.242188 29.5625 C 10.246094 27.1875 10.246094 24.808594 10.429688 22.433594 C 11.382812 10.136719 13.882812 -1.976562 17.171875 -14 C 18.167969 -17.632812 19.347656 -21.234375 20.074219 -24.914062 C 20.28125 -25.96875 19.921875 -26.339844 18.625 -26.292969 C 17.277344 -26.246094 15.921875 -26.28125 14.570312 -26.28125 C 9.941406 -26.277344 10.003906 -26.269531 9.136719 -22.570312 C 4.632812 -3.421875 3.253906 15.953125 2.660156 35.382812 C 2.261719 48.425781 3.09375 61.394531 5.296875 74.328125 C 7.03125 84.507812 8.417969 94.722656 10.960938 104.8125 C 14.242188 117.832031 18.390625 130.683594 22.550781 143.53125 C 27.519531 158.878906 32.664062 174.195312 36.007812 189.851562 C 37.304688 195.925781 37.914062 202.058594 37.929688 208.203125 C 37.941406 212.738281 37.140625 217.269531 37 221.808594 C 36.726562 230.777344 35.210938 239.597656 32.859375 248.359375 C 30.785156 256.082031 28.726562 263.816406 28.410156 271.761719 C 27.824219 286.511719 29.777344 301.042969 33.910156 315.421875 C 39.226562 333.917969 41.667969 352.679688 41.6875 371.660156 C 41.695312 377.183594 42.0625 382.710938 42.472656 388.226562 C 43.457031 401.476562 44.894531 414.707031 43.929688 428 C 43.351562 435.941406 42.644531 443.871094 42.132812 451.8125 C 41.757812 457.640625 41.089844 463.488281 41.84375 469.304688 C 43.121094 479.164062 44.6875 489 46.160156 498.84375 C 48.871094 516.992188 51.609375 535.136719 54.289062 553.289062 C 54.460938 554.445312 55.089844 554.753906 56.40625 554.730469 C 59.300781 554.6875 62.191406 554.71875 65.089844 554.71875 Z M 79.941406 -26.277344 C 71.253906 -26.277344 62.570312 -26.253906 53.886719 -26.300781 C 52.375 -26.308594 51.617188 -26.007812 51.175781 -24.734375 C 50.070312 -21.554688 48.824219 -18.390625 47.417969 -15.289062 C 42.308594 -4.011719 37.792969 7.355469 35.851562 19.347656 C 34.046875 30.523438 33.550781 41.691406 34.761719 52.886719 C 35.996094 64.269531 38.753906 75.480469 41.429688 86.691406 C 45.46875 103.636719 50.007812 120.5 54.855469 137.308594 C 58.203125 148.929688 60.777344 160.730469 65.601562 172.03125 C 71.1875 185.105469 75.757812 198.355469 78.953125 211.945312 C 84.457031 235.34375 89.128906 258.851562 94.109375 282.324219 C 95.46875 288.734375 96.683594 295.183594 99.125 301.410156 C 100.210938 304.179688 101.339844 304.542969 104.714844 303.355469 C 108.28125 302.097656 110.996094 299.96875 113.453125 297.617188 C 117.898438 293.355469 121.433594 288.617188 124.613281 283.703125 C 135.035156 267.589844 142.496094 250.535156 149.035156 233.214844 C 158.65625 207.714844 165.921875 181.78125 170.640625 155.398438 C 173.691406 138.347656 175.601562 121.242188 175.183594 103.996094 C 174.886719 91.6875 172.808594 79.664062 167.933594 67.902344 C 158.027344 44.007812 144.902344 21.375 128.210938 0.0507812 C 121.636719 -8.339844 114.457031 -16.433594 108.699219 -25.234375 C 108.054688 -26.21875 107.136719 -26.289062 105.996094 -26.289062 C 97.308594 -26.269531 88.625 -26.277344 79.941406 -26.277344 Z M -49.867188 264.054688 C -49.867188 359.644531 -49.867188 455.230469 -49.867188 550.816406 C -49.867188 551.542969 -49.785156 552.273438 -49.886719 552.988281 C -50.074219 554.363281 -49.363281 554.757812 -47.6875 554.75 C -37.203125 554.699219 -26.714844 554.695312 -16.230469 554.75 C -14.472656 554.757812 -13.882812 554.339844 -13.929688 552.898438 C -14.140625 546.285156 -14.757812 539.695312 -15.679688 533.125 C -17.683594 518.839844 -21.128906 504.75 -25.101562 490.746094 C -28.441406 478.949219 -31.289062 467.089844 -32.867188 455.054688 C -34.488281 442.664062 -35.257812 430.234375 -35.203125 417.78125 C -35.164062 409.710938 -35.691406 401.667969 -36.9375 393.667969 C -38.972656 380.550781 -40.660156 367.402344 -42.09375 354.238281 C -43.660156 339.835938 -44.828125 325.402344 -45.570312 310.960938 C -46.179688 299.089844 -46.332031 287.207031 -46.589844 275.328125 C -46.871094 262.109375 -45.941406 249.027344 -42.636719 236.042969 C -40.71875 228.511719 -39.292969 220.902344 -38.929688 213.175781 C -38.636719 207.039062 -38.046875 200.90625 -37.382812 194.785156 C -36.527344 186.964844 -35.457031 179.148438 -35.375 171.304688 C -35.210938 155.601562 -34.914062 139.894531 -35.574219 124.191406 C -35.910156 116.183594 -37 108.226562 -38.15625 100.277344 C -39.433594 91.507812 -40.933594 82.746094 -41.3125 73.921875 C -41.695312 65.097656 -41.597656 56.253906 -42.160156 47.433594 C -42.738281 38.285156 -41.074219 29.304688 -39.382812 20.3125 C -36.574219 5.351562 -36.117188 -9.714844 -36.429688 -24.8125 C -36.453125 -25.996094 -37.039062 -26.316406 -38.398438 -26.289062 C -41.230469 -26.234375 -44.058594 -26.273438 -46.894531 -26.273438 C -49.867188 -26.277344 -49.867188 -26.277344 -49.867188 -23.9375 C -49.867188 72.054688 -49.867188 168.058594 -49.867188 264.054688 Z M 260.675781 497.347656 C 260.398438 513.003906 260.230469 528.660156 260.902344 544.3125 C 261.03125 547.355469 261.316406 550.394531 261.492188 553.4375 C 261.542969 554.320312 261.960938 554.746094 263.128906 554.730469 C 265.832031 554.695312 268.53125 554.699219 271.234375 554.730469 C 272.429688 554.746094 272.832031 554.324219 272.722656 553.40625 C 272.558594 552.015625 272.46875 550.625 272.324219 549.234375 C 270.949219 535.953125 270.210938 522.640625 269.8125 509.320312 C 269.550781 500.4375 269.738281 491.546875 269.664062 482.660156 C 269.582031 473.441406 270.15625 464.261719 272.355469 455.207031 C 276.042969 440.003906 277.914062 424.683594 278.214844 409.195312 C 278.539062 392.4375 277.679688 375.738281 276.039062 359.042969 C 274.875 347.152344 274.050781 335.238281 273.300781 323.328125 C 272.507812 310.742188 271.570312 298.148438 271.441406 285.554688 C 271.285156 270.136719 269.703125 254.8125 268.050781 239.480469 C 266.886719 228.683594 267.296875 217.902344 268.316406 207.128906 C 269.351562 196.214844 270.746094 185.316406 271.148438 174.375 C 271.699219 159.351562 272.085938 144.316406 272.308594 129.289062 C 272.457031 118.953125 272.597656 108.632812 273.878906 98.339844 C 275.058594 88.886719 276.117188 79.410156 276.1875 69.902344 C 276.296875 55.027344 276.535156 40.140625 275.449219 25.277344 C 274.953125 18.472656 274.480469 11.664062 273.269531 4.910156 C 271.460938 -5.164062 267.917969 -14.984375 266.46875 -25.109375 C 266.339844 -26.011719 265.707031 -26.292969 264.628906 -26.289062 C 260.316406 -26.257812 256.007812 -26.257812 251.699219 -26.289062 C 250.398438 -26.300781 250.003906 -25.894531 250.179688 -24.878906 C 250.613281 -22.375 250.933594 -19.855469 251.363281 -17.347656 C 253.417969 -5.421875 256.433594 6.371094 259.121094 18.210938 C 261.449219 28.476562 263.5625 38.769531 264.386719 49.199219 C 264.714844 53.320312 264.921875 57.449219 265.316406 61.570312 C 266.027344 68.980469 267.21875 76.367188 267.371094 83.8125 C 267.523438 91.25 267.316406 98.691406 266.992188 106.128906 C 266.375 120.167969 265.574219 134.203125 265.128906 148.246094 C 264.746094 160.277344 265.035156 172.324219 264.328125 184.351562 C 263.917969 191.3125 263.574219 198.28125 263.042969 205.238281 C 262.179688 216.527344 261.261719 227.820312 260.921875 239.125 C 260.476562 253.898438 260.785156 268.667969 261.476562 283.441406 C 262.058594 295.828125 262.722656 308.210938 263.464844 320.59375 C 264.171875 332.351562 264.949219 344.117188 265.339844 355.886719 C 265.808594 369.980469 266.660156 384.074219 265.921875 398.183594 C 265.433594 407.425781 264.3125 416.625 263.371094 425.832031 C 262.472656 434.582031 261.460938 443.332031 261.277344 452.109375 C 260.957031 467.175781 260.863281 482.265625 260.675781 497.347656 Z M 136.488281 411.078125 C 136.488281 412.472656 136.476562 413.867188 136.488281 415.257812 C 136.546875 423.9375 137.167969 432.605469 137.84375 441.265625 C 138.710938 452.339844 139.742188 463.410156 141.117188 474.460938 C 142.238281 483.5 143.238281 492.554688 144.4375 501.589844 C 145.84375 512.164062 147.371094 522.730469 148.898438 533.292969 C 149.867188 540.011719 150.953125 546.722656 151.925781 553.441406 C 152.070312 554.445312 152.605469 554.757812 153.78125 554.734375 C 156.09375 554.695312 158.410156 554.6875 160.726562 554.730469 C 162.027344 554.75 162.410156 554.355469 162.226562 553.328125 C 161.671875 550.15625 161.261719 546.972656 160.691406 543.804688 C 157.6875 527.136719 155.507812 510.402344 154.359375 493.582031 C 153.503906 481.050781 153.109375 468.503906 152.839844 455.953125 C 152.664062 447.585938 152.664062 439.210938 152.714844 430.84375 C 152.847656 406.257812 152.050781 381.664062 153.863281 357.089844 C 154.667969 346.210938 155.785156 335.359375 157.308594 324.527344 C 160.308594 303.253906 164.964844 282.214844 171.234375 261.410156 C 180.394531 231.015625 192.964844 201.519531 208.222656 172.757812 C 216.550781 157.058594 220.636719 140.644531 221.382812 123.660156 C 222.140625 106.449219 219.765625 89.417969 216.261719 72.472656 C 212.34375 53.507812 207.113281 34.753906 202.253906 15.941406 C 198.765625 2.4375 195.429688 -11.089844 192.65625 -24.703125 C 192.40625 -25.929688 191.832031 -26.359375 190.304688 -26.304688 C 187.800781 -26.21875 185.289062 -26.285156 182.78125 -26.277344 C 180.476562 -26.269531 180.433594 -26.21875 180.929688 -24.445312 C 183.09375 -16.730469 185.863281 -9.144531 188.425781 -1.511719 C 192.75 11.339844 197.761719 24.039062 200.144531 37.304688 C 203.089844 53.664062 207.855469 69.773438 211.65625 86.015625 C 213.304688 93.066406 215.242188 100.082031 215.640625 107.289062 C 216.582031 124.3125 213.65625 140.984375 208.582031 157.460938 C 201.941406 179.03125 192.132812 199.746094 182.125 220.40625 C 172.957031 239.324219 163.34375 258.113281 156.039062 277.578125 C 151.410156 289.925781 147.910156 302.453125 147.019531 315.382812 C 146.328125 325.394531 144.867188 335.339844 143.070312 345.253906 C 141.585938 353.433594 139.917969 361.582031 138.699219 369.789062 C 137.738281 376.25 137.015625 382.734375 136.710938 389.234375 C 136.367188 396.511719 136.007812 403.796875 136.488281 411.078125 Z M 278.539062 311.414062 C 278.707031 311.414062 278.875 311.414062 279.042969 311.414062 C 279.042969 318.953125 278.875 326.5 279.09375 334.035156 C 279.285156 340.589844 279.796875 347.140625 281.066406 353.632812 C 284.097656 369.164062 285.730469 384.800781 286.253906 400.507812 C 286.472656 407.015625 286.105469 413.535156 286.378906 420.039062 C 286.808594 430.1875 284.269531 439.835938 279.699219 449.234375 C 277.519531 453.710938 275.515625 458.25 275.097656 463.113281 C 274.484375 470.332031 274.539062 477.570312 274.503906 484.796875 C 274.433594 500.8125 275.21875 516.808594 276.757812 532.777344 C 277.410156 539.523438 278.28125 546.25 279.003906 552.988281 C 279.140625 554.242188 279.707031 554.867188 281.398438 554.742188 C 282.738281 554.640625 284.105469 554.660156 285.445312 554.738281 C 287.039062 554.832031 287.632812 554.355469 287.519531 553.050781 C 287.183594 549.085938 286.953125 545.113281 286.671875 541.144531 C 286.132812 533.566406 285.597656 525.988281 285.039062 518.410156 C 284.34375 508.976562 283.480469 499.554688 282.953125 490.117188 C 282.445312 481.019531 283.355469 471.945312 284.492188 462.898438 C 286.003906 450.824219 288.085938 438.804688 289.527344 426.722656 C 291.402344 410.988281 291.152344 395.25 289.628906 379.53125 C 288.390625 366.761719 286.976562 354.007812 286.414062 341.210938 C 285.871094 328.820312 285.414062 316.429688 285.265625 304.035156 C 284.925781 275.671875 285.015625 247.308594 284.519531 218.945312 C 284.023438 190.640625 283.796875 162.328125 285.847656 134.039062 C 286.503906 124.96875 286.914062 115.882812 287.566406 106.8125 C 288.503906 93.820312 289.285156 80.816406 289.722656 67.8125 C 290.015625 59.03125 290.027344 50.25 290.214844 41.46875 C 290.441406 31.195312 290.972656 20.929688 289.859375 10.65625 C 288.582031 -1.175781 287.695312 -13.03125 286.683594 -24.878906 C 286.59375 -25.949219 286.085938 -26.324219 284.789062 -26.289062 C 282.605469 -26.234375 280.410156 -26.210938 278.230469 -26.289062 C 276.609375 -26.347656 276.277344 -25.792969 276.410156 -24.613281 C 276.816406 -20.964844 277.121094 -17.304688 277.460938 -13.648438 C 278.050781 -7.316406 278.644531 -0.984375 279.222656 5.351562 C 279.910156 12.867188 281.167969 20.386719 281.15625 27.902344 C 281.121094 47.890625 281.972656 67.882812 280.597656 87.867188 C 279.949219 97.304688 279.425781 106.746094 279.105469 116.191406 C 278.558594 132.25 278.085938 148.308594 277.039062 164.351562 C 276.5625 171.726562 276.050781 179.097656 275.386719 186.464844 C 274.359375 197.851562 273.554688 209.246094 273.296875 220.65625 C 273.085938 230.066406 273.914062 239.421875 275.414062 248.773438 C 277.558594 262.152344 277.953125 275.644531 278.476562 289.117188 C 278.777344 296.53125 278.539062 303.976562 278.539062 311.414062 Z M 204.558594 435.226562 C 204.636719 435.226562 204.710938 435.226562 204.785156 435.226562 C 204.785156 439.976562 204.742188 444.730469 204.796875 449.480469 C 204.929688 461.210938 204.835938 472.9375 205.125 484.664062 C 205.449219 497.992188 205.226562 511.324219 205.515625 524.652344 C 205.71875 534.105469 205.625 543.5625 205.601562 553.019531 C 205.597656 554.261719 206.015625 554.792969 207.660156 554.746094 C 210.488281 554.660156 213.320312 554.695312 216.152344 554.734375 C 217.53125 554.757812 217.925781 554.257812 217.882812 553.222656 C 217.65625 547.800781 217.425781 542.382812 217.296875 536.960938 C 217.007812 524.617188 216.753906 512.273438 216.527344 499.929688 C 216.316406 488.097656 216.292969 476.265625 216.207031 464.4375 C 216.03125 439.273438 215.921875 414.109375 216.308594 388.949219 C 216.578125 371.175781 216.335938 353.398438 216.734375 335.628906 C 216.976562 324.679688 216.839844 313.722656 217.0625 302.769531 C 217.371094 287.53125 217.476562 272.289062 217.472656 257.046875 C 217.464844 244.167969 219.257812 231.492188 223.273438 219.011719 C 226.347656 209.460938 230.140625 200.054688 232.832031 190.425781 C 235.4375 181.105469 237.339844 171.648438 240.195312 162.378906 C 246.195312 142.894531 248.394531 123.089844 248.789062 103.109375 C 248.980469 93.5 248.519531 83.902344 247.773438 74.308594 C 247.089844 65.542969 246.183594 56.785156 244.425781 48.121094 C 239.558594 24.164062 234.460938 0.234375 228.066406 -23.5 C 227.253906 -26.507812 228.164062 -26.289062 223.601562 -26.285156 C 223.472656 -26.285156 223.34375 -26.273438 223.21875 -26.28125 C 222.238281 -26.316406 221.980469 -25.929688 222.199219 -25.210938 C 222.652344 -23.703125 223.070312 -22.191406 223.515625 -20.683594 C 230.695312 3.59375 237.53125 27.929688 241.710938 52.683594 C 244.8125 71.03125 246.496094 89.441406 245.917969 107.976562 C 245.5 121.320312 244.042969 134.578125 241.511719 147.761719 C 239.285156 159.320312 236.300781 170.738281 230.90625 181.65625 C 225.097656 193.40625 220.738281 205.503906 217.257812 217.8125 C 211.148438 239.4375 208.558594 261.4375 206.882812 283.515625 C 206 295.117188 205.640625 306.734375 205.371094 318.355469 C 204.980469 335.039062 204.6875 351.726562 204.589844 368.410156 C 204.460938 390.6875 204.558594 412.957031 204.558594 435.226562 Z M -13.59375 449.019531 C -14.109375 455.949219 -13.203125 462.558594 -11.777344 469.140625 C -9.65625 478.914062 -6.738281 488.554688 -4.351562 498.285156 C -0.0625 515.742188 2.492188 533.375 3.671875 551.140625 C 3.910156 554.753906 3.910156 554.753906 8.65625 554.722656 C 11.15625 554.707031 11.207031 554.695312 11.101562 552.75 C 10.878906 548.777344 10.375 544.820312 9.726562 540.878906 C 7.710938 528.628906 4.332031 516.578125 1.21875 504.492188 C -2.238281 491.066406 -4.929688 477.566406 -5.035156 463.8125 C -5.097656 455.960938 -5.128906 448.105469 -5.011719 440.253906 C -4.949219 435.921875 -4.703125 431.582031 -4.164062 427.261719 C -2.84375 416.675781 -0.285156 406.222656 0.847656 395.609375 C 1.820312 386.484375 1.324219 377.496094 -0.96875 368.496094 C -4.265625 355.566406 -8.753906 342.914062 -13.675781 330.34375 C -17.46875 320.660156 -19.492188 310.78125 -19.128906 300.589844 C -18.960938 295.789062 -18.9375 290.984375 -18.59375 286.1875 C -18.15625 280.15625 -17.605469 274.128906 -16.5 268.148438 C -14.683594 258.332031 -11.648438 248.703125 -9.230469 238.984375 C -5.734375 224.917969 -3.25 210.78125 -3.550781 196.394531 C -3.636719 192.210938 -3.382812 187.996094 -4.609375 183.898438 C -7.03125 175.816406 -9.789062 167.808594 -11.625 159.605469 C -14.097656 148.5625 -16.199219 137.492188 -16.308594 126.246094 C -16.398438 116.691406 -16.710938 107.136719 -17.003906 97.585938 C -17.3125 87.671875 -17.53125 77.757812 -17.804688 67.839844 C -18.046875 58.90625 -18.304688 49.972656 -18.558594 41.039062 C -18.964844 26.628906 -19.371094 12.222656 -19.769531 -2.183594 C -19.949219 -8.535156 -20.101562 -14.886719 -20.292969 -21.238281 C -20.335938 -22.578125 -20.5 -23.917969 -20.605469 -25.257812 C -20.644531 -25.757812 -20.800781 -26.183594 -21.542969 -26.253906 C -22.292969 -26.324219 -22.785156 -26.082031 -22.980469 -25.484375 C -23.089844 -25.132812 -23.195312 -24.78125 -23.289062 -24.429688 C -25.195312 -17.46875 -25.265625 -10.378906 -25.464844 -3.3125 C -25.75 6.914062 -25.199219 17.136719 -25.445312 27.367188 C -25.910156 46.691406 -24.90625 65.996094 -23.585938 85.285156 C -23.140625 91.78125 -22.621094 98.273438 -21.960938 104.757812 C -20.929688 114.894531 -19.84375 125.03125 -18.601562 135.152344 C -17.394531 144.964844 -16.246094 154.785156 -13.730469 164.464844 C -11.152344 174.386719 -9.023438 184.359375 -9.789062 194.574219 C -10.382812 202.515625 -11.234375 210.4375 -12.601562 218.316406 C -15.777344 236.625 -19.851562 254.828125 -22.792969 273.167969 C -24.707031 285.109375 -26.488281 297.046875 -26.367188 309.113281 C -26.269531 318.628906 -25.585938 328.105469 -24 337.535156 C -22.988281 343.535156 -21.777344 349.515625 -18.734375 355.109375 C -12.113281 367.261719 -9.121094 380.03125 -8.703125 393.222656 C -8.371094 403.621094 -9.667969 413.953125 -11.113281 424.273438 C -12.277344 432.582031 -14.503906 440.816406 -13.59375 449.019531 Z M 296.773438 264.398438 C 296.773438 168.492188 296.773438 72.585938 296.773438 -23.320312 C 296.773438 -23.992188 296.773438 -24.664062 296.746094 -25.335938 C 296.730469 -25.777344 296.539062 -26.09375 295.921875 -26.242188 C 293.386719 -26.863281 292.117188 -26.140625 292.140625 -24.042969 C 292.148438 -23.527344 292.15625 -23.011719 292.1875 -22.496094 C 292.695312 -13.878906 293.109375 -5.261719 293.757812 3.347656 C 294.09375 7.734375 294 12.121094 294.234375 16.511719 C 294.554688 22.496094 294.914062 28.5 294.664062 34.480469 C 294.191406 45.730469 293.179688 56.964844 292.609375 68.210938 C 291.957031 81.0625 291.476562 93.917969 291.046875 106.773438 C 290.691406 117.515625 290.457031 128.257812 290.28125 139.003906 C 290.082031 151.246094 289.914062 163.492188 289.902344 175.738281 C 289.878906 199.351562 289.734375 222.960938 290.035156 246.578125 C 290.261719 263.988281 290.144531 281.402344 290.125 298.816406 C 290.117188 306.109375 290.613281 313.378906 291.101562 320.652344 C 291.84375 331.738281 292.941406 342.820312 292.390625 353.933594 C 292.257812 356.632812 292.101562 359.320312 292.632812 361.964844 C 295.5625 376.605469 295.203125 391.417969 296.28125 406.148438 C 297.316406 420.332031 294.328125 434.261719 291.503906 448.1875 C 289.578125 457.675781 287.71875 467.195312 288.027344 476.828125 C 288.316406 485.910156 289.226562 494.976562 289.910156 504.046875 C 290.742188 515.027344 291.636719 526.003906 292.492188 536.976562 C 292.917969 542.4375 293.320312 547.90625 293.710938 553.371094 C 293.773438 554.210938 294.074219 554.722656 295.289062 554.726562 C 296.542969 554.730469 296.820312 554.199219 296.777344 553.355469 C 296.753906 552.835938 296.777344 552.320312 296.777344 551.800781 C 296.777344 456.003906 296.777344 360.203125 296.773438 264.398438 Z M 296.773438 264.398438 " fill-opacity="1" fill-rule="nonzero"/></g></g><g clip-path="url(#a633bd1b3b)"><g clip-path="url(#d64483d625)"><path fill="#b66b25" d="M 167.855469 134.476562 C 167.945312 153.40625 165.386719 170.648438 159.652344 187.53125 C 157.863281 192.800781 155.28125 197.898438 153.140625 203.09375 C 147.578125 216.582031 142.0625 230.078125 135.390625 243.246094 C 131.972656 249.996094 128.359375 256.675781 123.480469 262.855469 C 121.753906 265.046875 119.851562 267.121094 117.4375 268.863281 C 113.542969 271.683594 110.457031 271.433594 107.476562 268.011719 C 103.289062 263.203125 100.914062 257.726562 98.664062 252.234375 C 90.910156 233.308594 85.71875 213.863281 80.648438 194.394531 C 75.078125 173.007812 70.199219 151.519531 65.507812 130 C 61.796875 112.957031 58.097656 95.914062 54.921875 78.804688 C 52.617188 66.394531 50.636719 53.953125 49.589844 41.425781 C 48.910156 33.328125 48.585938 25.230469 49.289062 17.125 C 49.925781 9.832031 51.25 2.652344 55.03125 -4.105469 C 59.871094 -12.765625 68.832031 -17.472656 80.253906 -17.234375 C 87.320312 -17.085938 93.289062 -14.65625 98.675781 -11.191406 C 106.046875 -6.453125 111.714844 -0.496094 116.855469 5.769531 C 130.625 22.554688 142.726562 40.03125 151.109375 59.066406 C 158.355469 75.546875 163.386719 92.429688 165.929688 109.789062 C 167.199219 118.464844 167.960938 127.164062 167.855469 134.476562 Z M 63.886719 32.949219 C 63.886719 34.394531 63.902344 35.835938 63.886719 37.28125 C 63.726562 48.550781 64.644531 59.777344 65.800781 71.003906 C 67.507812 87.574219 69.882812 104.085938 72.542969 120.570312 C 75.261719 137.417969 78.414062 154.21875 82.09375 170.953125 C 86.277344 189.980469 90.90625 208.933594 97.613281 227.511719 C 100.375 235.15625 103.375 242.738281 108.1875 249.757812 C 109.679688 251.9375 111.34375 254.03125 113.785156 255.628906 C 115.65625 256.851562 116.554688 256.820312 118.320312 255.527344 C 120.1875 254.164062 121.683594 252.546875 123.070312 250.863281 C 131.011719 241.25 136.867188 230.800781 142.015625 220.085938 C 151.398438 200.574219 157.800781 180.464844 160.179688 159.585938 C 161.464844 148.285156 161.570312 136.980469 159.546875 125.746094 C 156.425781 108.457031 152.273438 91.324219 146.542969 74.464844 C 142.128906 61.488281 136.820312 48.769531 129.472656 36.644531 C 124.503906 28.445312 118.164062 20.90625 112.101562 13.230469 C 107.722656 7.6875 103.03125 2.316406 97.121094 -2.28125 C 92.714844 -5.710938 87.84375 -8.519531 81.617188 -9.390625 C 75.050781 -10.3125 70.292969 -8.28125 67.5625 -3.394531 C 65.644531 0.0429688 64.851562 3.703125 64.359375 7.410156 C 63.226562 15.898438 63.632812 24.429688 63.886719 32.949219 Z M 63.886719 32.949219 " fill-opacity="1" fill-rule="nonzero"/></g></g><g clip-path="url(#e14fca0a22)"><g clip-path="url(#11f83907db)"><path fill="#b66b25" d="M 154.367188 159.097656 C 154.507812 172.378906 153.074219 184.730469 148.933594 196.832031 C 146.753906 203.203125 143.253906 209.113281 139.402344 214.917969 C 137.289062 218.105469 135.507812 221.441406 132.804688 224.363281 C 129.570312 227.867188 125.332031 229.910156 119.871094 230.398438 C 116.578125 230.695312 113.957031 229.660156 111.519531 228.140625 C 104.910156 224.019531 100.382812 218.597656 96.785156 212.636719 C 90.949219 202.96875 88.386719 192.628906 87.082031 182.023438 C 85.136719 166.277344 84.699219 150.484375 84.292969 134.683594 C 84.109375 127.65625 84.121094 120.632812 83.976562 113.605469 C 83.710938 100.746094 83.613281 87.878906 83.152344 75.027344 C 82.738281 63.515625 81.496094 52.039062 80.34375 40.5625 C 79.238281 29.550781 77.644531 18.558594 77.859375 7.484375 C 77.910156 4.953125 78.078125 2.421875 78.988281 -0.0273438 C 79.265625 -0.773438 79.589844 -1.492188 80.128906 -2.152344 C 80.777344 -2.945312 81.558594 -3.121094 82.582031 -2.636719 C 84.191406 -1.878906 85.769531 -1.101562 87.164062 -0.078125 C 93.777344 4.769531 98.378906 10.804688 102.660156 17.003906 C 111.046875 29.132812 117.679688 41.917969 124.277344 54.710938 C 127.527344 61.011719 131.332031 67.105469 134.859375 73.300781 C 140.261719 82.78125 143.292969 92.914062 146.148438 103.046875 C 150.019531 116.773438 152.53125 130.664062 153.804688 144.699219 C 154.257812 149.746094 154.5 154.804688 154.367188 159.097656 Z M 92.449219 134.8125 C 92.292969 143.671875 93.171875 155.980469 96.039062 168.164062 C 99.378906 182.386719 104.214844 196.226562 112.472656 209.179688 C 114.027344 211.617188 115.71875 214.003906 118.050781 216.03125 C 119.65625 217.429688 120.203125 217.4375 122.148438 216.339844 C 134.886719 209.132812 143.234375 199.417969 147.789062 187.511719 C 152.332031 175.652344 152.757812 163.515625 151.445312 151.292969 C 150.164062 139.367188 147.050781 127.707031 142.992188 116.203125 C 136.261719 97.109375 127.105469 78.761719 116.546875 60.84375 C 108.976562 47.996094 100.734375 35.429688 91.53125 23.277344 C 91.113281 22.722656 90.800781 21.71875 90.027344 21.824219 C 89.085938 21.949219 89.277344 23.007812 89.054688 23.671875 C 88.835938 24.316406 88.753906 24.988281 88.652344 25.65625 C 87.789062 31.375 88.71875 37.035156 90.089844 42.597656 C 93.96875 58.3125 94.714844 74.167969 93.984375 90.109375 C 93.355469 103.832031 92.511719 117.558594 92.449219 134.8125 Z M 92.449219 134.8125 " fill-opacity="1" fill-rule="nonzero"/></g></g><g clip-path="url(#0356ae451b)"><g clip-path="url(#c376769de9)"><path fill="#b66b25" d="M 130.304688 191.78125 C 134.839844 189.324219 137.542969 185.6875 139.597656 181.71875 C 142.046875 176.980469 143.039062 171.992188 143.296875 166.90625 C 143.644531 160.164062 143.128906 153.476562 140.847656 146.949219 C 139.511719 143.109375 137.40625 139.484375 135.210938 135.921875 C 129.902344 127.300781 127.109375 118.351562 128.683594 108.652344 C 129.179688 105.585938 128.878906 102.457031 128.253906 99.382812 C 126.230469 89.386719 118.613281 82.246094 109.535156 75.882812 C 108.28125 75.003906 107.109375 75.261719 106.222656 76.511719 C 105.324219 77.78125 104.835938 79.179688 104.492188 80.601562 C 102.464844 89.015625 102.152344 97.523438 102.144531 107.605469 C 102.097656 113.136719 102.636719 120.203125 102.863281 127.277344 C 103.25 139.257812 103.695312 151.230469 105.261719 163.160156 C 106.105469 169.59375 107.34375 175.96875 110.078125 182.089844 C 111.566406 185.421875 113.367188 188.683594 116.757812 191.035156 C 122.152344 194.765625 124.558594 194.886719 130.304688 191.78125 Z M 119.277344 167.386719 C 117.308594 166.019531 116.265625 164.128906 115.402344 162.195312 C 113.816406 158.640625 113.09375 154.9375 112.601562 151.203125 C 111.691406 144.277344 111.4375 137.328125 111.210938 130.375 C 111.078125 126.269531 110.765625 122.164062 110.792969 118.957031 C 110.796875 113.105469 110.976562 108.164062 112.15625 103.28125 C 112.355469 102.453125 112.640625 101.640625 113.164062 100.90625 C 113.679688 100.183594 114.359375 100.027344 115.085938 100.542969 C 120.355469 104.238281 124.777344 108.382812 125.953125 114.1875 C 126.316406 115.972656 126.488281 117.789062 126.203125 119.566406 C 125.289062 125.195312 126.914062 130.390625 129.996094 135.398438 C 131.265625 137.464844 132.492188 139.570312 133.265625 141.796875 C 134.585938 145.585938 134.890625 149.472656 134.6875 153.382812 C 134.535156 156.335938 133.960938 159.230469 132.535156 161.984375 C 131.34375 164.289062 129.777344 166.398438 127.140625 167.824219 C 123.804688 169.628906 122.410156 169.558594 119.277344 167.386719 Z M 119.277344 167.386719 " fill-opacity="1" fill-rule="nonzero"/></g></g></g></g></g></g><g clip-path="url(#3bbde3d7c1)"><path fill="#823d10" d="M 170.671875 519.433594 L 156.886719 511.570312 L 134.390625 511.570312 L 129.0625 464.988281 L 120.398438 519.433594 L 113.699219 513.769531 L 58.28125 511.574219 L 45.546875 472.886719 L 29.015625 438.9375 L 44.214844 523.578125 L 34.539062 510.78125 L 13.59375 512.015625 L 11.152344 272.761719 L 11.152344 39.441406 L 10.441406 11.851562 L 0.0195312 1.316406 L 5.335938 515.355469 L 27.039062 523.578125 Z M 170.671875 519.433594 " fill-opacity="0.68" fill-rule="nonzero"/></g><g clip-path="url(#df496d565c)"><path fill="#f4cb56" d="M 5.335938 1.316406 L 10.441406 11.851562 L 35.527344 11.851562 L 45.398438 62.820312 L 46.800781 2.488281 L 50.859375 8.476562 L 120.773438 9.050781 L 130.257812 60.867188 L 134.390625 4.050781 L 138.535156 14.375 L 165.765625 13.195312 L 162.328125 340.042969 L 166.875 415.011719 L 161.921875 458.484375 L 162.335938 508.816406 L 168.3125 519.433594 L 174.238281 3.648438 Z M 5.335938 1.316406 " fill-opacity="0.46" fill-rule="nonzero"/></g><g clip-path="url(#f1870a1785)"><path fill="#482109" d="M 134.390625 1.316406 L 130.257812 60.867188 L 126.949219 2.074219 Z M 134.390625 1.316406 " fill-opacity="1" fill-rule="nonzero"/></g><g clip-path="url(#ddfccc6dd2)"><path fill="#482109" d="M 46.878906 -0.875 L 45.398438 62.820312 L 44.214844 -0.0664062 Z M 46.878906 -0.875 " fill-opacity="1" fill-rule="nonzero"/></g><g clip-path="url(#da910a3274)"><path fill="#482109" d="M 50.324219 523.578125 C 50.324219 523.578125 42.21875 469.75 29.015625 438.9375 L 44.214844 523.578125 Z M 50.324219 523.578125 " fill-opacity="1" fill-rule="nonzero"/></g><path fill="#482109" d="M 120.398438 519.433594 L 129.0625 464.988281 L 124.734375 519.433594 Z M 120.398438 519.433594 " fill-opacity="1" fill-rule="nonzero"/><path fill="#f4cb56" d="M 129.0625 464.988281 L 113.699219 513.769531 L 120.398438 519.433594 Z M 129.0625 464.988281 " fill-opacity="0.46" fill-rule="nonzero"/><g clip-path="url(#efa4336502)"><path fill="#f4cb56" d="M 29.015625 438.9375 L 34.539062 510.78125 L 44.214844 523.578125 Z M 29.015625 438.9375 " fill-opacity="0.46" fill-rule="nonzero"/></g><g clip-path="url(#2c3e5e6d1e)"><path fill="#823d10" d="M 138.535156 14.375 L 130.257812 60.867188 L 134.390625 1.316406 Z M 138.535156 14.375 " fill-opacity="0.68" fill-rule="nonzero"/></g><g clip-path="url(#55a206230a)"><path fill="#823d10" d="M 50.859375 8.476562 L 45.398438 62.820312 L 46.878906 -0.875 Z M 50.859375 8.476562 " fill-opacity="0.68" fill-rule="nonzero"/></g></svg>