<?xml version="1.0" encoding="UTF-8" standalone="no"?>
<!-- Created with Inkscape (http://www.inkscape.org/) -->

<svg
   width="45.029568mm"
   height="45.856625mm"
   viewBox="0 0 45.029568 45.856625"
   version="1.1"
   id="svg1"
   xmlns="http://www.w3.org/2000/svg"
   xmlns:svg="http://www.w3.org/2000/svg">
  <defs
     id="defs1" />
  <g
     id="layer1"
     transform="translate(-27.503754,-95.696134)">
    <g
       id="g10">
      <path
         id="path6"
         style="fill:#f9f9f9;stroke:#000000;stroke-width:1;stroke-dasharray:none;stroke-opacity:1"
         d="m 30.365884,96.217356 c -1.286988,0 -2.324371,1.023937 -2.349211,2.304769 -0.0086,0.08194 -0.01292,0.164799 -0.01292,0.24908 v 14.108705 c 0,1.30267 1.048603,2.35127 2.351278,2.35127 1.302675,0 2.351278,-1.0486 2.351278,-2.35127 v -11.96 h 11.768273 c 1.302675,0 2.351278,-1.048602 2.351278,-2.351276 0,-1.302675 -1.048603,-2.351278 -2.351278,-2.351278 z" />
      <path
         id="path7"
         style="fill:#f9f9f9;stroke:#000000;stroke-width:1;stroke-dasharray:none;stroke-opacity:1"
         d="m 69.671193,96.196134 c 1.286988,0 2.324371,1.023937 2.349211,2.304769 0.0086,0.08194 0.01292,0.164799 0.01292,0.24908 v 14.108697 c 0,1.30268 -1.048603,2.35128 -2.351278,2.35128 -1.302675,0 -2.351278,-1.0486 -2.351278,-2.35128 V 100.89869 H 55.562495 c -1.302675,0 -2.351278,-1.048604 -2.351278,-2.351278 0,-1.302675 1.048603,-2.351278 2.351278,-2.351278 z" />
      <path
         id="path8"
         style="fill:#f9f9f9;stroke:#000000;stroke-width:1;stroke-dasharray:none;stroke-opacity:1"
         d="m 69.648583,141.00754 c 1.286988,0 2.324371,-1.02394 2.349211,-2.30477 0.0086,-0.0819 0.01292,-0.1648 0.01292,-0.24908 v -14.1087 c 0,-1.30267 -1.048603,-2.35128 -2.351278,-2.35128 -1.302675,0 -2.351278,1.04861 -2.351278,2.35128 v 11.95999 H 55.539885 c -1.302675,0 -2.351278,1.04861 -2.351278,2.35128 0,1.30268 1.048603,2.35128 2.351278,2.35128 z" />
      <path
         id="path10"
         style="fill:#f9f9f9;stroke:#000000;stroke-width:1;stroke-dasharray:none;stroke-opacity:1"
         d="m 30.408838,141.05276 c -1.286988,0 -2.324371,-1.02394 -2.349211,-2.30477 -0.0086,-0.0819 -0.01292,-0.1648 -0.01292,-0.24908 v -14.1087 c 0,-1.30267 1.048603,-2.35128 2.351278,-2.35128 1.302675,0 2.351278,1.04861 2.351278,2.35128 v 11.95999 h 11.768273 c 1.302675,0 2.351278,1.04861 2.351278,2.35128 0,1.30268 -1.048603,2.35128 -2.351278,2.35128 z" />
    </g>
  </g>
</svg>
