<?xml version="1.0" encoding="UTF-8" standalone="no"?>
<!-- Created with Inkscape (http://www.inkscape.org/) -->

<svg
   width="44.923958mm"
   height="45.833977mm"
   viewBox="0 0 44.923958 45.833977"
   version="1.1"
   id="svg1"
   inkscape:version="1.3.2 (091e20e, 2023-11-25, custom)"
   sodipodi:docname="fullscreen.svg"
   inkscape:export-filename="exitFullScreenIcon.svg"
   inkscape:export-xdpi="96"
   inkscape:export-ydpi="96"
   xmlns:inkscape="http://www.inkscape.org/namespaces/inkscape"
   xmlns:sodipodi="http://sodipodi.sourceforge.net/DTD/sodipodi-0.dtd"
   xmlns="http://www.w3.org/2000/svg"
   xmlns:svg="http://www.w3.org/2000/svg">
  <sodipodi:namedview
     id="namedview1"
     pagecolor="#ffffff"
     bordercolor="#000000"
     borderopacity="0.25"
     inkscape:showpageshadow="2"
     inkscape:pageopacity="0.0"
     inkscape:pagecheckerboard="0"
     inkscape:deskcolor="#d1d1d1"
     inkscape:document-units="mm"
     showguides="true"
     inkscape:zoom="0.73139029"
     inkscape:cx="424.53394"
     inkscape:cy="437.5229"
     inkscape:window-width="1375"
     inkscape:window-height="1008"
     inkscape:window-x="536"
     inkscape:window-y="0"
     inkscape:window-maximized="0"
     inkscape:current-layer="layer1">
    <sodipodi:guide
       position="70.681592,490.05222"
       orientation="0,-1"
       id="guide2"
       inkscape:locked="false" />
    <sodipodi:guide
       position="124.65511,457.56579"
       orientation="1,0"
       id="guide3"
       inkscape:locked="false" />
    <sodipodi:guide
       position="133.86387,442.47367"
       orientation="1,0"
       id="guide4"
       inkscape:locked="false" />
    <sodipodi:guide
       position="55.845269,478.28548"
       orientation="0,-1"
       id="guide5"
       inkscape:locked="false" />
    <sodipodi:guide
       position="-47.753196,470.35572"
       orientation="1,0"
       id="guide6"
       inkscape:locked="false" />
    <sodipodi:guide
       position="-46.090504,310.86525"
       orientation="1,0"
       id="guide11"
       inkscape:locked="false" />
    <sodipodi:guide
       position="182.2722,303.54638"
       orientation="1,0"
       id="guide12"
       inkscape:locked="false" />
    <sodipodi:guide
       position="94.72774,471.40022"
       orientation="0,-1"
       id="guide13"
       inkscape:locked="false" />
    <sodipodi:guide
       position="77.36355,195.7437"
       orientation="0,-1"
       id="guide15"
       inkscape:locked="false" />
  </sodipodi:namedview>
  <defs
     id="defs1" />
  <g
     inkscape:label="Layer 1"
     inkscape:groupmode="layer"
     id="layer1"
     transform="translate(-27.5451,-162.10058)">
    <g
       id="g15">
      <path
         id="path11"
         style="fill:#f9f9f9;stroke:#000000;stroke-width:1;stroke-dasharray:none;stroke-opacity:1"
         d="m 44.538658,181.61442 c 1.286988,0 2.324371,-1.02394 2.349211,-2.30477 0.0086,-0.0819 0.01292,-0.1648 0.01292,-0.24908 v -14.1087 c 0,-1.30267 -1.048603,-2.35128 -2.351278,-2.35128 -1.302675,0 -2.351278,1.04861 -2.351278,2.35128 v 11.95999 H 30.42996 c -1.302675,0 -2.351278,1.04861 -2.351278,2.35128 0,1.30268 1.048603,2.35128 2.351278,2.35128 z" />
      <path
         id="path13"
         style="fill:#f9f9f9;stroke:#000000;stroke-width:1;stroke-dasharray:none;stroke-opacity:1"
         d="m 55.509083,181.61442 c -1.286988,0 -2.324371,-1.02394 -2.349211,-2.30477 -0.0086,-0.0819 -0.01292,-0.1648 -0.01292,-0.24908 v -14.1087 c 0,-1.30267 1.048603,-2.35128 2.351278,-2.35128 1.302675,0 2.351278,1.04861 2.351278,2.35128 v 11.95999 h 11.768273 c 1.302675,0 2.351278,1.04861 2.351278,2.35128 0,1.30268 -1.048603,2.35128 -2.351278,2.35128 z" />
      <path
         id="path14"
         style="fill:#f9f9f9;stroke:#000000;stroke-width:1;stroke-dasharray:none;stroke-opacity:1"
         d="m 44.505076,188.42074 c 1.286988,0 2.324371,1.02394 2.349211,2.30477 0.0086,0.0819 0.01292,0.1648 0.01292,0.24908 v 14.1087 c 0,1.30267 -1.048603,2.35128 -2.351278,2.35128 -1.302675,0 -2.351278,-1.04861 -2.351278,-2.35128 V 193.1233 H 30.396378 c -1.302675,0 -2.351278,-1.04861 -2.351278,-2.35128 0,-1.30268 1.048603,-2.35128 2.351278,-2.35128 z" />
      <path
         id="path15"
         style="fill:#f9f9f9;stroke:#000000;stroke-width:1;stroke-dasharray:none;stroke-opacity:1"
         d="m 55.485456,188.4075 c -1.286988,0 -2.324371,1.02394 -2.349211,2.30477 -0.0086,0.0819 -0.01292,0.1648 -0.01292,0.24908 v 14.1087 c 0,1.30267 1.048603,2.35128 2.351278,2.35128 1.302675,0 2.351278,-1.04861 2.351278,-2.35128 v -11.95999 h 11.768273 c 1.302675,0 2.351278,-1.04861 2.351278,-2.35128 0,-1.30268 -1.048603,-2.35128 -2.351278,-2.35128 z" />
    </g>
  </g>
</svg>
