<svg xmlns="http://www.w3.org/2000/svg" xmlns:xlink="http://www.w3.org/1999/xlink" width="307" zoomAndPan="magnify" viewBox="0 0 230.25 110.249996" height="147" preserveAspectRatio="xMidYMid meet" version="1.0"><path fill="#8d4926" d="M 228.410156 93.230469 C 228.121094 95.902344 227.242188 98.046875 225.820312 100.128906 L 225.816406 100.132812 C 224.921875 101.40625 223.828125 102.535156 222.578125 103.46875 L 222.574219 103.46875 C 222.089844 103.855469 221.082031 104.476562 220.6875 104.671875 C 219.785156 105.160156 218.628906 105.625 217.507812 105.917969 C 214.375 106.753906 219.707031 106.398438 114.195312 106.398438 C 114.902344 105.695312 114.441406 106.15625 116.484375 104.109375 C 115.355469 102.296875 116.113281 103.511719 112.695312 98.019531 C 114.429688 103.4375 114.230469 102.816406 114.441406 103.46875 L 105.347656 106.398438 L 15.890625 106.398438 C 11.441406 106.398438 7.261719 104.253906 5.03125 101.589844 C 1.902344 98.210938 1.195312 94.582031 1.195312 90.527344 L 1.234375 90.527344 C 1.488281 87.855469 2.28125 83.414062 2.785156 80.917969 C 1.691406 77.796875 2.039062 78.792969 1.195312 76.394531 C 1.195312 76.164062 1.183594 41.558594 1.210938 41.332031 C 1.417969 40.226562 2.257812 35.722656 1.933594 34.746094 C 1.417969 32.730469 1.292969 31.84375 1.195312 31.390625 C 1.195312 14.828125 1.132812 15.015625 1.375 13.453125 C 2.328125 6.808594 8.371094 1.09375 15.890625 1.09375 L 42.628906 1.09375 C 41.644531 2.441406 41.632812 2.480469 39.195312 5.855469 C 41.832031 4.273438 40.511719 5.066406 45.339844 2.167969 L 45.34375 2.167969 L 47.125 1.09375 L 198.445312 1.09375 C 196.5625 2.234375 192.160156 4.960938 191.988281 5.066406 L 201.980469 1.09375 C 213.441406 1.09375 219.222656 0 224.554688 5.804688 C 226.367188 7.703125 227.707031 10.613281 227.707031 11.066406 C 228.117188 12.320312 228.398438 13.472656 228.472656 15.140625 C 228.496094 15.59375 228.53125 92.003906 228.410156 93.230469 " fill-opacity="1" fill-rule="nonzero"/><path fill="#783d1e" d="M 196.519531 106.402344 L 155.648438 106.402344 C 169.566406 109.480469 182.71875 108.246094 196.519531 106.402344 " fill-opacity="1" fill-rule="nonzero"/><path fill="#783d1e" d="M 149.359375 33.128906 C 142.84375 32.75 136.125 32.828125 129.402344 32.90625 C 120.058594 33.011719 110.707031 33.121094 101.875 32.003906 C 100.273438 31.800781 92.546875 30.535156 88.695312 31.550781 C 137.558594 37.414062 119.664062 34.011719 149.359375 33.128906 " fill-opacity="1" fill-rule="nonzero"/><path fill="#783d1e" d="M 24.566406 3.003906 C 20.980469 2.417969 17.398438 1.832031 13.8125 1.246094 C 12.773438 1.394531 11.769531 1.648438 10.808594 2.003906 C 15.777344 2.5 21.363281 4.15625 24.566406 3.003906 " fill-opacity="1" fill-rule="nonzero"/><path fill="#783d1e" d="M 30.269531 8.773438 C 9.34375 6.46875 8.417969 6.347656 4.914062 6.035156 C 4.507812 6.492188 4.125 6.972656 3.777344 7.480469 C 16.976562 7.898438 24.921875 10.070312 30.269531 8.773438 " fill-opacity="1" fill-rule="nonzero"/><path fill="#783d1e" d="M 150 59.117188 C 119.546875 55.34375 112.394531 56.394531 97.867188 57.445312 C 86.871094 58.242188 71.65625 59.035156 38.925781 57.742188 C 12.53125 56.699219 11.269531 55.601562 1.191406 54.855469 L 1.191406 57.832031 C 17.734375 60.078125 33.351562 63.683594 50.699219 64.332031 C 63.378906 64.804688 76.003906 63.65625 88.59375 62.503906 C 102.851562 61.203125 117.066406 59.902344 131.25 60.960938 C 143.761719 61.894531 155.457031 64.632812 168.183594 64.605469 C 175.117188 64.59375 181.847656 63.75 188.570312 63.070312 C 202.1875 61.683594 215.25 61.488281 228.484375 61.390625 L 228.484375 58.730469 C 220.316406 58.699219 214.304688 59.460938 207.902344 60.21875 C 195.765625 61.664062 182.242188 63.109375 150 59.117188 " fill-opacity="1" fill-rule="nonzero"/><path fill="#783d1e" d="M 131.332031 66.070312 C 128.8125 65.800781 126.164062 65.828125 123.558594 65.859375 C 94.785156 66.203125 94.957031 68.953125 80.1875 69.605469 C 70.648438 70.03125 61.515625 68.628906 52.363281 67.230469 C 43.582031 65.890625 34.789062 64.546875 25.605469 64.816406 C 13.859375 65.15625 17.121094 66.152344 1.191406 64.769531 L 1.191406 66.730469 C 13.707031 68.554688 14.394531 66.332031 18.320312 65.832031 C 22.308594 65.328125 25.660156 67.011719 29.136719 67.945312 C 33.621094 69.148438 39.171875 69.128906 44.703125 69.109375 C 46.644531 69.101562 48.582031 69.09375 50.472656 69.140625 C 63.933594 69.464844 76.609375 72.683594 90.03125 72.128906 C 100.328125 71.703125 109.480469 69.09375 119.785156 68.691406 C 127.152344 68.402344 134.261719 69.300781 142.574219 70.199219 C 156.980469 71.757812 175 73.3125 204.265625 68.6875 C 213.34375 67.253906 219.1875 65.984375 228.484375 65.878906 L 228.484375 64.558594 C 215.539062 64.949219 202.734375 66.695312 190.066406 68.070312 C 148.765625 72.550781 140.007812 66.992188 131.332031 66.070312 " fill-opacity="1" fill-rule="nonzero"/><path fill="#783d1e" d="M 103.589844 78.9375 C 130.671875 75.820312 124.207031 74.101562 143.789062 77.054688 C 155.5625 78.828125 168.628906 77.953125 181.691406 77.078125 C 190.652344 76.476562 199.609375 75.875 208.148438 76.128906 C 213.25 76.28125 220.753906 76.480469 228.484375 76.417969 L 228.484375 74.488281 L 25.863281 74.683594 C 45.898438 78.082031 58.496094 84.128906 103.589844 78.9375 " fill-opacity="1" fill-rule="nonzero"/><path fill="#783d1e" d="M 157.078125 84.777344 C 153.367188 84.1875 147.660156 82.382812 143.910156 82.234375 C 139.53125 82.0625 123.148438 84.949219 128.101562 85.398438 C 138.210938 85.21875 153.378906 86.859375 163.085938 90.460938 C 170.5 93.210938 178.828125 91.507812 187.371094 89.804688 C 192.976562 88.691406 198.675781 87.574219 204.273438 87.714844 C 211.5625 87.898438 217.023438 89.414062 228.484375 88.683594 L 228.484375 82.46875 C 194.421875 86.492188 183.789062 89.027344 157.078125 84.777344 " fill-opacity="1" fill-rule="nonzero"/><path fill="#783d1e" d="M 165.097656 51.460938 C 161.390625 50.871094 155.683594 49.066406 151.929688 48.921875 C 147.550781 48.75 119.367188 51.40625 119.027344 51.414062 C 129.136719 51.234375 152.457031 53.203125 161.941406 54.617188 C 170.035156 55.820312 181.710938 55.34375 192.800781 54.867188 C 199.90625 54.566406 206.773438 54.257812 212.296875 54.398438 C 216.34375 54.5 220.359375 56.203125 224.21875 55.335938 C 225.695312 55.003906 227.113281 54.734375 228.484375 54.507812 L 228.484375 50.105469 C 202.234375 53.230469 190.890625 55.566406 165.097656 51.460938 " fill-opacity="1" fill-rule="nonzero"/><path fill="#783d1e" d="M 122.039062 84.496094 C 114.480469 87.179688 106.234375 89.546875 97.46875 91.550781 C 79.75 95.609375 73.097656 91.128906 48.296875 88.3125 C 34.113281 86.699219 18.539062 86.796875 4.027344 85.882812 C 3.316406 85.835938 2.605469 85.785156 1.902344 85.734375 C 2.332031 83.144531 2.78125 80.917969 2.78125 80.917969 L 1.878906 78.34375 C 16.230469 80.625 23.476562 81.863281 62.453125 86.0625 C 72.816406 87.175781 90.058594 89.300781 108.238281 84.488281 C 109.960938 84.03125 129.828125 77.53125 131.578125 80.503906 C 132.113281 81.40625 123.691406 83.910156 122.039062 84.496094 " fill-opacity="1" fill-rule="nonzero"/><path fill="#783d1e" d="M 136.105469 90.371094 C 133.351562 89.757812 130.816406 88.953125 127.820312 88.5625 C 119.5 87.476562 110.777344 89.902344 105.605469 92.738281 C 100.859375 95.335938 92.757812 103.128906 63.542969 102.4375 C 34.324219 101.75 14.097656 92.710938 2.785156 98.347656 C 3.402344 99.558594 4.183594 100.679688 5.105469 101.667969 C 25.003906 107.589844 52.097656 106.09375 71.582031 105.109375 C 84.390625 104.460938 98.148438 103.640625 107.484375 100.054688 C 116.5 96.597656 117.214844 94.042969 139.6875 97.28125 C 184.554688 103.75 212.65625 98.0625 227.816406 96.105469 C 228.199219 94.886719 228.421875 93.601562 228.472656 92.273438 C 223.285156 92.726562 218.25 93.3125 212.746094 93.488281 C 185.234375 94.371094 148.496094 93.136719 136.105469 90.371094 " fill-opacity="1" fill-rule="nonzero"/><path fill="#783d1e" d="M 213.789062 106.402344 C 217.078125 106.402344 220.121094 105.308594 222.574219 103.472656 C 213.71875 103.921875 205.113281 105.25 196.519531 106.402344 L 213.789062 106.402344 " fill-opacity="1" fill-rule="nonzero"/><path fill="#783d1e" d="M 114.292969 103.019531 L 114.4375 103.472656 L 105.347656 106.402344 L 96.046875 106.402344 C 102.40625 105.535156 108.539062 104.402344 114.292969 103.019531 " fill-opacity="1" fill-rule="nonzero"/><path fill="#783d1e" d="M 155.648438 106.402344 L 134.238281 106.402344 C 128.136719 104.652344 121.058594 105.164062 114.742188 105.851562 L 116.484375 104.113281 L 115.601562 102.695312 C 120.628906 101.460938 127.214844 98.734375 140.804688 102.191406 C 145.921875 103.5 150.335938 105.230469 155.648438 106.402344 " fill-opacity="1" fill-rule="nonzero"/><path fill="#783d1e" d="M 199.214844 101.234375 C 208.316406 102.023438 216.972656 101.601562 225.816406 100.132812 C 226.09375 99.734375 226.359375 99.320312 226.601562 98.894531 C 217.648438 101.136719 208.976562 101.554688 199.214844 101.234375 " fill-opacity="1" fill-rule="nonzero"/><path fill="#783d1e" d="M 161.910156 102.390625 C 160.84375 102.199219 155.363281 100.921875 152.65625 101.941406 C 166.9375 104.378906 173.941406 105.910156 180.632812 105.058594 C 185.78125 104.40625 189.476562 103.761719 195.253906 103.519531 C 184.324219 102.609375 172.578125 104.316406 161.910156 102.390625 " fill-opacity="1" fill-rule="nonzero"/><path fill="#783d1e" d="M 62.878906 96.097656 C 62.097656 95.898438 58.3125 94.628906 56.425781 95.644531 C 66.492188 98.113281 71.289062 99.609375 75.929688 98.761719 C 79.519531 98.109375 82.09375 97.46875 86.125 97.222656 C 82.933594 96.84375 79.644531 96.921875 76.355469 97 C 71.78125 97.109375 67.203125 97.21875 62.878906 96.097656 " fill-opacity="1" fill-rule="nonzero"/><path fill="#783d1e" d="M 54.128906 93.707031 C 48.910156 94.722656 38.371094 93.457031 36.257812 93.257812 C 24.566406 92.164062 12.335938 92.257812 1.207031 92.332031 C 1.191406 91.65625 1.191406 92.332031 1.191406 90.527344 C 20.054688 90.527344 10.75 89.875 54.128906 93.707031 " fill-opacity="1" fill-rule="nonzero"/><path fill="#783d1e" d="M 42.628906 1.09375 L 42.214844 1.660156 C 40.359375 1.394531 40.234375 1.386719 38.390625 1.09375 L 42.628906 1.09375 " fill-opacity="1" fill-rule="nonzero"/><path fill="#783d1e" d="M 138.855469 1.09375 C 119.984375 2.773438 115.441406 4.25 107.28125 5.855469 C 92.515625 8.753906 88.746094 6.773438 79.460938 6.285156 C 76.621094 6.132812 73.660156 6.191406 70.71875 6.246094 C 65.414062 6.34375 60.167969 6.445312 55.796875 5.34375 C 52.027344 4.402344 50.8125 3.164062 45.339844 2.167969 L 45.335938 2.167969 L 47.125 1.09375 L 51.089844 1.09375 C 54.621094 1.90625 58.332031 2.585938 62.269531 2.964844 C 75.019531 4.191406 101.265625 2.527344 115.195312 1.09375 L 138.855469 1.09375 " fill-opacity="1" fill-rule="nonzero"/><path fill="#783d1e" d="M 187.816406 3.34375 C 191.246094 2.976562 193.9375 2 196.734375 1.09375 L 169.125 1.09375 C 175.367188 2.359375 181.316406 4.046875 187.816406 3.34375 " fill-opacity="1" fill-rule="nonzero"/><path fill="#783d1e" d="M 224.550781 5.808594 C 190.207031 12.675781 193.230469 13.53125 167.09375 10.894531 C 118.230469 5.953125 94.691406 12.519531 78.613281 13.867188 C 58.789062 15.53125 52.710938 11.414062 46.589844 9.492188 C 38.945312 7.085938 28.515625 6.226562 20.234375 5.570312 C 26.464844 4.824219 33.828125 4.203125 40.144531 4.539062 L 39.195312 5.855469 L 41.28125 4.605469 C 59.449219 5.769531 52.636719 12.5625 85.589844 9.28125 C 94.152344 8.425781 118.160156 6.039062 122.988281 5.554688 C 126.667969 5.191406 130.394531 4.824219 134.1875 4.835938 C 138.15625 4.855469 141.9375 5.285156 145.660156 5.855469 C 153.105469 6.992188 172.585938 11.535156 198.046875 7.625 C 205.460938 6.488281 210.671875 5.039062 221.863281 3.527344 C 221.96875 3.601562 223.078125 4.378906 223.152344 4.488281 C 223.589844 4.824219 224.199219 5.421875 224.550781 5.808594 " fill-opacity="1" fill-rule="nonzero"/><path fill="#783d1e" d="M 140.777344 16.078125 C 131.753906 15.371094 122.464844 14.21875 113.558594 15.132812 C 108.164062 15.6875 103.421875 16.964844 98.28125 17.824219 C 93.140625 18.6875 90.46875 17.6875 85.699219 16.53125 C 87.066406 21.878906 103.269531 16.820312 113.808594 16.261719 C 120.996094 15.882812 127.773438 15.644531 134.65625 16.5625 C 149.539062 18.546875 166.476562 18.460938 183.199219 17.839844 C 196.621094 17.335938 213.789062 13.191406 227.695312 11.042969 C 227.433594 10.273438 227.109375 9.53125 226.726562 8.824219 C 222.882812 9.617188 189.210938 19.878906 140.777344 16.078125 " fill-opacity="1" fill-rule="nonzero"/><path fill="#783d1e" d="M 165.425781 23.164062 C 162.042969 22.824219 159.027344 22.070312 155.925781 21.433594 C 139.300781 18.035156 98.121094 22.285156 99.898438 22.484375 C 102.195312 22.738281 107.101562 22.414062 112.011719 22.09375 C 116.917969 21.769531 121.828125 21.449219 124.121094 21.703125 C 126.0625 21.917969 128.089844 22.136719 130.066406 21.980469 C 131.324219 21.882812 132.480469 21.636719 133.71875 21.503906 C 140.636719 20.78125 146.199219 23.628906 151.972656 25.320312 C 160.867188 27.929688 172.765625 27.957031 183.769531 27.804688 C 204.917969 27.515625 215.121094 26.828125 228.484375 23.886719 L 228.484375 18.277344 C 204.96875 21.78125 174.257812 24.046875 165.425781 23.164062 " fill-opacity="1" fill-rule="nonzero"/><path fill="#783d1e" d="M 63.636719 21.953125 C 70.480469 20.710938 77.222656 18.03125 82.664062 16.101562 C 73.628906 16.722656 52.464844 20.5 30.183594 13.8125 C 27.929688 13.136719 25.792969 12.378906 23.289062 11.863281 C 15.800781 10.324219 5.640625 11.550781 1.257812 14.402344 C 1.175781 15.28125 1.191406 15.648438 1.191406 17.410156 C 15.800781 22.625 49.1875 24.578125 63.636719 21.953125 " fill-opacity="1" fill-rule="nonzero"/><path fill="#783d1e" d="M 160.171875 30.640625 C 182.640625 31.414062 206.246094 30.777344 228.484375 28.707031 L 228.484375 27.328125 C 196.699219 30.839844 197.269531 28.488281 160.171875 30.640625 " fill-opacity="1" fill-rule="nonzero"/><path fill="#783d1e" d="M 63.28125 25.742188 C 70.917969 25.3125 79.457031 26.546875 90.898438 27.050781 C 99.347656 27.425781 107.839844 27.804688 116.03125 28.71875 C 131.019531 30.390625 145.140625 31.515625 160.171875 30.640625 C 154.488281 30.445312 148.882812 30.164062 143.386719 29.789062 C 110.929688 27.574219 83.976562 22.382812 43.203125 25.9375 C 27.492188 27.308594 22.578125 28.164062 1.191406 23.417969 L 1.191406 26.96875 C 24.34375 34.917969 48.441406 26.574219 63.28125 25.742188 " fill-opacity="1" fill-rule="nonzero"/><path fill="#783d1e" d="M 228.484375 31.085938 L 228.484375 34.582031 C 220.230469 36.269531 199.855469 38.761719 193.351562 38.554688 C 186.546875 38.335938 170.566406 34.515625 146.382812 37.511719 C 133.6875 39.082031 118.238281 43.113281 103.886719 40.859375 C 95.835938 39.589844 90.308594 36.515625 82.480469 35.039062 C 69.628906 32.609375 54.636719 35.015625 40.429688 35.148438 C 34.933594 35.195312 28.679688 34.746094 22.066406 34.296875 C 15.46875 33.847656 8.515625 33.398438 1.613281 33.449219 C 1.539062 33.089844 1.460938 32.738281 1.386719 32.398438 C 6.1875 32.269531 14.84375 32.070312 19.652344 32.328125 C 41.8125 33.527344 51.042969 32.910156 57.996094 32.296875 C 62.949219 31.855469 66.75 31.417969 73.242188 31.636719 C 88.398438 32.148438 99.21875 37.191406 106.300781 38.15625 C 109.316406 38.5625 112.574219 38.546875 115.75 38.46875 C 138.699219 37.914062 161.15625 34.367188 184.0625 35.1875 C 205.628906 35.953125 198.546875 34.339844 228.484375 31.085938 " fill-opacity="1" fill-rule="nonzero"/><path fill="#783d1e" d="M 228.484375 38.707031 L 228.484375 43.761719 C 196.933594 49.984375 178.015625 46.363281 164.351562 45.949219 C 141.707031 45.261719 120.445312 50.398438 97.835938 51.273438 C 63.929688 52.582031 29.886719 43.957031 16.90625 43.296875 C 11.3125 43.019531 3.246094 43.667969 1.191406 43.667969 C 1.191406 39.976562 1.097656 42.671875 1.769531 37.996094 C 12.332031 38.273438 25.335938 39.273438 37.726562 40.964844 C 75.289062 46.089844 81.125 49.949219 130.191406 42.542969 C 133.167969 42.097656 136.203125 41.636719 139.375 41.59375 C 145.050781 41.503906 148.417969 42.289062 152.488281 43.070312 C 159.449219 44.410156 168.460938 45.75 194.554688 42.738281 C 205.863281 41.433594 217.160156 40.050781 228.484375 38.707031 " fill-opacity="1" fill-rule="nonzero"/><path fill="#783d1e" d="M 99.84375 42.570312 C 87.535156 35.898438 53.199219 36.265625 35.304688 36.632812 C 29.78125 36.75 25.824219 36.863281 24.566406 36.769531 C 29.421875 37.128906 105.378906 45.570312 99.84375 42.570312 " fill-opacity="1" fill-rule="nonzero"/><path fill="#b15d31" d="M 39.195312 5.855469 C 13.769531 5.855469 14.167969 5.59375 11.105469 6.660156 L 11.101562 6.660156 C 7.808594 7.796875 4.832031 10.179688 3.011719 13.476562 L 3.011719 13.480469 C 1.777344 15.714844 1.191406 18.140625 1.191406 20.515625 C 1.191406 15.945312 0.804688 12.59375 3.050781 8.644531 C 4.15625 6.648438 5.855469 4.839844 7.601562 3.671875 C 7.726562 3.582031 7.851562 3.503906 7.972656 3.421875 C 10.761719 1.632812 13.433594 1.300781 13.433594 1.300781 C 15.191406 0.980469 15.335938 1.09375 42.628906 1.09375 C 41.632812 2.460938 41.691406 2.402344 39.195312 5.855469 " fill-opacity="1" fill-rule="nonzero"/><path fill="#b15d31" d="M 228.484375 20.515625 C 228.484375 14.414062 224.679688 9.070312 219.183594 6.886719 C 215.421875 5.398438 227.933594 5.855469 39.195312 5.855469 C 44.332031 2.773438 46.160156 1.675781 47.125 1.09375 L 198.441406 1.09375 C 196.558594 2.238281 192.160156 4.964844 191.988281 5.066406 L 201.976562 1.09375 L 213.789062 1.09375 C 217.472656 1.09375 221.027344 2.550781 223.277344 4.585938 C 223.730469 4.8125 226.363281 7.304688 227.699219 11.042969 L 227.707031 11.066406 C 228.6875 14.078125 228.484375 15.410156 228.484375 20.515625 " fill-opacity="1" fill-rule="nonzero"/><path fill="#b15d31" d="M 1.191406 53.207031 C 1.214844 38.035156 1.054688 42.964844 1.769531 37.996094 C 2.1875 35.074219 2 35.074219 1.613281 33.449219 C 1.085938 30.992188 1.226562 33.761719 1.257812 14.40625 L 3.890625 11.785156 C 0.992188 16.621094 2.519531 27.578125 3.523438 33.082031 C 4.050781 35.296875 1.558594 50.957031 1.191406 53.207031 " fill-opacity="1" fill-rule="nonzero"/><path fill="#b15d31" d="M 5.359375 10.320312 L 3.890625 11.785156 C 4.59375 10.617188 5.269531 10.347656 5.359375 10.320312 " fill-opacity="1" fill-rule="nonzero"/><path fill="#5b2c14" d="M 1.191406 53.207031 C 121.867188 53.84375 94.871094 53.824219 135.75 53.476562 L 150 59.117188 L 228.484375 54.507812 L 228.484375 58.730469 L 149.359375 61.027344 L 135.296875 54.855469 L 117.792969 55.582031 C 109.550781 54.671875 113.328125 54.691406 101.65625 55.582031 L 1.191406 54.855469 L 1.191406 53.207031 " fill-opacity="1" fill-rule="nonzero"/><path fill="#b15d31" d="M 225.078125 58.832031 C 201.226562 59.851562 172.414062 60.910156 149.242188 61.632812 C 148.992188 61.523438 135.191406 55.503906 135.039062 55.433594 L 135.320312 55.488281 C 113.367188 56.449219 120.589844 56.566406 111.128906 55.523438 L 111.253906 55.523438 C 99.234375 56.414062 113.441406 56.554688 40.546875 55.535156 C 30.609375 55.382812 13.871094 55.113281 3.890625 54.875 C 36.582031 54.570312 91.390625 54.878906 101.660156 54.929688 L 101.605469 54.933594 C 113.875 53.96875 108.699219 53.902344 117.867188 54.910156 L 117.765625 54.90625 C 131.707031 54.359375 135.132812 54.226562 135.417969 54.214844 C 135.609375 54.300781 135.171875 54.105469 149.601562 60.480469 L 149.34375 60.429688 C 172.460938 59.808594 201.132812 59.195312 225.078125 58.832031 " fill-opacity="1" fill-rule="nonzero"/><path fill="#b15d31" d="M 21.875 106.039062 L 21.75 106.402344 C 15.449219 106.402344 8.847656 107.3125 3.675781 99.863281 C 1.53125 96.652344 1.191406 93.917969 1.191406 90.527344 L 1.234375 90.527344 C 1.488281 87.855469 2.28125 83.410156 2.78125 80.917969 C 1.6875 77.800781 2.039062 78.796875 1.191406 76.394531 L 1.191406 54.851562 C 3.050781 76.480469 2.136719 70.996094 5.359375 82.230469 C 4.078125 85.113281 1.949219 91.566406 3.890625 94.078125 C 4.675781 95.105469 4.78125 96.238281 5.246094 97.464844 C 5.972656 99.355469 7.546875 101.46875 13.824219 103.71875 L 13.835938 103.726562 C 15.9375 104.476562 18.570312 105.253906 21.875 106.039062 " fill-opacity="1" fill-rule="nonzero"/><path fill="#b15d31" d="M 1.234375 90.527344 C 1.214844 90.679688 1.203125 90.828125 1.191406 90.96875 L 1.191406 90.527344 L 1.234375 90.527344 " fill-opacity="1" fill-rule="nonzero"/><path fill="#5b2c14" d="M 196.738281 12.617188 C 191.617188 18.296875 194.863281 14.703125 191.019531 18.960938 C 193.707031 14.777344 192.164062 17.175781 194.328125 13.816406 C 189.917969 10.019531 188.085938 8.441406 185.300781 6.035156 C 185.890625 5.78125 184.46875 6.394531 196.738281 1.09375 L 198.441406 1.09375 L 191.980469 5.070312 L 189.957031 5.855469 L 196.738281 12.617188 " fill-opacity="1" fill-rule="nonzero"/><path fill="#5b2c14" d="M 192.011719 5.0625 L 201.976562 1.09375 L 202.234375 1.09375 Z M 192.011719 5.0625 " fill-opacity="1" fill-rule="nonzero"/><path fill="#5b2c14" d="M 39.195312 5.855469 L 40.738281 7.398438 L 40.738281 13.894531 L 38.390625 7.589844 L 34.832031 6.035156 C 35.09375 5.824219 40.671875 1.324219 40.875 1.09375 L 42.628906 1.09375 C 41.632812 2.460938 41.691406 2.402344 39.195312 5.855469 " fill-opacity="1" fill-rule="nonzero"/><path fill="#5b2c14" d="M 47.132812 1.09375 L 45.339844 2.167969 L 45.335938 2.167969 L 47.125 1.09375 L 47.132812 1.09375 " fill-opacity="1" fill-rule="nonzero"/><path fill="#5b2c14" d="M 112.691406 98.019531 L 115.179688 103.941406 L 106.542969 106.402344 L 105.347656 106.402344 L 114.4375 103.472656 L 112.691406 98.019531 " fill-opacity="1" fill-rule="nonzero"/><path fill="#954e29" d="M 125.359375 106.398438 L 114.195312 106.398438 C 114.496094 106.101562 114.585938 106.011719 114.746094 105.851562 C 117.875 105.511719 121.195312 105.214844 124.492188 105.214844 C 125.238281 105.214844 125.984375 105.230469 126.726562 105.261719 C 126.277344 105.640625 125.816406 106.023438 125.359375 106.398438 M 96.058594 106.398438 L 21.75 106.398438 L 21.875 106.039062 C 18.613281 105.265625 16.007812 104.5 13.917969 103.753906 C 23.351562 105.492188 33.753906 106.035156 43.894531 106.035156 C 53.738281 106.035156 63.339844 105.523438 71.582031 105.109375 C 84.390625 104.460938 98.148438 103.640625 107.484375 100.054688 C 113.582031 97.71875 115.882812 95.792969 123.683594 95.792969 C 126.703125 95.792969 130.542969 96.078125 135.75 96.746094 C 134.5 98.066406 133.207031 99.363281 131.871094 100.640625 C 130.714844 100.546875 129.625 100.503906 128.597656 100.503906 C 122.675781 100.503906 118.820312 101.90625 115.605469 102.695312 C 115.246094 102.121094 114.664062 101.183594 112.695312 98.019531 C 112.695312 98.027344 112.699219 98.035156 112.703125 98.042969 L 112.691406 98.019531 L 114.4375 103.472656 L 114.292969 103.019531 C 108.542969 104.402344 102.414062 105.535156 96.058594 106.398438 M 67.125 102.484375 C 65.964844 102.484375 64.773438 102.46875 63.542969 102.4375 C 41.210938 101.910156 24.125 96.507812 12.265625 96.507812 C 9.664062 96.507812 7.316406 96.765625 5.222656 97.394531 C 4.777344 96.195312 4.660156 95.085938 3.890625 94.078125 C 3.527344 93.613281 3.308594 93.007812 3.195312 92.320312 C 5.507812 92.304688 7.863281 92.292969 10.246094 92.292969 C 18.773438 92.292969 27.664062 92.457031 36.257812 93.257812 C 37.78125 93.402344 43.671875 94.097656 48.800781 94.097656 C 50.789062 94.097656 52.667969 93.992188 54.128906 93.707031 C 21.761719 90.851562 18.726562 90.484375 11.433594 90.484375 C 9.304688 90.484375 6.8125 90.519531 3.121094 90.527344 C 3.199219 89.046875 3.566406 87.394531 4.019531 85.878906 C 4.019531 85.882812 4.023438 85.882812 4.027344 85.882812 C 18.539062 86.796875 34.113281 86.699219 48.296875 88.3125 C 65.984375 90.324219 74.4375 93.175781 84.261719 93.175781 C 88.210938 93.175781 92.386719 92.714844 97.46875 91.550781 C 106.234375 89.546875 114.480469 87.179688 122.039062 84.496094 C 123.691406 83.910156 132.113281 81.40625 131.578125 80.503906 C 131.253906 79.953125 130.3125 79.730469 128.980469 79.730469 C 123.105469 79.730469 109.644531 84.117188 108.238281 84.488281 C 99.5625 86.785156 91.097656 87.5 83.488281 87.5 C 75.164062 87.5 67.867188 86.644531 62.453125 86.0625 C 25.757812 82.109375 17.1875 80.777344 4.335938 78.734375 C 2.910156 73.925781 2.742188 73.449219 2.191406 66.871094 C 5.214844 67.28125 7.5 67.4375 9.292969 67.4375 C 14.351562 67.4375 15.5 66.191406 18.320312 65.832031 C 18.824219 65.769531 19.316406 65.738281 19.800781 65.738281 C 23.160156 65.738281 26.097656 67.128906 29.136719 67.945312 C 33.042969 68.996094 37.753906 69.117188 42.554688 69.117188 C 43.269531 69.117188 43.984375 69.113281 44.703125 69.109375 C 45.417969 69.105469 46.132812 69.105469 46.847656 69.105469 C 48.066406 69.105469 49.28125 69.109375 50.472656 69.140625 C 62.875 69.441406 74.605469 72.191406 86.867188 72.191406 C 87.917969 72.191406 88.972656 72.171875 90.03125 72.128906 C 100.328125 71.703125 109.480469 69.09375 119.785156 68.691406 C 120.742188 68.652344 121.695312 68.636719 122.648438 68.636719 C 129.023438 68.636719 135.34375 69.417969 142.574219 70.199219 C 145.9375 70.5625 149.5 70.925781 153.359375 71.210938 C 152.824219 72.335938 152.265625 73.453125 151.683594 74.5625 L 25.863281 74.683594 C 40.308594 77.136719 50.886719 80.960938 72.558594 80.960938 C 80.949219 80.960938 91.003906 80.386719 103.589844 78.9375 C 120.875 76.949219 124.496094 75.527344 129.941406 75.527344 C 133.03125 75.527344 136.707031 75.984375 143.789062 77.054688 C 145.804688 77.355469 147.855469 77.582031 149.9375 77.746094 C 148.996094 79.378906 148.003906 81 146.953125 82.597656 C 145.859375 82.40625 144.824219 82.269531 143.910156 82.234375 C 143.78125 82.230469 143.644531 82.230469 143.5 82.230469 C 138.601562 82.230469 123.292969 84.960938 128.101562 85.398438 C 128.597656 85.390625 129.105469 85.386719 129.625 85.386719 C 134.011719 85.386719 139.179688 85.699219 144.378906 86.335938 C 143.195312 87.972656 141.953125 89.585938 140.652344 91.171875 C 138.90625 90.921875 137.378906 90.652344 136.105469 90.371094 C 133.351562 89.757812 130.816406 88.953125 127.820312 88.5625 C 126.433594 88.382812 125.035156 88.296875 123.640625 88.296875 C 116.6875 88.296875 109.914062 90.375 105.605469 92.738281 C 101.058594 95.226562 93.433594 102.484375 67.125 102.484375 M 58.355469 95.253906 C 57.632812 95.253906 56.957031 95.359375 56.425781 95.644531 C 64.566406 97.640625 69.261719 99 73.214844 99 C 74.152344 99 75.042969 98.925781 75.929688 98.761719 C 79.519531 98.109375 82.09375 97.46875 86.125 97.222656 C 84.25 97 82.339844 96.9375 80.417969 96.9375 C 79.066406 96.9375 77.710938 96.96875 76.355469 97 C 74.996094 97.03125 73.636719 97.0625 72.285156 97.0625 C 69.082031 97.0625 65.917969 96.886719 62.878906 96.097656 C 62.316406 95.953125 60.199219 95.253906 58.355469 95.253906 M 76.667969 69.683594 C 68.390625 69.683594 60.382812 68.457031 52.363281 67.230469 C 44.34375 66.007812 36.3125 64.78125 27.984375 64.78125 C 27.195312 64.78125 26.402344 64.792969 25.605469 64.816406 C 18.386719 65.023438 16.835938 65.480469 13.011719 65.480469 C 10.726562 65.480469 7.628906 65.320312 2.023438 64.84375 C 1.871094 62.972656 1.6875 60.695312 1.449219 57.867188 C 17.894531 60.117188 33.441406 63.6875 50.699219 64.332031 C 52.707031 64.40625 54.71875 64.441406 56.726562 64.441406 C 67.382812 64.441406 78.003906 63.472656 88.59375 62.503906 C 99.1875 61.539062 109.753906 60.574219 120.304688 60.574219 C 123.953125 60.574219 127.601562 60.6875 131.25 60.960938 C 139.828125 61.601562 148.023438 63.089844 156.429688 63.953125 C 155.726562 65.839844 154.953125 67.714844 154.117188 69.574219 C 141.789062 68.855469 136.546875 66.625 131.332031 66.070312 C 129.613281 65.882812 127.832031 65.839844 126.046875 65.839844 C 125.21875 65.839844 124.386719 65.851562 123.558594 65.859375 C 94.785156 66.203125 94.957031 68.953125 80.1875 69.605469 C 79.007812 69.660156 77.835938 69.683594 76.667969 69.683594 M 69.589844 58.425781 C 61.445312 58.425781 51.472656 58.238281 38.925781 57.742188 C 12.53125 56.699219 11.269531 55.601562 1.191406 54.855469 C 1.191406 54.851562 1.191406 54.855469 1.191406 54.855469 L 3.890625 54.875 C 13.871094 55.113281 30.609375 55.382812 40.546875 55.535156 C 75.574219 56.023438 90.488281 56.246094 97.867188 56.246094 C 105.8125 56.246094 105.015625 55.988281 111.191406 55.527344 C 115.683594 56.027344 116.378906 56.257812 118.304688 56.257812 C 120.382812 56.257812 123.898438 55.988281 135.175781 55.492188 C 135.785156 55.761719 138.335938 56.871094 141.097656 58.078125 C 130.027344 56.878906 122.628906 56.464844 116.503906 56.464844 C 109.816406 56.464844 104.644531 56.957031 97.867188 57.445312 C 91.085938 57.9375 82.699219 58.425781 69.589844 58.425781 " fill-opacity="1" fill-rule="nonzero"/><path fill="#804120" d="M 56.726562 64.441406 C 54.71875 64.441406 52.707031 64.40625 50.699219 64.332031 C 33.441406 63.6875 17.894531 60.117188 1.449219 57.867188 C 1.371094 56.929688 1.285156 55.933594 1.191406 54.867188 C 1.191406 54.863281 1.191406 54.859375 1.191406 54.855469 C 11.269531 55.601562 12.53125 56.699219 38.925781 57.742188 C 51.472656 58.238281 61.445312 58.425781 69.589844 58.425781 C 82.699219 58.425781 91.085938 57.9375 97.867188 57.445312 C 104.644531 56.957031 109.816406 56.464844 116.503906 56.464844 C 122.628906 56.464844 130.027344 56.878906 141.097656 58.078125 C 144.898438 59.738281 149.105469 61.574219 149.242188 61.632812 C 151.878906 61.550781 154.582031 61.464844 157.351562 61.375 C 157.054688 62.238281 156.75 63.097656 156.429688 63.953125 C 148.023438 63.089844 139.828125 61.601562 131.25 60.960938 C 127.601562 60.6875 123.953125 60.574219 120.304688 60.574219 C 109.753906 60.574219 99.1875 61.539062 88.59375 62.503906 C 78.003906 63.472656 67.382812 64.441406 56.726562 64.441406 " fill-opacity="1" fill-rule="nonzero"/><path fill="#804120" d="M 86.867188 72.191406 C 74.605469 72.191406 62.875 69.441406 50.472656 69.140625 C 49.28125 69.109375 48.066406 69.105469 46.847656 69.105469 C 46.132812 69.105469 45.417969 69.105469 44.703125 69.109375 C 43.984375 69.113281 43.269531 69.117188 42.554688 69.117188 C 37.753906 69.117188 33.042969 68.996094 29.136719 67.945312 C 26.097656 67.128906 23.160156 65.738281 19.800781 65.738281 C 19.316406 65.738281 18.824219 65.769531 18.320312 65.832031 C 15.5 66.191406 14.351562 67.4375 9.292969 67.4375 C 7.5 67.4375 5.214844 67.28125 2.191406 66.871094 C 2.136719 66.25 2.085938 65.578125 2.023438 64.84375 C 7.628906 65.320312 10.726562 65.480469 13.011719 65.480469 C 16.835938 65.480469 18.386719 65.023438 25.605469 64.816406 C 26.402344 64.792969 27.195312 64.78125 27.984375 64.78125 C 36.3125 64.78125 44.34375 66.007812 52.363281 67.230469 C 60.382812 68.457031 68.390625 69.683594 76.667969 69.683594 C 77.835938 69.683594 79.007812 69.660156 80.1875 69.605469 C 94.957031 68.953125 94.785156 66.203125 123.558594 65.859375 C 124.386719 65.851562 125.21875 65.839844 126.046875 65.839844 C 127.832031 65.839844 129.613281 65.882812 131.332031 66.070312 C 136.546875 66.625 141.789062 68.855469 154.117188 69.574219 C 153.871094 70.121094 153.617188 70.664062 153.359375 71.210938 C 149.5 70.925781 145.9375 70.5625 142.574219 70.199219 C 135.34375 69.417969 129.023438 68.636719 122.648438 68.636719 C 121.695312 68.636719 120.742188 68.652344 119.785156 68.691406 C 109.480469 69.09375 100.328125 71.703125 90.03125 72.128906 C 88.972656 72.171875 87.917969 72.191406 86.867188 72.191406 " fill-opacity="1" fill-rule="nonzero"/><path fill="#804120" d="M 72.558594 80.960938 C 50.886719 80.960938 40.308594 77.136719 25.863281 74.683594 L 151.683594 74.5625 C 151.121094 75.632812 150.539062 76.691406 149.9375 77.746094 C 147.855469 77.582031 145.804688 77.355469 143.789062 77.054688 C 136.707031 75.984375 133.03125 75.527344 129.941406 75.527344 C 124.496094 75.527344 120.875 76.949219 103.589844 78.9375 C 91.003906 80.386719 80.949219 80.960938 72.558594 80.960938 " fill-opacity="1" fill-rule="nonzero"/><path fill="#804120" d="M 144.378906 86.335938 C 139.179688 85.699219 134.011719 85.386719 129.625 85.386719 C 129.105469 85.386719 128.597656 85.390625 128.101562 85.398438 C 123.292969 84.960938 138.601562 82.230469 143.5 82.230469 C 143.644531 82.230469 143.78125 82.230469 143.910156 82.234375 C 144.824219 82.269531 145.859375 82.40625 146.953125 82.597656 C 146.128906 83.855469 145.269531 85.105469 144.378906 86.335938 " fill-opacity="1" fill-rule="nonzero"/><path fill="#804120" d="M 84.261719 93.175781 C 74.4375 93.175781 65.984375 90.324219 48.296875 88.3125 C 34.113281 86.699219 18.539062 86.796875 4.027344 85.882812 C 4.023438 85.882812 4.019531 85.882812 4.019531 85.878906 C 4.441406 84.457031 4.945312 83.160156 5.359375 82.230469 C 4.957031 80.835938 4.621094 79.695312 4.335938 78.734375 C 17.1875 80.777344 25.757812 82.109375 62.453125 86.0625 C 67.867188 86.644531 75.164062 87.5 83.488281 87.5 C 91.097656 87.5 99.5625 86.785156 108.238281 84.488281 C 109.644531 84.117188 123.105469 79.730469 128.980469 79.730469 C 130.3125 79.730469 131.253906 79.953125 131.578125 80.503906 C 132.113281 81.40625 123.691406 83.910156 122.039062 84.496094 C 114.480469 87.179688 106.234375 89.546875 97.46875 91.550781 C 92.386719 92.714844 88.210938 93.175781 84.261719 93.175781 " fill-opacity="1" fill-rule="nonzero"/><path fill="#804120" d="M 43.894531 106.035156 C 33.753906 106.035156 23.351562 105.492188 13.917969 103.753906 C 13.890625 103.746094 13.863281 103.734375 13.835938 103.726562 L 13.824219 103.71875 C 7.546875 101.46875 5.972656 99.355469 5.246094 97.464844 C 5.238281 97.441406 5.230469 97.417969 5.222656 97.394531 C 7.316406 96.765625 9.664062 96.507812 12.265625 96.507812 C 24.125 96.507812 41.210938 101.910156 63.542969 102.4375 C 64.773438 102.46875 65.964844 102.484375 67.125 102.484375 C 93.433594 102.484375 101.058594 95.226562 105.605469 92.738281 C 109.914062 90.375 116.6875 88.296875 123.640625 88.296875 C 125.035156 88.296875 126.433594 88.382812 127.820312 88.5625 C 130.816406 88.953125 133.351562 89.757812 136.105469 90.371094 C 137.378906 90.652344 138.90625 90.921875 140.652344 91.171875 C 139.101562 93.066406 137.464844 94.925781 135.75 96.746094 C 130.542969 96.078125 126.703125 95.792969 123.683594 95.792969 C 115.882812 95.792969 113.582031 97.71875 107.484375 100.054688 C 98.148438 103.640625 84.390625 104.460938 71.582031 105.109375 C 63.339844 105.523438 53.738281 106.035156 43.894531 106.035156 " fill-opacity="1" fill-rule="nonzero"/><path fill="#804120" d="M 105.347656 106.398438 L 96.058594 106.398438 C 102.414062 105.535156 108.542969 104.402344 114.292969 103.019531 L 114.4375 103.472656 L 105.347656 106.398438 " fill-opacity="1" fill-rule="nonzero"/><path fill="#804120" d="M 114.746094 105.851562 C 114.960938 105.636719 115.308594 105.289062 116.484375 104.109375 C 116.007812 103.34375 115.867188 103.117188 115.605469 102.695312 C 118.820312 101.90625 122.675781 100.503906 128.597656 100.503906 C 129.625 100.503906 130.714844 100.546875 131.871094 100.640625 C 130.222656 102.21875 128.507812 103.757812 126.726562 105.261719 C 125.984375 105.230469 125.238281 105.214844 124.492188 105.214844 C 121.195312 105.214844 117.875 105.511719 114.742188 105.851562 " fill-opacity="1" fill-rule="nonzero"/><path fill="#804120" d="M 73.214844 99 C 69.261719 99 64.566406 97.640625 56.425781 95.644531 C 56.957031 95.359375 57.632812 95.253906 58.355469 95.253906 C 60.199219 95.253906 62.316406 95.953125 62.878906 96.097656 C 65.917969 96.886719 69.082031 97.0625 72.285156 97.0625 C 73.636719 97.0625 74.996094 97.03125 76.355469 97 C 77.710938 96.96875 79.066406 96.9375 80.417969 96.9375 C 82.339844 96.9375 84.25 97 86.125 97.222656 C 82.09375 97.46875 79.519531 98.109375 75.929688 98.761719 C 75.042969 98.925781 74.152344 99 73.214844 99 " fill-opacity="1" fill-rule="nonzero"/><path fill="#804120" d="M 48.800781 94.097656 C 43.671875 94.097656 37.78125 93.402344 36.257812 93.257812 C 27.664062 92.457031 18.773438 92.292969 10.246094 92.292969 C 7.863281 92.292969 5.507812 92.304688 3.195312 92.320312 C 3.105469 91.769531 3.085938 91.164062 3.121094 90.527344 C 6.8125 90.519531 9.304688 90.484375 11.433594 90.484375 C 18.726562 90.484375 21.761719 90.851562 54.128906 93.707031 C 52.667969 93.992188 50.789062 94.097656 48.800781 94.097656 " fill-opacity="1" fill-rule="nonzero"/><path fill="#954e29" d="M 150 59.117188 L 135.75 53.476562 C 118 53.628906 113.046875 53.714844 103.242188 53.714844 C 90.472656 53.714844 69.464844 53.566406 1.191406 53.207031 C 1.191406 53.203125 1.191406 53.199219 1.191406 53.195312 C 1.375 52.09375 2.042969 47.914062 2.628906 43.625 C 5.132812 43.515625 9.671875 43.230469 13.777344 43.230469 C 14.867188 43.230469 15.925781 43.25 16.90625 43.296875 C 28.976562 43.910156 59.242188 51.410156 90.683594 51.410156 C 93.0625 51.410156 95.453125 51.367188 97.835938 51.273438 C 119.03125 50.453125 139.039062 45.886719 160.121094 45.886719 C 160.445312 45.886719 160.773438 45.886719 161.101562 45.890625 C 160.875 47.410156 160.609375 48.929688 160.304688 50.4375 C 157.394531 49.753906 154.277344 49.011719 151.929688 48.921875 C 151.792969 48.914062 151.632812 48.910156 151.449219 48.910156 C 145.8125 48.910156 119.355469 51.40625 119.027344 51.414062 C 119.460938 51.402344 119.917969 51.398438 120.398438 51.398438 C 130.21875 51.398438 149.332031 52.964844 159.4375 54.269531 C 159.074219 55.730469 158.671875 57.1875 158.230469 58.632812 L 150 59.117188 " fill-opacity="1" fill-rule="nonzero"/><path fill="#804120" d="M 159.4375 54.269531 C 149.332031 52.964844 130.21875 51.398438 120.398438 51.398438 C 119.917969 51.398438 119.460938 51.402344 119.027344 51.414062 C 119.355469 51.40625 145.8125 48.910156 151.449219 48.910156 C 151.632812 48.910156 151.792969 48.914062 151.929688 48.921875 C 154.277344 49.011719 157.394531 49.753906 160.304688 50.4375 C 160.042969 51.722656 159.757812 52.996094 159.4375 54.269531 " fill-opacity="1" fill-rule="nonzero"/><path fill="#954e29" d="M 87.296875 46.664062 C 71.394531 46.664062 60.28125 44.042969 37.726562 40.964844 C 25.933594 39.355469 13.585938 38.371094 3.316406 38.039062 C 3.53125 35.996094 3.648438 34.308594 3.574219 33.449219 C 9.832031 33.484375 16.09375 33.890625 22.066406 34.296875 C 28.339844 34.726562 34.292969 35.152344 39.582031 35.148438 C 39.867188 35.148438 40.152344 35.148438 40.429688 35.148438 C 49.917969 35.058594 59.75 33.957031 69.0625 33.957031 C 73.699219 33.957031 78.210938 34.230469 82.480469 35.039062 C 90.308594 36.515625 95.835938 39.589844 103.886719 40.859375 C 106.898438 41.335938 109.957031 41.53125 113.03125 41.53125 C 124.597656 41.527344 136.351562 38.753906 146.382812 37.511719 C 152.035156 36.8125 157.238281 36.484375 161.984375 36.394531 C 161.886719 39.035156 161.664062 41.671875 161.320312 44.300781 C 157.675781 44.019531 154.953125 43.546875 152.488281 43.070312 C 148.625 42.328125 145.394531 41.585938 140.230469 41.585938 C 139.953125 41.585938 139.664062 41.585938 139.375 41.59375 C 136.203125 41.636719 133.167969 42.097656 130.191406 42.542969 C 110.585938 45.503906 97.882812 46.664062 87.296875 46.664062 M 24.566406 36.769531 C 28.691406 37.078125 84.128906 43.214844 97.328125 43.214844 C 99.667969 43.214844 100.675781 43.019531 99.84375 42.570312 C 90.355469 37.425781 67.761719 36.464844 49.710938 36.464844 C 44.355469 36.464844 39.402344 36.550781 35.304688 36.632812 C 31.210938 36.71875 27.976562 36.804688 26.066406 36.804688 C 25.398438 36.804688 24.890625 36.792969 24.566406 36.769531 M 112.640625 38.511719 C 110.484375 38.511719 108.335938 38.429688 106.300781 38.15625 C 99.21875 37.191406 88.398438 32.148438 73.242188 31.636719 C 72.058594 31.597656 70.960938 31.578125 69.933594 31.578125 C 65.324219 31.578125 62.042969 31.9375 57.996094 32.296875 C 53.945312 32.65625 49.125 33.011719 41.429688 33.011719 C 35.910156 33.011719 28.910156 32.828125 19.652344 32.328125 C 17.953125 32.234375 15.777344 32.203125 13.457031 32.203125 C 10.046875 32.203125 6.332031 32.277344 3.390625 32.347656 C 3.148438 30.941406 2.886719 29.257812 2.671875 27.453125 C 9.539062 29.605469 16.480469 30.375 23.214844 30.375 C 38.722656 30.375 53.15625 26.308594 63.28125 25.742188 C 64.378906 25.679688 65.496094 25.652344 66.636719 25.652344 C 73.429688 25.652344 81.097656 26.617188 90.898438 27.050781 C 99.347656 27.425781 107.839844 27.804688 116.03125 28.71875 C 127.429688 29.992188 138.324219 30.945312 149.5 30.945312 C 153.023438 30.945312 156.570312 30.851562 160.171875 30.640625 C 154.488281 30.445312 148.882812 30.164062 143.386719 29.789062 C 118.808594 28.109375 97.382812 24.730469 70.726562 24.730469 C 62.179688 24.730469 53.101562 25.074219 43.203125 25.9375 C 36.484375 26.523438 31.738281 27.015625 26.839844 27.015625 C 20.480469 27.015625 13.859375 26.1875 2.320312 23.664062 C 2.191406 21.671875 2.164062 19.65625 2.3125 17.792969 C 12.800781 21.207031 31.425781 23.113281 46.566406 23.113281 C 53.28125 23.113281 59.308594 22.742188 63.636719 21.953125 C 70.480469 20.710938 77.222656 18.03125 82.664062 16.101562 C 77.722656 16.441406 69.152344 17.722656 58.761719 17.726562 C 50.148438 17.726562 40.28125 16.84375 30.183594 13.8125 C 27.929688 13.136719 25.792969 12.378906 23.289062 11.863281 C 21.070312 11.40625 18.613281 11.195312 16.144531 11.195312 C 11.320312 11.195312 6.4375 12.007812 3.144531 13.417969 C 3.199219 13.253906 3.257812 13.097656 3.320312 12.941406 C 4.679688 10.710938 6.578125 8.933594 8.730469 7.726562 C 16.355469 8.234375 21.957031 9.179688 26.234375 9.179688 C 27.730469 9.179688 29.066406 9.0625 30.269531 8.773438 C 19.84375 7.625 14.382812 7.019531 11.09375 6.660156 C 11.097656 6.660156 11.097656 6.660156 11.101562 6.660156 L 11.105469 6.660156 C 13.160156 5.945312 13.65625 5.828125 21.414062 5.828125 C 22.039062 5.828125 22.710938 5.828125 23.4375 5.832031 C 28.226562 6.230469 33.480469 6.738281 38.375 7.582031 L 38.390625 7.589844 L 40.738281 13.894531 L 40.738281 8.023438 C 42.804688 8.4375 44.773438 8.921875 46.589844 9.492188 C 51.71875 11.101562 56.820312 14.253906 70.007812 14.253906 C 72.554688 14.253906 75.40625 14.140625 78.613281 13.867188 C 90.410156 12.878906 106.226562 9.078125 133.121094 9.078125 C 140.777344 9.078125 149.34375 9.386719 158.957031 10.15625 C 159.566406 12.398438 160.089844 14.652344 160.519531 16.914062 C 154.265625 16.878906 147.671875 16.621094 140.777344 16.078125 C 134.128906 15.558594 127.335938 14.796875 120.664062 14.796875 C 118.277344 14.796875 115.902344 14.894531 113.558594 15.132812 C 108.164062 15.6875 103.421875 16.964844 98.28125 17.824219 C 96.929688 18.054688 95.75 18.152344 94.652344 18.152344 C 91.589844 18.152344 89.214844 17.382812 85.699219 16.53125 C 86.164062 18.347656 88.339844 18.960938 91.421875 18.960938 C 97.417969 18.960938 106.847656 16.632812 113.808594 16.261719 C 117.316406 16.078125 120.726562 15.925781 124.097656 15.925781 C 127.636719 15.925781 131.132812 16.09375 134.65625 16.5625 C 142.859375 17.65625 151.683594 18.121094 160.753906 18.214844 C 161.007812 19.664062 161.222656 21.117188 161.402344 22.574219 C 159.542969 22.222656 157.75 21.808594 155.925781 21.433594 C 151.207031 20.46875 144.507812 20.121094 137.378906 20.121094 C 119.382812 20.121094 98.625 22.339844 99.898438 22.484375 C 100.480469 22.546875 101.226562 22.574219 102.097656 22.574219 C 104.675781 22.574219 108.34375 22.335938 112.011719 22.09375 C 115.679688 21.851562 119.347656 21.609375 121.921875 21.609375 C 122.796875 21.609375 123.542969 21.636719 124.121094 21.703125 C 125.601562 21.867188 127.136719 22.03125 128.65625 22.03125 C 129.125 22.03125 129.597656 22.019531 130.066406 21.980469 C 131.324219 21.882812 132.480469 21.636719 133.71875 21.503906 C 134.476562 21.425781 135.214844 21.386719 135.941406 21.386719 C 141.855469 21.386719 146.832031 23.8125 151.972656 25.320312 C 154.972656 26.203125 158.308594 26.785156 161.839844 27.171875 C 161.917969 28.292969 161.972656 29.414062 162.007812 30.535156 C 161.40625 30.570312 160.792969 30.605469 160.171875 30.640625 C 160.785156 30.664062 161.398438 30.683594 162.011719 30.703125 C 162.058594 32.304688 162.058594 33.90625 162.011719 35.507812 C 146.621094 36.34375 131.300781 38.09375 115.75 38.46875 C 114.71875 38.492188 113.675781 38.511719 112.640625 38.511719 M 92.628906 31.160156 C 91.15625 31.160156 89.773438 31.269531 88.695312 31.550781 C 110.140625 34.125 118.726562 34.914062 124.121094 34.914062 C 131.019531 34.914062 132.699219 33.625 149.359375 33.128906 C 145.53125 32.90625 141.632812 32.839844 137.707031 32.839844 C 134.949219 32.839844 132.175781 32.875 129.402344 32.90625 C 126.628906 32.9375 123.851562 32.972656 121.089844 32.972656 C 114.550781 32.972656 108.085938 32.789062 101.875 32.003906 C 100.722656 31.859375 96.394531 31.160156 92.628906 31.160156 M 70.578125 10.167969 C 58.355469 10.167969 56.253906 7.550781 49.707031 5.855469 C 52.660156 5.855469 55.558594 5.855469 58.410156 5.855469 C 60.835938 6.207031 63.453125 6.300781 66.148438 6.300781 C 67.652344 6.300781 69.183594 6.273438 70.71875 6.246094 C 72.253906 6.214844 73.792969 6.183594 75.316406 6.183594 C 76.714844 6.183594 78.101562 6.210938 79.460938 6.285156 C 85.003906 6.578125 88.582031 7.398438 93.703125 7.398438 C 97.164062 7.398438 101.328125 7.023438 107.28125 5.855469 C 107.3125 5.847656 107.347656 5.84375 107.382812 5.835938 C 111.855469 5.832031 116.160156 5.832031 120.273438 5.828125 C 112.285156 6.625 93.0625 8.535156 85.589844 9.28125 C 79.277344 9.90625 74.425781 10.167969 70.578125 10.167969 M 158.304688 7.878906 C 152.6875 7.136719 148.375 6.269531 145.660156 5.855469 C 145.554688 5.839844 145.453125 5.824219 145.347656 5.808594 C 149.710938 5.804688 153.800781 5.804688 157.648438 5.796875 C 157.875 6.492188 158.097656 7.183594 158.304688 7.878906 " fill-opacity="1" fill-rule="nonzero"/><path fill="#804120" d="M 124.121094 34.914062 C 118.726562 34.914062 110.140625 34.125 88.695312 31.550781 C 89.773438 31.269531 91.15625 31.160156 92.628906 31.160156 C 96.394531 31.160156 100.722656 31.859375 101.875 32.003906 C 108.085938 32.789062 114.550781 32.972656 121.089844 32.972656 C 123.851562 32.972656 126.628906 32.9375 129.402344 32.90625 C 132.175781 32.875 134.949219 32.839844 137.707031 32.839844 C 141.632812 32.839844 145.53125 32.90625 149.359375 33.128906 C 132.699219 33.625 131.019531 34.914062 124.121094 34.914062 " fill-opacity="1" fill-rule="nonzero"/><path fill="#804120" d="M 26.234375 9.179688 C 21.957031 9.179688 16.355469 8.234375 8.730469 7.726562 C 9.492188 7.300781 10.285156 6.941406 11.09375 6.660156 C 14.382812 7.019531 19.84375 7.625 30.269531 8.773438 C 29.066406 9.0625 27.730469 9.179688 26.234375 9.179688 " fill-opacity="1" fill-rule="nonzero"/><path fill="#804120" d="M 93.703125 7.398438 C 88.582031 7.398438 85.003906 6.578125 79.460938 6.285156 C 78.101562 6.210938 76.714844 6.183594 75.316406 6.183594 C 73.792969 6.183594 72.253906 6.214844 70.71875 6.246094 C 69.183594 6.273438 67.652344 6.300781 66.148438 6.300781 C 63.453125 6.300781 60.835938 6.207031 58.410156 5.855469 C 76.796875 5.851562 93.027344 5.84375 107.382812 5.835938 C 107.347656 5.84375 107.3125 5.847656 107.28125 5.855469 C 101.328125 7.023438 97.164062 7.398438 93.703125 7.398438 " fill-opacity="1" fill-rule="nonzero"/><path fill="#804120" d="M 70.007812 14.253906 C 56.820312 14.253906 51.71875 11.101562 46.589844 9.492188 C 44.773438 8.921875 42.804688 8.4375 40.738281 8.023438 L 40.738281 7.398438 L 39.195312 5.855469 C 42.765625 5.855469 46.28125 5.855469 49.707031 5.855469 C 56.253906 7.550781 58.355469 10.167969 70.578125 10.167969 C 74.425781 10.167969 79.277344 9.90625 85.589844 9.28125 C 93.0625 8.535156 112.285156 6.625 120.273438 5.828125 C 129.484375 5.820312 137.808594 5.8125 145.347656 5.808594 C 145.453125 5.824219 145.554688 5.839844 145.660156 5.855469 C 148.375 6.269531 152.6875 7.136719 158.304688 7.878906 C 158.53125 8.640625 158.75 9.394531 158.957031 10.15625 C 149.34375 9.386719 140.777344 9.078125 133.121094 9.078125 C 106.226562 9.078125 90.410156 12.878906 78.613281 13.867188 C 75.40625 14.140625 72.554688 14.253906 70.007812 14.253906 M 38.375 7.582031 C 33.480469 6.738281 28.226562 6.230469 23.4375 5.832031 C 26.367188 5.835938 30.136719 5.847656 35.058594 5.855469 C 34.9375 5.953125 34.859375 6.015625 34.832031 6.035156 L 38.375 7.582031 " fill-opacity="1" fill-rule="nonzero"/><path fill="#804120" d="M 91.421875 18.960938 C 88.339844 18.960938 86.164062 18.347656 85.699219 16.53125 C 89.214844 17.382812 91.589844 18.152344 94.652344 18.152344 C 95.75 18.152344 96.929688 18.054688 98.28125 17.824219 C 103.421875 16.964844 108.164062 15.6875 113.558594 15.132812 C 115.902344 14.894531 118.277344 14.796875 120.664062 14.796875 C 127.335938 14.796875 134.128906 15.558594 140.777344 16.078125 C 147.671875 16.621094 154.265625 16.878906 160.519531 16.914062 C 160.601562 17.347656 160.679688 17.78125 160.753906 18.214844 C 151.683594 18.121094 142.859375 17.65625 134.65625 16.5625 C 131.132812 16.09375 127.636719 15.925781 124.097656 15.925781 C 120.726562 15.925781 117.316406 16.078125 113.808594 16.261719 C 106.847656 16.632812 97.417969 18.960938 91.421875 18.960938 " fill-opacity="1" fill-rule="nonzero"/><path fill="#804120" d="M 161.839844 27.171875 C 158.308594 26.785156 154.972656 26.203125 151.972656 25.320312 C 146.832031 23.8125 141.855469 21.386719 135.941406 21.386719 C 135.214844 21.386719 134.476562 21.425781 133.71875 21.503906 C 132.480469 21.636719 131.324219 21.882812 130.066406 21.980469 C 129.597656 22.019531 129.125 22.03125 128.65625 22.03125 C 127.136719 22.03125 125.601562 21.867188 124.121094 21.703125 C 123.542969 21.636719 122.796875 21.609375 121.921875 21.609375 C 119.347656 21.609375 115.679688 21.851562 112.011719 22.09375 C 108.34375 22.335938 104.675781 22.574219 102.097656 22.574219 C 101.226562 22.574219 100.480469 22.546875 99.898438 22.484375 C 98.625 22.339844 119.382812 20.121094 137.378906 20.121094 C 144.507812 20.121094 151.207031 20.46875 155.925781 21.433594 C 157.75 21.808594 159.542969 22.222656 161.402344 22.574219 C 161.589844 24.101562 161.734375 25.636719 161.839844 27.171875 " fill-opacity="1" fill-rule="nonzero"/><path fill="#954e29" d="M 1.257812 14.402344 C 1.285156 14.046875 1.324219 13.789062 1.375 13.453125 C 1.859375 10.085938 3.652344 6.953125 6.28125 4.6875 C 5.808594 5.097656 5.347656 5.550781 4.917969 6.035156 C 4.917969 6.035156 4.914062 6.035156 4.914062 6.035156 C 4.605469 6.382812 4.316406 6.742188 4.039062 7.113281 C 3.675781 7.601562 3.34375 8.117188 3.050781 8.644531 C 1.921875 10.632812 1.457031 12.46875 1.277344 14.386719 L 1.257812 14.402344 " fill-opacity="1" fill-rule="nonzero"/><path fill="#804120" d="M 4.039062 7.113281 C 4.316406 6.742188 4.605469 6.382812 4.914062 6.035156 C 4.914062 6.035156 4.917969 6.035156 4.917969 6.035156 C 4.609375 6.382812 4.316406 6.742188 4.039062 7.113281 " fill-opacity="1" fill-rule="nonzero"/><path fill="#954e29" d="M 39.195312 5.855469 C 39.226562 5.8125 39.257812 5.769531 39.289062 5.726562 L 40.144531 4.539062 C 41.664062 2.433594 41.777344 2.265625 42.578125 1.164062 L 42.628906 1.09375 C 40.726562 1.09375 38.953125 1.09375 37.308594 1.09375 L 42.628906 1.09375 C 41.644531 2.441406 41.632812 2.480469 39.195312 5.855469 C 41.832031 4.273438 40.511719 5.066406 45.339844 2.167969 C 44.296875 2.792969 42.789062 3.699219 40.503906 5.070312 L 39.195312 5.855469 " fill-opacity="1" fill-rule="nonzero"/><path fill="#804120" d="M 42.578125 1.164062 C 42.59375 1.140625 42.609375 1.117188 42.628906 1.09375 L 42.578125 1.164062 " fill-opacity="1" fill-rule="nonzero"/><path fill="#804120" d="M 39.195312 5.855469 L 40.503906 5.070312 C 40.09375 5.316406 39.65625 5.578125 39.195312 5.855469 M 39.289062 5.726562 C 39.617188 5.273438 39.898438 4.882812 40.144531 4.539062 L 39.289062 5.726562 " fill-opacity="1" fill-rule="nonzero"/><path fill="#954e29" d="M 7.496094 3.742188 C 7.636719 3.644531 7.785156 3.542969 7.933594 3.445312 C 7.824219 3.523438 7.710938 3.59375 7.601562 3.671875 C 7.566406 3.695312 7.53125 3.71875 7.496094 3.742188 M 8.574219 3.054688 C 9.285156 2.648438 10.03125 2.292969 10.8125 2.003906 C 10.8125 2.003906 10.816406 2.003906 10.816406 2.003906 C 10.136719 2.257812 9.367188 2.601562 8.574219 3.054688 M 11.171875 1.875 C 11.34375 1.816406 11.515625 1.761719 11.691406 1.707031 C 11.640625 1.722656 11.59375 1.738281 11.542969 1.753906 C 11.421875 1.792969 11.296875 1.832031 11.171875 1.875 " fill-opacity="1" fill-rule="nonzero"/><path fill="#804120" d="M 10.816406 2.003906 C 10.816406 2.003906 10.8125 2.003906 10.8125 2.003906 C 10.929688 1.957031 11.050781 1.917969 11.171875 1.875 C 11.296875 1.832031 11.421875 1.792969 11.542969 1.753906 C 11.316406 1.824219 11.074219 1.910156 10.816406 2.003906 " fill-opacity="1" fill-rule="nonzero"/><path fill="#954e29" d="M 13.320312 1.320312 C 13.421875 1.300781 13.527344 1.285156 13.628906 1.269531 C 13.566406 1.277344 13.503906 1.292969 13.433594 1.300781 C 13.433594 1.300781 13.394531 1.308594 13.320312 1.320312 M 14.496094 1.160156 C 14.957031 1.113281 15.421875 1.09375 15.890625 1.09375 L 16.347656 1.09375 C 15.46875 1.105469 14.914062 1.128906 14.496094 1.160156 " fill-opacity="1" fill-rule="nonzero"/><path fill="#804120" d="M 46.566406 23.113281 C 31.425781 23.113281 12.800781 21.207031 2.3125 17.792969 C 2.445312 16.183594 2.703125 14.6875 3.144531 13.417969 C 6.4375 12.007812 11.320312 11.195312 16.144531 11.195312 C 18.613281 11.195312 21.070312 11.40625 23.289062 11.863281 C 25.792969 12.378906 27.929688 13.136719 30.183594 13.8125 C 40.28125 16.84375 50.148438 17.726562 58.761719 17.726562 C 69.152344 17.722656 77.722656 16.441406 82.664062 16.101562 C 77.222656 18.03125 70.480469 20.710938 63.636719 21.953125 C 59.308594 22.742188 53.28125 23.113281 46.566406 23.113281 M 1.257812 14.402344 L 1.257812 14.402344 " fill-opacity="1" fill-rule="nonzero"/><path fill="#804120" d="M 162.011719 30.703125 C 161.398438 30.683594 160.785156 30.664062 160.171875 30.640625 C 160.792969 30.605469 161.40625 30.570312 162.007812 30.535156 C 162.007812 30.59375 162.011719 30.648438 162.011719 30.703125 " fill-opacity="1" fill-rule="nonzero"/><path fill="#804120" d="M 149.5 30.945312 C 138.324219 30.945312 127.429688 29.992188 116.03125 28.71875 C 107.839844 27.804688 99.347656 27.425781 90.898438 27.050781 C 81.097656 26.617188 73.429688 25.652344 66.636719 25.652344 C 65.496094 25.652344 64.378906 25.679688 63.28125 25.742188 C 53.15625 26.308594 38.722656 30.375 23.214844 30.375 C 16.480469 30.375 9.539062 29.605469 2.671875 27.453125 C 2.523438 26.230469 2.398438 24.953125 2.320312 23.664062 C 13.859375 26.1875 20.480469 27.015625 26.839844 27.015625 C 31.738281 27.015625 36.484375 26.523438 43.203125 25.9375 C 53.101562 25.074219 62.179688 24.730469 70.726562 24.730469 C 97.382812 24.730469 118.808594 28.109375 143.386719 29.789062 C 148.882812 30.164062 154.488281 30.445312 160.171875 30.640625 C 156.570312 30.851562 153.023438 30.945312 149.5 30.945312 " fill-opacity="1" fill-rule="nonzero"/><path fill="#804120" d="M 113.03125 41.53125 C 109.957031 41.53125 106.898438 41.335938 103.886719 40.859375 C 95.835938 39.589844 90.308594 36.515625 82.480469 35.039062 C 78.210938 34.230469 73.699219 33.957031 69.0625 33.957031 C 59.75 33.957031 49.917969 35.058594 40.429688 35.148438 C 40.152344 35.148438 39.867188 35.148438 39.582031 35.148438 C 34.292969 35.152344 28.339844 34.726562 22.066406 34.296875 C 16.09375 33.890625 9.832031 33.484375 3.574219 33.449219 C 3.566406 33.300781 3.546875 33.179688 3.523438 33.082031 C 3.480469 32.847656 3.4375 32.601562 3.390625 32.347656 C 6.332031 32.277344 10.046875 32.203125 13.457031 32.203125 C 15.777344 32.203125 17.953125 32.234375 19.652344 32.328125 C 28.910156 32.828125 35.910156 33.011719 41.429688 33.011719 C 49.125 33.011719 53.945312 32.65625 57.996094 32.296875 C 62.042969 31.9375 65.324219 31.578125 69.933594 31.578125 C 70.960938 31.578125 72.058594 31.597656 73.242188 31.636719 C 88.398438 32.148438 99.21875 37.191406 106.300781 38.15625 C 108.335938 38.429688 110.484375 38.511719 112.640625 38.511719 C 113.675781 38.511719 114.71875 38.492188 115.75 38.46875 C 131.300781 38.09375 146.621094 36.34375 162.011719 35.507812 C 162.003906 35.804688 161.996094 36.101562 161.984375 36.394531 C 157.238281 36.484375 152.035156 36.8125 146.382812 37.511719 C 136.351562 38.753906 124.597656 41.527344 113.03125 41.53125 " fill-opacity="1" fill-rule="nonzero"/><path fill="#804120" d="M 90.683594 51.410156 C 59.242188 51.410156 28.976562 43.910156 16.90625 43.296875 C 15.925781 43.25 14.867188 43.230469 13.777344 43.230469 C 9.671875 43.230469 5.132812 43.515625 2.628906 43.625 C 2.890625 41.695312 3.136719 39.746094 3.316406 38.039062 C 13.585938 38.371094 25.933594 39.355469 37.726562 40.964844 C 60.28125 44.042969 71.394531 46.664062 87.296875 46.664062 C 97.882812 46.664062 110.585938 45.503906 130.191406 42.542969 C 133.167969 42.097656 136.203125 41.636719 139.375 41.59375 C 139.664062 41.585938 139.953125 41.585938 140.230469 41.585938 C 145.394531 41.585938 148.625 42.328125 152.488281 43.070312 C 154.953125 43.546875 157.675781 44.019531 161.320312 44.300781 C 161.253906 44.832031 161.179688 45.359375 161.101562 45.890625 C 160.773438 45.886719 160.445312 45.886719 160.121094 45.886719 C 139.039062 45.886719 119.03125 50.453125 97.835938 51.273438 C 95.453125 51.367188 93.0625 51.410156 90.683594 51.410156 " fill-opacity="1" fill-rule="nonzero"/><path fill="#804120" d="M 97.328125 43.214844 C 84.128906 43.214844 28.691406 37.078125 24.566406 36.769531 C 24.890625 36.792969 25.398438 36.804688 26.066406 36.804688 C 27.976562 36.804688 31.210938 36.71875 35.304688 36.632812 C 39.402344 36.550781 44.355469 36.464844 49.710938 36.464844 C 67.761719 36.464844 90.355469 37.425781 99.84375 42.570312 C 100.675781 43.019531 99.667969 43.214844 97.328125 43.214844 " fill-opacity="1" fill-rule="nonzero"/><path fill="#b76434" d="M 1.277344 14.386719 C 1.457031 12.46875 1.921875 10.632812 3.050781 8.644531 C 3.34375 8.117188 3.675781 7.601562 4.039062 7.113281 C 4.316406 6.742188 4.609375 6.382812 4.917969 6.035156 C 5.347656 5.550781 5.808594 5.097656 6.28125 4.6875 C 6.667969 4.351562 7.074219 4.039062 7.496094 3.742188 C 7.53125 3.71875 7.566406 3.695312 7.601562 3.671875 C 7.710938 3.59375 7.824219 3.523438 7.933594 3.445312 C 8.144531 3.3125 8.359375 3.179688 8.574219 3.054688 C 9.367188 2.601562 10.136719 2.257812 10.816406 2.003906 C 11.074219 1.910156 11.316406 1.824219 11.542969 1.753906 C 11.59375 1.738281 11.640625 1.722656 11.691406 1.707031 C 12.222656 1.546875 12.761719 1.417969 13.320312 1.320312 C 13.394531 1.308594 13.433594 1.300781 13.433594 1.300781 C 13.503906 1.292969 13.566406 1.277344 13.628906 1.269531 C 13.914062 1.222656 14.207031 1.1875 14.496094 1.160156 C 14.914062 1.128906 15.46875 1.105469 16.347656 1.09375 L 37.308594 1.09375 C 38.953125 1.09375 40.726562 1.09375 42.628906 1.09375 L 40.875 1.09375 C 40.691406 1.300781 36.152344 4.96875 35.058594 5.855469 C 30.136719 5.847656 26.367188 5.835938 23.4375 5.832031 C 22.710938 5.828125 22.039062 5.828125 21.414062 5.828125 C 13.65625 5.828125 13.160156 5.945312 11.105469 6.660156 L 11.101562 6.660156 C 11.097656 6.660156 11.097656 6.660156 11.09375 6.660156 C 10.285156 6.941406 9.492188 7.300781 8.730469 7.726562 C 6.578125 8.933594 4.679688 10.710938 3.320312 12.941406 C 3.488281 12.523438 3.675781 12.136719 3.890625 11.785156 L 1.277344 14.386719 M 5.359375 10.320312 C 5.269531 10.347656 4.59375 10.617188 3.890625 11.785156 L 5.359375 10.320312 " fill-opacity="1" fill-rule="nonzero"/><path fill="#804120" d="M 1.207031 42.324219 C 1.207031 41.707031 1.210938 41.355469 1.210938 41.332031 C 1.230469 41.230469 1.253906 41.097656 1.285156 40.945312 C 1.242188 41.289062 1.21875 41.671875 1.207031 42.324219 " fill-opacity="1" fill-rule="nonzero"/><path fill="#954e29" d="M 1.855469 37.363281 C 1.9375 36.722656 1.996094 36.117188 2.007812 35.628906 C 2.003906 36.046875 1.957031 36.578125 1.855469 37.363281 " fill-opacity="1" fill-rule="nonzero"/><path fill="#954e29" d="M 1.902344 34.613281 C 1.820312 34.300781 1.753906 34.019531 1.691406 33.761719 C 1.777344 34.097656 1.847656 34.363281 1.902344 34.613281 " fill-opacity="1" fill-rule="nonzero"/><path fill="#954e29" d="M 1.304688 31.953125 C 1.257812 31.710938 1.226562 31.53125 1.195312 31.390625 C 1.195312 31.382812 1.195312 31.375 1.195312 31.367188 C 1.195312 31.359375 1.195312 31.351562 1.195312 31.34375 C 1.195312 31.335938 1.195312 31.324219 1.195312 31.320312 C 1.195312 31.3125 1.195312 31.300781 1.195312 31.292969 C 1.195312 29.703125 1.191406 28.265625 1.191406 26.96875 C 1.203125 26.96875 1.210938 26.972656 1.21875 26.976562 C 1.210938 30.167969 1.222656 31.273438 1.304688 31.953125 " fill-opacity="1" fill-rule="nonzero"/><path fill="#954e29" d="M 1.191406 26.019531 C 1.191406 23.308594 1.1875 21.253906 1.1875 19.679688 C 1.1875 19.675781 1.1875 19.671875 1.1875 19.667969 C 1.1875 19.65625 1.1875 19.648438 1.1875 19.636719 C 1.1875 19.601562 1.1875 19.570312 1.1875 19.535156 C 1.191406 19.859375 1.191406 20.183594 1.191406 20.515625 C 1.191406 20.105469 1.210938 19.6875 1.246094 19.273438 C 1.238281 20.851562 1.234375 22.226562 1.230469 23.425781 C 1.21875 23.421875 1.207031 23.421875 1.191406 23.417969 L 1.191406 26.019531 " fill-opacity="1" fill-rule="nonzero"/><path fill="#804120" d="M 1.222656 15.089844 C 1.230469 14.824219 1.242188 14.605469 1.257812 14.421875 C 1.257812 14.484375 1.253906 14.546875 1.253906 14.609375 C 1.242188 14.769531 1.230469 14.929688 1.222656 15.089844 " fill-opacity="1" fill-rule="nonzero"/><path fill="#804120" d="M 1.21875 26.976562 C 1.210938 26.972656 1.203125 26.96875 1.191406 26.96875 C 1.191406 26.644531 1.191406 26.328125 1.191406 26.019531 L 1.191406 23.417969 C 1.207031 23.421875 1.21875 23.421875 1.230469 23.425781 C 1.226562 24.835938 1.222656 26.003906 1.21875 26.976562 " fill-opacity="1" fill-rule="nonzero"/><path fill="#b76434" d="M 1.191406 20.515625 C 1.191406 20.183594 1.191406 19.859375 1.1875 19.535156 C 1.1875 17.148438 1.195312 15.882812 1.222656 15.089844 C 1.230469 14.929688 1.242188 14.769531 1.253906 14.609375 C 1.253906 16.335938 1.25 17.886719 1.246094 19.273438 C 1.210938 19.6875 1.191406 20.105469 1.191406 20.515625 " fill-opacity="1" fill-rule="nonzero"/><path fill="#954e29" d="M 46.78125 1.300781 L 47.125 1.09375 L 155.957031 1.09375 L 47.125 1.09375 C 47.050781 1.136719 46.972656 1.183594 46.886719 1.234375 L 46.78125 1.300781 " fill-opacity="1" fill-rule="nonzero"/><path fill="#b76434" d="M 39.195312 5.855469 C 39.65625 5.578125 40.09375 5.316406 40.503906 5.070312 C 42.789062 3.699219 44.296875 2.792969 45.339844 2.167969 L 45.335938 2.167969 L 45.339844 2.167969 L 47.132812 1.09375 L 47.125 1.09375 L 46.886719 1.234375 C 46.972656 1.183594 47.050781 1.136719 47.125 1.09375 L 155.957031 1.09375 C 156.566406 2.652344 157.128906 4.222656 157.648438 5.796875 C 153.800781 5.804688 149.710938 5.804688 145.347656 5.808594 C 137.808594 5.8125 129.484375 5.820312 120.273438 5.828125 C 116.160156 5.832031 111.855469 5.832031 107.382812 5.835938 C 93.027344 5.84375 76.796875 5.851562 58.410156 5.855469 C 55.558594 5.855469 52.660156 5.855469 49.707031 5.855469 C 46.28125 5.855469 42.765625 5.855469 39.195312 5.855469 " fill-opacity="1" fill-rule="nonzero"/><path fill="#b76434" d="M 1.191406 53.195312 C 1.195312 48.355469 1.199219 44.167969 1.207031 42.324219 C 1.21875 41.671875 1.242188 41.289062 1.285156 40.945312 C 1.433594 40.136719 1.691406 38.679688 1.855469 37.363281 C 1.957031 36.578125 2.003906 36.046875 2.007812 35.628906 C 2.015625 35.242188 1.996094 34.929688 1.933594 34.746094 C 1.925781 34.703125 1.914062 34.65625 1.902344 34.613281 C 1.847656 34.363281 1.777344 34.097656 1.691406 33.761719 C 1.492188 32.929688 1.378906 32.355469 1.304688 31.953125 C 1.222656 31.273438 1.210938 30.167969 1.21875 26.976562 C 1.222656 26.003906 1.226562 24.835938 1.230469 23.425781 C 1.234375 22.226562 1.238281 20.851562 1.246094 19.273438 C 1.25 17.886719 1.253906 16.335938 1.253906 14.609375 C 1.253906 14.546875 1.257812 14.484375 1.257812 14.421875 C 1.257812 14.414062 1.257812 14.410156 1.257812 14.402344 L 1.277344 14.386719 L 3.890625 11.785156 C 3.675781 12.136719 3.488281 12.523438 3.320312 12.941406 C 3.257812 13.097656 3.199219 13.253906 3.144531 13.417969 C 2.703125 14.6875 2.445312 16.183594 2.3125 17.792969 C 2.164062 19.65625 2.191406 21.671875 2.320312 23.664062 C 2.398438 24.953125 2.523438 26.230469 2.671875 27.453125 C 2.886719 29.257812 3.148438 30.941406 3.390625 32.347656 C 3.4375 32.601562 3.480469 32.847656 3.523438 33.082031 C 3.546875 33.179688 3.566406 33.300781 3.574219 33.449219 C 3.648438 34.308594 3.53125 35.996094 3.316406 38.039062 C 3.136719 39.746094 2.890625 41.695312 2.628906 43.625 C 2.042969 47.914062 1.375 52.09375 1.191406 53.195312 " fill-opacity="1" fill-rule="nonzero"/><path fill="#b76434" d="M 3.890625 11.785156 C 4.59375 10.617188 5.269531 10.347656 5.359375 10.320312 L 3.890625 11.785156 " fill-opacity="1" fill-rule="nonzero"/><path fill="#612f15" d="M 149.480469 60.425781 C 135.171875 54.105469 135.609375 54.296875 135.417969 54.214844 C 135.136719 54.226562 131.714844 54.359375 117.816406 54.90625 C 113.375 54.417969 112.324219 54.183594 110.992188 54.183594 C 109.59375 54.183594 107.882812 54.441406 101.632812 54.929688 C 94.613281 54.894531 67.136719 54.742188 39.996094 54.742188 C 27.152344 54.742188 14.378906 54.777344 3.890625 54.875 L 1.191406 54.855469 C 1.191406 54.300781 1.191406 53.746094 1.191406 53.207031 C 69.464844 53.566406 90.472656 53.714844 103.242188 53.714844 C 113.046875 53.714844 118 53.628906 135.75 53.476562 L 150 59.117188 L 158.230469 58.632812 C 158.074219 59.160156 157.90625 59.6875 157.734375 60.210938 C 154.921875 60.28125 152.164062 60.351562 149.480469 60.425781 " fill-opacity="1" fill-rule="nonzero"/><path fill="#b76434" d="M 149.242188 61.632812 C 149.105469 61.574219 144.898438 59.738281 141.097656 58.078125 C 138.335938 56.871094 135.785156 55.761719 135.175781 55.492188 C 123.898438 55.988281 120.382812 56.257812 118.304688 56.257812 C 116.378906 56.257812 115.683594 56.027344 111.191406 55.527344 C 105.015625 55.988281 105.8125 56.246094 97.867188 56.246094 C 90.488281 56.246094 75.574219 56.023438 40.546875 55.535156 C 30.609375 55.382812 13.871094 55.113281 3.890625 54.875 C 14.378906 54.777344 27.152344 54.742188 39.996094 54.742188 C 67.136719 54.742188 94.613281 54.894531 101.632812 54.929688 C 107.882812 54.441406 109.59375 54.183594 110.992188 54.183594 C 112.324219 54.183594 113.375 54.417969 117.816406 54.90625 C 131.714844 54.359375 135.136719 54.226562 135.417969 54.214844 C 135.609375 54.296875 135.171875 54.105469 149.480469 60.425781 C 152.164062 60.351562 154.921875 60.28125 157.734375 60.210938 C 157.609375 60.597656 157.480469 60.988281 157.351562 61.375 C 154.582031 61.464844 151.878906 61.550781 149.242188 61.632812 " fill-opacity="1" fill-rule="nonzero"/><path fill="#954e29" d="M 16.105469 106.398438 L 15.890625 106.398438 C 14.480469 106.398438 13.09375 106.183594 11.789062 105.800781 C 13.203125 106.175781 14.648438 106.335938 16.105469 106.398438 " fill-opacity="1" fill-rule="nonzero"/><path fill="#954e29" d="M 6.269531 102.84375 C 5.855469 102.484375 5.480469 102.109375 5.144531 101.722656 C 5.515625 102.128906 5.886719 102.503906 6.269531 102.84375 " fill-opacity="1" fill-rule="nonzero"/><path fill="#954e29" d="M 4.890625 101.433594 C 3.714844 100.136719 2.894531 98.796875 2.332031 97.410156 C 2.671875 98.210938 3.109375 99.019531 3.675781 99.863281 C 3.679688 99.867188 3.683594 99.875 3.6875 99.882812 C 4.042969 100.414062 4.4375 100.921875 4.863281 101.402344 C 4.875 101.414062 4.882812 101.425781 4.890625 101.433594 " fill-opacity="1" fill-rule="nonzero"/><path fill="#804120" d="M 4.863281 101.402344 C 4.4375 100.921875 4.042969 100.414062 3.6875 99.882812 C 4.074219 100.433594 4.464844 100.941406 4.863281 101.402344 " fill-opacity="1" fill-rule="nonzero"/><path fill="#b76434" d="M 21.75 106.398438 L 16.105469 106.398438 C 14.648438 106.335938 13.203125 106.175781 11.789062 105.800781 C 9.652344 105.179688 7.734375 104.117188 6.269531 102.84375 C 5.886719 102.503906 5.515625 102.128906 5.144531 101.722656 C 5.105469 101.679688 5.066406 101.632812 5.03125 101.589844 C 4.984375 101.539062 4.9375 101.484375 4.890625 101.433594 C 4.882812 101.425781 4.875 101.414062 4.863281 101.402344 C 4.464844 100.941406 4.074219 100.433594 3.6875 99.882812 C 3.683594 99.875 3.679688 99.867188 3.675781 99.863281 C 3.109375 99.019531 2.671875 98.210938 2.332031 97.410156 C 1.496094 95.359375 1.222656 93.199219 1.199219 90.910156 C 1.207031 90.785156 1.214844 90.660156 1.234375 90.527344 L 1.195312 90.527344 L 1.234375 90.527344 C 1.488281 87.855469 2.28125 83.414062 2.785156 80.917969 C 1.691406 77.796875 2.039062 78.792969 1.195312 76.394531 C 1.195312 76.261719 1.191406 64.683594 1.191406 54.867188 C 1.285156 55.933594 1.371094 56.929688 1.449219 57.867188 C 1.6875 60.695312 1.871094 62.972656 2.023438 64.84375 C 2.085938 65.578125 2.136719 66.25 2.191406 66.871094 C 2.742188 73.449219 2.910156 73.925781 4.335938 78.734375 C 4.621094 79.695312 4.957031 80.835938 5.359375 82.230469 C 4.945312 83.160156 4.441406 84.457031 4.019531 85.878906 C 3.566406 87.394531 3.199219 89.046875 3.121094 90.527344 C 3.085938 91.164062 3.105469 91.769531 3.195312 92.320312 C 3.308594 93.007812 3.527344 93.613281 3.890625 94.078125 C 4.660156 95.085938 4.777344 96.195312 5.222656 97.394531 C 5.230469 97.417969 5.238281 97.441406 5.246094 97.464844 C 5.972656 99.355469 7.546875 101.46875 13.824219 103.71875 L 13.835938 103.726562 C 13.863281 103.734375 13.890625 103.746094 13.917969 103.753906 C 16.007812 104.5 18.613281 105.265625 21.875 106.039062 L 21.75 106.398438 " fill-opacity="1" fill-rule="nonzero"/><path fill="#b76434" d="M 1.199219 90.910156 C 1.195312 90.78125 1.195312 90.65625 1.195312 90.527344 L 1.234375 90.527344 C 1.214844 90.660156 1.207031 90.785156 1.199219 90.910156 " fill-opacity="1" fill-rule="nonzero"/><path fill="#612f15" d="M 40.738281 13.894531 L 38.390625 7.589844 L 38.375 7.582031 L 34.832031 6.035156 C 34.859375 6.015625 34.9375 5.953125 35.058594 5.855469 C 36.152344 4.96875 40.691406 1.300781 40.875 1.09375 L 42.628906 1.09375 C 42.609375 1.117188 42.59375 1.140625 42.578125 1.164062 C 41.777344 2.265625 41.664062 2.433594 40.144531 4.539062 C 39.898438 4.882812 39.617188 5.273438 39.289062 5.726562 C 39.257812 5.769531 39.226562 5.8125 39.195312 5.855469 L 40.738281 7.398438 L 40.738281 13.894531 " fill-opacity="1" fill-rule="nonzero"/><path fill="#612f15" d="M 45.339844 2.167969 L 45.335938 2.167969 L 45.34375 2.167969 L 46.78125 1.300781 L 46.886719 1.234375 L 47.125 1.09375 L 47.132812 1.09375 L 45.339844 2.167969 " fill-opacity="1" fill-rule="nonzero"/><path fill="#612f15" d="M 114.4375 103.472656 L 112.691406 98.019531 L 112.703125 98.042969 C 114.429688 103.433594 114.230469 102.816406 114.441406 103.46875 L 114.4375 103.472656 " fill-opacity="1" fill-rule="nonzero"/></svg>